SplineFontDB: 3.2
FontName: ClassWizXDisplayExt-Regular
FullName: ClassWiz X Display Ext Regular
FamilyName: ClassWiz X Display Ext
Weight: Regular
Copyright: Copyright (c) 2025, Hayden Wong (https://github.com/haydenwong7bm/),\nCopyright (c) 2020-2024, Windy Deng (windy0deng@gmail.com),\nCopyright (c) 2014-2024, CASIO Computer Co., Ltd (https:www.casio.com).
Version: 3.4
ItalicAngle: 0
UnderlinePosition: -20
UnderlineWidth: 10
Ascent: 130
Descent: 10
InvalidEm: 0
sfntRevision: 0x00030106
LayerCount: 2
Layer: 0 0 "Back" 1
Layer: 1 0 "Fore" 0
XUID: [1021 77 592130673 31398]
StyleMap: 0x0040
FSType: 0
OS2Version: 4
OS2_WeightWidthSlopeOnly: 0
OS2_UseTypoMetrics: 1
CreationTime: 1725260647
ModificationTime: 1740476098
PfmFamily: 81
TTFWeight: 400
TTFWidth: 5
LineGap: 0
VLineGap: 0
Panose: 0 0 0 0 0 0 0 0 0 0
OS2TypoAscent: 130
OS2TypoAOffset: 0
OS2TypoDescent: -10
OS2TypoDOffset: 0
OS2TypoLinegap: 10
OS2WinAscent: 140
OS2WinAOffset: 0
OS2WinDescent: 20
OS2WinDOffset: 0
HheadAscent: 150
HheadAOffset: 0
HheadDescent: -10
HheadDOffset: 0
OS2SubXSize: 110
OS2SubYSize: 130
OS2SubXOff: 0
OS2SubYOff: 5
OS2SupXSize: 110
OS2SupYSize: 130
OS2SupXOff: 0
OS2SupYOff: 15
OS2StrikeYSize: -10
OS2StrikeYPos: 54
OS2CapHeight: 120
OS2XHeight: 90
OS2Vendor: 'NONE'
OS2CodePages: 40060007.00000000
OS2UnicodeRanges: 20000207.18070001.00000000.00000000
Lookup: 1 0 0 "'aalt' Access All Alternates lookup 0" { "'aalt' Access All Alternates lookup 0 subtable"  } ['aalt' ('DFLT' <'dflt' > 'cyrl' <'dflt' > 'hani' <'dflt' > 'kana' <'dflt' > 'latn' <'dflt' > ) ]
Lookup: 1 0 0 "Single Substitution lookup 1" { "Single Substitution lookup 1 subtable"  } []
Lookup: 4 0 0 "Ligature Substitution lookup 2" { "Ligature Substitution lookup 2 subtable"  } []
Lookup: 1 0 0 "Single Substitution lookup 3" { "Single Substitution lookup 3 subtable"  } []
Lookup: 4 0 0 "Ligature Substitution lookup 4" { "Ligature Substitution lookup 4 subtable"  } []

StartChar: .notdef
Encoding: 1114112 -1 0
Width: 110
GlyphClass: 1
Flags: W
LayerCount: 2
Fore
SplineSet
0 -10 m 1
 0 120 l 1
 100 120 l 1
 100 -10 l 1
 0 -10 l 1
10 0 m 1
 90 0 l 1
 90 110 l 1
 10 110 l 1
 10 0 l 1
20 70 m 1
 20 90 l 1
 30 90 l 1
 30 100 l 1
 70 100 l 1
 70 90 l 1
 80 90 l 1
 80 70 l 1
 70 70 l 1
 70 60 l 1
 60 60 l 1
 60 40 l 1
 40 40 l 1
 40 60 l 1
 50 60 l 1
 50 70 l 1
 60 70 l 1
 60 90 l 1
 40 90 l 1
 40 70 l 1
 20 70 l 1
40 10 m 1
 40 30 l 1
 60 30 l 1
 60 10 l 1
 40 10 l 1
EndSplineSet
EndChar

StartChar: one
Encoding: 49 49 4
Width: 110
GlyphClass: 1
Flags: W
LayerCount: 2
Fore
SplineSet
40 0 m 1
 40 10 l 1
 60 10 l 1
 60 100 l 1
 40 100 l 1
 40 110 l 1
 60 110 l 1
 60 120 l 1
 80 120 l 1
 80 10 l 1
 100 10 l 1
 100 0 l 1
 40 0 l 1
EndSplineSet
EndChar

StartChar: two
Encoding: 50 50 5
Width: 110
GlyphClass: 1
Flags: W
LayerCount: 2
Fore
SplineSet
20 0 m 1
 20 20 l 1
 30 20 l 1
 30 30 l 1
 40 30 l 1
 40 40 l 1
 50 40 l 1
 50 50 l 1
 60 50 l 1
 60 60 l 1
 80 60 l 1
 80 70 l 1
 90 70 l 1
 90 100 l 1
 80 100 l 1
 80 110 l 1
 50 110 l 1
 50 100 l 1
 40 100 l 1
 40 80 l 1
 20 80 l 1
 20 100 l 1
 30 100 l 1
 30 110 l 1
 40 110 l 1
 40 120 l 1
 90 120 l 1
 90 110 l 1
 100 110 l 1
 100 100 l 1
 110 100 l 1
 110 70 l 1
 100 70 l 1
 100 60 l 1
 90 60 l 1
 90 50 l 1
 70 50 l 1
 70 40 l 1
 60 40 l 1
 60 30 l 1
 50 30 l 1
 50 20 l 1
 100 20 l 1
 100 30 l 1
 110 30 l 1
 110 0 l 1
 20 0 l 1
EndSplineSet
EndChar

StartChar: three
Encoding: 51 51 6
Width: 110
GlyphClass: 1
Flags: W
LayerCount: 2
Fore
SplineSet
20 30 m 1
 40 30 l 1
 40 20 l 1
 50 20 l 1
 50 10 l 1
 80 10 l 1
 80 20 l 1
 90 20 l 1
 90 50 l 1
 80 50 l 1
 80 60 l 1
 40 60 l 1
 40 70 l 1
 80 70 l 1
 80 80 l 1
 90 80 l 1
 90 100 l 1
 80 100 l 1
 80 110 l 1
 50 110 l 1
 50 100 l 1
 40 100 l 1
 40 90 l 1
 20 90 l 1
 20 110 l 1
 30 110 l 1
 30 120 l 1
 90 120 l 1
 90 110 l 1
 100 110 l 1
 100 100 l 1
 110 100 l 1
 110 80 l 1
 100 80 l 1
 100 70 l 1
 90 70 l 1
 90 60 l 1
 100 60 l 1
 100 50 l 1
 110 50 l 1
 110 20 l 1
 100 20 l 1
 100 10 l 1
 90 10 l 1
 90 0 l 1
 30 0 l 1
 30 10 l 1
 20 10 l 1
 20 30 l 1
EndSplineSet
EndChar

StartChar: four
Encoding: 52 52 7
Width: 110
GlyphClass: 1
Flags: W
LayerCount: 2
Fore
SplineSet
20 40 m 1
 30 40 l 1
 30 60 l 1
 40 60 l 1
 40 80 l 1
 50 80 l 1
 50 100 l 1
 60 100 l 1
 60 110 l 1
 70 110 l 1
 70 120 l 1
 90 120 l 1
 90 40 l 1
 110 40 l 1
 110 30 l 1
 90 30 l 1
 90 10 l 1
 100 10 l 1
 100 0 l 1
 60 0 l 1
 60 10 l 1
 70 10 l 1
 70 30 l 1
 20 30 l 1
 20 40 l 1
40 60 m 1
 40 40 l 1
 70 40 l 1
 70 100 l 1
 60 100 l 1
 60 80 l 1
 50 80 l 1
 50 60 l 1
 40 60 l 1
EndSplineSet
EndChar

StartChar: colon
Encoding: 58 58 8
Width: 110
GlyphClass: 1
Flags: W
LayerCount: 2
Fore
SplineSet
80 70 m 1
 80 100 l 1
 110 100 l 1
 110 70 l 1
 80 70 l 1
80 10 m 1
 80 40 l 1
 110 40 l 1
 110 10 l 1
 80 10 l 1
EndSplineSet
EndChar

StartChar: E
Encoding: 69 69 9
Width: 110
GlyphClass: 1
Flags: W
LayerCount: 2
Fore
SplineSet
10 110 m 1
 0 110 l 1
 0 120 l 1
 100 120 l 1
 100 90 l 1
 90 90 l 1
 90 100 l 1
 80 100 l 1
 80 110 l 1
 30 110 l 1
 30 70 l 1
 60 70 l 1
 60 90 l 1
 70 90 l 1
 70 40 l 1
 60 40 l 1
 60 60 l 1
 30 60 l 1
 30 10 l 1
 80 10 l 1
 80 20 l 1
 90 20 l 1
 90 30 l 1
 100 30 l 1
 100 0 l 1
 0 0 l 1
 0 10 l 1
 10 10 l 1
 10 110 l 1
EndSplineSet
Substitution2: "'ss01' Style Set 1 lookup 6 subtable" HexE
Substitution2: "'aalt' Access All Alternates lookup 0 subtable" HexE
EndChar

StartChar: F
Encoding: 70 70 10
Width: 110
GlyphClass: 1
Flags: W
LayerCount: 2
Fore
SplineSet
0 120 m 1
 100 120 l 1
 100 90 l 1
 90 90 l 1
 90 100 l 1
 80 100 l 1
 80 110 l 1
 30 110 l 1
 30 70 l 1
 60 70 l 1
 60 90 l 1
 70 90 l 1
 70 40 l 1
 60 40 l 1
 60 60 l 1
 30 60 l 1
 30 10 l 1
 50 10 l 1
 50 0 l 1
 0 0 l 1
 0 10 l 1
 10 10 l 1
 10 110 l 1
 0 110 l 1
 0 120 l 1
EndSplineSet
Substitution2: "'ss01' Style Set 1 lookup 6 subtable" HexF
Substitution2: "'aalt' Access All Alternates lookup 0 subtable" HexF
EndChar

StartChar: slash
Encoding: 47 47 11
Width: 110
GlyphClass: 1
Flags: W
LayerCount: 2
Fore
SplineSet
40 0 m 1
 40 20 l 1
 50 20 l 1
 50 50 l 1
 60 50 l 1
 60 70 l 1
 70 70 l 1
 70 100 l 1
 80 100 l 1
 80 120 l 1
 100 120 l 1
 100 100 l 1
 90 100 l 1
 90 70 l 1
 80 70 l 1
 80 50 l 1
 70 50 l 1
 70 20 l 1
 60 20 l 1
 60 0 l 1
 40 0 l 1
EndSplineSet
Substitution2: "'ss01' Style Set 1 lookup 6 subtable" div
Substitution2: "'aalt' Access All Alternates lookup 0 subtable" div
EndChar

StartChar: M
Encoding: 77 77 12
Width: 110
GlyphClass: 1
Flags: W
LayerCount: 2
Fore
SplineSet
10 110 m 1
 0 110 l 1
 0 120 l 1
 20 120 l 1
 20 110 l 1
 30 110 l 1
 30 80 l 1
 40 80 l 1
 40 50 l 1
 50 50 l 1
 50 70 l 1
 60 70 l 1
 60 110 l 1
 70 110 l 1
 70 120 l 1
 100 120 l 1
 100 110 l 1
 90 110 l 1
 90 10 l 1
 100 10 l 1
 100 0 l 1
 60 0 l 1
 60 10 l 1
 70 10 l 1
 70 70 l 1
 60 70 l 1
 60 20 l 1
 50 20 l 1
 50 0 l 1
 40 0 l 1
 40 20 l 1
 30 20 l 1
 30 50 l 1
 20 50 l 1
 20 10 l 1
 30 10 l 1
 30 0 l 1
 0 0 l 1
 0 10 l 1
 10 10 l 1
 10 110 l 1
EndSplineSet
EndChar

StartChar: D
Encoding: 68 68 13
Width: 110
GlyphClass: 1
Flags: W
LayerCount: 2
Fore
SplineSet
0 110 m 1
 0 120 l 1
 70 120 l 1
 70 110 l 1
 80 110 l 1
 80 100 l 1
 90 100 l 1
 90 80 l 1
 100 80 l 1
 100 40 l 1
 90 40 l 1
 90 20 l 1
 80 20 l 1
 80 10 l 1
 70 10 l 1
 70 0 l 1
 0 0 l 1
 0 10 l 1
 10 10 l 1
 10 110 l 1
 0 110 l 1
30 110 m 1
 30 10 l 1
 60 10 l 1
 60 20 l 1
 70 20 l 1
 70 40 l 1
 80 40 l 1
 80 80 l 1
 70 80 l 1
 70 100 l 1
 60 100 l 1
 60 110 l 1
 30 110 l 1
EndSplineSet
Substitution2: "'ss01' Style Set 1 lookup 6 subtable" HexD
Substitution2: "'aalt' Access All Alternates lookup 0 subtable" HexD
EndChar

StartChar: A
Encoding: 65 65 14
Width: 110
GlyphClass: 1
Flags: W
LayerCount: 2
Fore
SplineSet
0 0 m 1
 0 10 l 1
 10 10 l 1
 10 40 l 1
 20 40 l 1
 20 70 l 1
 30 70 l 1
 30 100 l 1
 40 100 l 1
 40 120 l 1
 60 120 l 1
 60 100 l 1
 70 100 l 1
 70 70 l 1
 80 70 l 1
 80 40 l 1
 90 40 l 1
 90 10 l 1
 100 10 l 1
 100 0 l 1
 60 0 l 1
 60 10 l 1
 70 10 l 1
 70 40 l 1
 20 40 l 1
 20 10 l 1
 30 10 l 1
 30 0 l 1
 0 0 l 1
30 70 m 1
 30 50 l 1
 60 50 l 1
 60 70 l 1
 50 70 l 1
 50 100 l 1
 40 100 l 1
 40 70 l 1
 30 70 l 1
EndSplineSet
Substitution2: "'ss01' Style Set 1 lookup 6 subtable" HexA
Substitution2: "'aalt' Access All Alternates lookup 0 subtable" HexA
EndChar

StartChar: S
Encoding: 83 83 15
Width: 110
GlyphClass: 1
Flags: W
LayerCount: 2
Fore
SplineSet
20 70 m 5
 20 100 l 5
 30 100 l 5
 30 110 l 5
 40 110 l 5
 40 120 l 5
 90 120 l 5
 90 110 l 5
 100 110 l 5
 100 120 l 5
 110 120 l 5
 110 80 l 5
 100 80 l 5
 100 90 l 5
 90 90 l 5
 90 100 l 5
 80 100 l 5
 80 110 l 5
 50 110 l 5
 50 100 l 5
 40 100 l 5
 40 80 l 5
 50 80 l 5
 50 70 l 5
 80 70 l 5
 80 60 l 5
 100 60 l 5
 100 50 l 5
 110 50 l 5
 110 20 l 5
 100 20 l 5
 100 10 l 5
 90 10 l 5
 90 0 l 5
 40 0 l 5
 40 10 l 5
 30 10 l 5
 30 0 l 5
 20 0 l 5
 20 40 l 5
 30 40 l 5
 30 30 l 5
 40 30 l 5
 40 20 l 5
 50 20 l 5
 50 10 l 5
 80 10 l 5
 80 20 l 5
 90 20 l 5
 90 40 l 5
 80 40 l 5
 80 50 l 5
 50 50 l 5
 50 60 l 5
 30 60 l 5
 30 70 l 5
 20 70 l 5
EndSplineSet
EndChar

StartChar: a
Encoding: 97 97 16
Width: 110
GlyphClass: 1
Flags: W
LayerCount: 2
Fore
SplineSet
20 40 m 5
 30 40 l 5
 30 50 l 5
 40 50 l 5
 40 60 l 5
 80 60 l 5
 80 80 l 5
 40 80 l 5
 40 70 l 5
 30 70 l 5
 30 60 l 5
 20 60 l 5
 20 80 l 5
 30 80 l 5
 30 90 l 5
 90 90 l 5
 90 80 l 5
 100 80 l 5
 100 10 l 5
 110 10 l 5
 110 0 l 5
 90 0 l 5
 90 10 l 5
 80 10 l 5
 80 0 l 5
 30 0 l 5
 30 10 l 5
 20 10 l 5
 20 40 l 5
40 10 m 5
 70 10 l 5
 70 20 l 5
 80 20 l 5
 80 50 l 5
 50 50 l 5
 50 40 l 5
 40 40 l 5
 40 10 l 5
EndSplineSet
Substitution2: "Single Substitution lookup 1 subtable" cAlth-gk
EndChar

StartChar: b
Encoding: 98 98 17
Width: 110
GlyphClass: 1
Flags: W
LayerCount: 2
Fore
SplineSet
0 110 m 1
 0 120 l 1
 30 120 l 1
 30 80 l 1
 40 80 l 1
 40 90 l 1
 70 90 l 1
 70 80 l 1
 80 80 l 1
 80 70 l 1
 90 70 l 1
 90 20 l 1
 80 20 l 1
 80 10 l 1
 70 10 l 1
 70 0 l 1
 40 0 l 1
 40 10 l 1
 30 10 l 1
 30 0 l 1
 10 0 l 1
 10 110 l 1
 0 110 l 1
40 70 m 1
 30 70 l 1
 30 20 l 1
 40 20 l 1
 40 10 l 1
 60 10 l 1
 60 20 l 1
 70 20 l 1
 70 70 l 1
 60 70 l 1
 60 80 l 1
 40 80 l 1
 40 70 l 1
EndSplineSet
EndChar

StartChar: c
Encoding: 99 99 18
Width: 110
GlyphClass: 1
Flags: W
LayerCount: 2
Fore
SplineSet
30 20 m 5
 20 20 l 5
 20 70 l 5
 30 70 l 5
 30 80 l 5
 40 80 l 5
 40 90 l 5
 90 90 l 5
 90 80 l 5
 100 80 l 5
 100 60 l 5
 80 60 l 5
 80 70 l 5
 70 70 l 5
 70 80 l 5
 50 80 l 5
 50 70 l 5
 40 70 l 5
 40 20 l 5
 50 20 l 5
 50 10 l 5
 80 10 l 5
 80 0 l 5
 40 0 l 5
 40 10 l 5
 30 10 l 5
 30 20 l 5
90 10 m 5
 80 10 l 5
 80 20 l 5
 90 20 l 5
 90 30 l 5
 100 30 l 5
 100 20 l 5
 90 20 l 5
 90 10 l 5
EndSplineSet
Substitution2: "Single Substitution lookup 1 subtable" Calth-gk
EndChar

StartChar: U
Encoding: 85 85 19
Width: 110
GlyphClass: 1
Flags: W
LayerCount: 2
Fore
SplineSet
10 110 m 1
 0 110 l 1
 0 120 l 1
 40 120 l 1
 40 110 l 1
 30 110 l 1
 30 20 l 1
 40 20 l 1
 40 10 l 1
 70 10 l 1
 70 0 l 1
 30 0 l 1
 30 10 l 1
 20 10 l 1
 20 20 l 1
 10 20 l 1
 10 110 l 1
80 10 m 1
 70 10 l 1
 70 20 l 1
 80 20 l 1
 80 110 l 1
 70 110 l 1
 70 120 l 1
 100 120 l 1
 100 110 l 1
 90 110 l 1
 90 20 l 1
 80 20 l 1
 80 10 l 1
EndSplineSet
EndChar

StartChar: asciitilde
Encoding: 126 126 20
Width: 110
GlyphClass: 1
Flags: W
LayerCount: 2
Fore
SplineSet
0 50 m 1
 0 70 l 1
 10 70 l 1
 10 80 l 1
 50 80 l 1
 50 70 l 1
 60 70 l 1
 60 60 l 1
 80 60 l 1
 80 70 l 1
 90 70 l 1
 90 80 l 1
 100 80 l 1
 100 60 l 1
 90 60 l 1
 90 50 l 1
 50 50 l 1
 50 60 l 1
 40 60 l 1
 40 70 l 1
 20 70 l 1
 20 60 l 1
 10 60 l 1
 10 50 l 1
 0 50 l 1
EndSplineSet
EndChar

StartChar: asciicircum
Encoding: 94 94 21
Width: 110
GlyphClass: 1
Flags: W
LayerCount: 2
Fore
SplineSet
20 80 m 1
 20 90 l 1
 30 90 l 1
 30 100 l 1
 40 100 l 1
 40 110 l 1
 50 110 l 1
 50 120 l 1
 70 120 l 1
 70 110 l 1
 80 110 l 1
 80 100 l 1
 90 100 l 1
 90 90 l 1
 100 90 l 1
 100 80 l 1
 80 80 l 1
 80 90 l 1
 70 90 l 1
 70 100 l 1
 50 100 l 1
 50 90 l 1
 40 90 l 1
 40 80 l 1
 20 80 l 1
EndSplineSet
EndChar

StartChar: radical
Encoding: 8730 8730 22
Width: 110
GlyphClass: 1
Flags: W
LayerCount: 2
Fore
SplineSet
0 70 m 1
 0 80 l 1
 30 80 l 1
 30 50 l 1
 40 50 l 1
 40 30 l 1
 50 30 l 1
 50 80 l 1
 60 80 l 1
 60 120 l 1
 100 120 l 1
 100 110 l 1
 70 110 l 1
 70 70 l 1
 60 70 l 1
 60 20 l 1
 50 20 l 1
 50 0 l 1
 30 0 l 1
 30 20 l 1
 20 20 l 1
 20 50 l 1
 10 50 l 1
 10 70 l 1
 0 70 l 1
EndSplineSet
EndChar

StartChar: product
Encoding: 8719 8719 23
Width: 110
GlyphClass: 1
Flags: W
LayerCount: 2
Fore
SplineSet
0 0 m 1
 0 10 l 1
 10 10 l 1
 10 110 l 1
 0 110 l 1
 0 120 l 1
 100 120 l 1
 100 110 l 1
 90 110 l 1
 90 10 l 1
 100 10 l 1
 100 0 l 1
 60 0 l 1
 60 10 l 1
 70 10 l 1
 70 110 l 1
 30 110 l 1
 30 10 l 1
 40 10 l 1
 40 0 l 1
 0 0 l 1
EndSplineSet
EndChar

StartChar: summation
Encoding: 8721 8721 24
Width: 110
GlyphClass: 1
Flags: W
LayerCount: 2
Fore
SplineSet
0 -10 m 1
 0 10 l 1
 10 10 l 1
 10 20 l 1
 20 20 l 1
 20 30 l 1
 30 30 l 1
 30 40 l 1
 40 40 l 1
 40 50 l 1
 50 50 l 1
 50 70 l 1
 40 70 l 1
 40 80 l 1
 30 80 l 1
 30 90 l 1
 20 90 l 1
 20 100 l 1
 10 100 l 1
 10 110 l 1
 0 110 l 1
 0 120 l 1
 100 120 l 1
 100 90 l 1
 90 90 l 1
 90 100 l 1
 80 100 l 1
 80 110 l 1
 40 110 l 1
 40 100 l 1
 50 100 l 1
 50 90 l 1
 60 90 l 1
 60 80 l 1
 70 80 l 1
 70 70 l 1
 80 70 l 1
 80 60 l 1
 70 60 l 1
 70 50 l 1
 60 50 l 1
 60 40 l 1
 50 40 l 1
 50 30 l 1
 40 30 l 1
 40 20 l 1
 30 20 l 1
 30 10 l 1
 80 10 l 1
 80 20 l 1
 90 20 l 1
 90 30 l 1
 100 30 l 1
 100 -10 l 1
 0 -10 l 1
EndSplineSet
EndChar

StartChar: integral
Encoding: 8747 8747 25
Width: 110
GlyphClass: 1
Flags: W
LayerCount: 2
Fore
SplineSet
20 0 m 1
 20 10 l 1
 40 10 l 1
 40 0 l 1
 50 0 l 1
 50 60 l 1
 60 60 l 1
 60 110 l 1
 70 110 l 1
 70 120 l 1
 100 120 l 1
 100 110 l 1
 110 110 l 1
 110 100 l 1
 90 100 l 1
 90 110 l 1
 80 110 l 1
 80 60 l 1
 70 60 l 1
 70 0 l 1
 60 0 l 1
 60 -10 l 1
 30 -10 l 1
 30 0 l 1
 20 0 l 1
EndSplineSet
EndChar

StartChar: Fitalic
Encoding: 119865 119865 26
Width: 110
GlyphClass: 1
Flags: W
LayerCount: 2
Fore
SplineSet
0 10 m 1
 10 10 l 1
 10 40 l 1
 20 40 l 1
 20 80 l 1
 30 80 l 1
 30 110 l 1
 20 110 l 1
 20 120 l 1
 100 120 l 1
 100 90 l 1
 90 90 l 1
 90 100 l 1
 80 100 l 1
 80 110 l 1
 50 110 l 1
 50 70 l 1
 70 70 l 1
 70 90 l 1
 80 90 l 1
 80 60 l 1
 70 60 l 1
 70 40 l 1
 60 40 l 1
 60 60 l 1
 40 60 l 1
 40 40 l 1
 30 40 l 1
 30 10 l 1
 40 10 l 1
 40 0 l 1
 0 0 l 1
 0 10 l 1
EndSplineSet
EndChar

StartChar: alphaitalic
Encoding: 120572 120572 27
Width: 110
GlyphClass: 1
Flags: W
LayerCount: 2
Fore
SplineSet
0 10 m 1
 0 50 l 1
 10 50 l 1
 10 70 l 1
 20 70 l 1
 20 80 l 1
 30 80 l 1
 30 90 l 1
 60 90 l 1
 60 80 l 1
 70 80 l 1
 70 60 l 1
 80 60 l 1
 80 80 l 1
 90 80 l 1
 90 90 l 1
 100 90 l 1
 100 70 l 1
 90 70 l 1
 90 50 l 1
 80 50 l 1
 80 20 l 1
 90 20 l 1
 90 10 l 1
 100 10 l 1
 100 0 l 1
 80 0 l 1
 80 10 l 1
 70 10 l 1
 70 20 l 1
 60 20 l 1
 60 10 l 1
 50 10 l 1
 50 0 l 1
 10 0 l 1
 10 10 l 1
 0 10 l 1
20 60 m 1
 20 20 l 1
 30 20 l 1
 30 10 l 1
 40 10 l 1
 40 20 l 1
 50 20 l 1
 50 30 l 1
 60 30 l 1
 60 70 l 1
 50 70 l 1
 50 80 l 1
 40 80 l 1
 40 70 l 1
 30 70 l 1
 30 60 l 1
 20 60 l 1
EndSplineSet
EndChar

StartChar: gammaitalic
Encoding: 120574 120574 28
Width: 110
GlyphClass: 1
Flags: W
LayerCount: 2
Fore
SplineSet
20 70 m 1
 0 70 l 1
 0 90 l 1
 30 90 l 1
 30 80 l 1
 40 80 l 1
 40 70 l 1
 50 70 l 1
 50 80 l 1
 60 80 l 1
 60 90 l 1
 100 90 l 1
 100 80 l 1
 90 80 l 1
 90 70 l 1
 60 70 l 1
 60 60 l 1
 50 60 l 1
 50 50 l 1
 40 50 l 1
 40 40 l 1
 30 40 l 1
 30 20 l 1
 20 20 l 1
 20 -10 l 1
 0 -10 l 1
 0 20 l 1
 10 20 l 1
 10 40 l 1
 20 40 l 1
 20 70 l 1
EndSplineSet
EndChar

StartChar: epsilonitalic
Encoding: 120576 120576 29
Width: 110
GlyphClass: 1
Flags: W
LayerCount: 2
Fore
SplineSet
20 30 m 1
 30 30 l 1
 30 40 l 1
 40 40 l 1
 40 50 l 1
 30 50 l 1
 30 70 l 1
 40 70 l 1
 40 80 l 1
 50 80 l 1
 50 90 l 1
 100 90 l 1
 100 80 l 1
 110 80 l 1
 110 70 l 1
 90 70 l 1
 90 80 l 1
 60 80 l 1
 60 70 l 1
 50 70 l 1
 50 60 l 1
 60 60 l 1
 60 50 l 1
 90 50 l 1
 90 40 l 1
 50 40 l 1
 50 30 l 1
 40 30 l 1
 40 20 l 1
 50 20 l 1
 50 10 l 1
 80 10 l 1
 80 0 l 1
 30 0 l 1
 30 10 l 1
 20 10 l 1
 20 30 l 1
90 10 m 1
 80 10 l 1
 80 20 l 1
 90 20 l 1
 90 10 l 1
EndSplineSet
EndChar

StartChar: thetaitalic
Encoding: 120579 120579 30
Width: 110
GlyphClass: 1
Flags: W
LayerCount: 2
Fore
SplineSet
10 60 m 1
 10 80 l 1
 20 80 l 1
 20 100 l 1
 30 100 l 1
 30 110 l 1
 40 110 l 1
 40 120 l 1
 80 120 l 1
 80 110 l 1
 90 110 l 1
 90 100 l 1
 100 100 l 1
 100 70 l 1
 90 70 l 1
 90 40 l 1
 80 40 l 1
 80 20 l 1
 70 20 l 1
 70 10 l 1
 60 10 l 1
 60 0 l 1
 20 0 l 1
 20 10 l 1
 10 10 l 1
 10 20 l 1
 0 20 l 1
 0 60 l 1
 10 60 l 1
30 70 m 1
 70 70 l 1
 70 80 l 1
 80 80 l 1
 80 100 l 1
 70 100 l 1
 70 110 l 1
 50 110 l 1
 50 100 l 1
 40 100 l 1
 40 80 l 1
 30 80 l 1
 30 70 l 1
30 20 m 1
 30 10 l 1
 50 10 l 1
 50 20 l 1
 60 20 l 1
 60 40 l 1
 70 40 l 1
 70 60 l 1
 30 60 l 1
 30 50 l 1
 20 50 l 1
 20 20 l 1
 30 20 l 1
EndSplineSet
EndChar

StartChar: lamdaitalic
Encoding: 120582 120582 31
Width: 110
GlyphClass: 1
Flags: W
LayerCount: 2
Fore
SplineSet
10 10 m 1
 10 20 l 1
 20 20 l 1
 20 40 l 1
 30 40 l 1
 30 50 l 1
 40 50 l 1
 40 60 l 1
 50 60 l 1
 50 80 l 1
 60 80 l 1
 60 100 l 1
 40 100 l 1
 40 110 l 1
 50 110 l 1
 50 120 l 1
 70 120 l 1
 70 110 l 1
 80 110 l 1
 80 70 l 1
 70 70 l 1
 70 20 l 1
 100 20 l 1
 100 0 l 1
 60 0 l 1
 60 10 l 1
 50 10 l 1
 50 40 l 1
 40 40 l 1
 40 30 l 1
 30 30 l 1
 30 10 l 1
 20 10 l 1
 20 0 l 1
 0 0 l 1
 0 10 l 1
 10 10 l 1
EndSplineSet
EndChar

StartChar: muitalic
Encoding: 120583 120583 32
Width: 110
GlyphClass: 1
Flags: W
LayerCount: 2
Fore
SplineSet
0 0 m 1
 10 0 l 1
 10 30 l 1
 20 30 l 1
 20 60 l 1
 30 60 l 1
 30 80 l 1
 20 80 l 1
 20 90 l 1
 50 90 l 1
 50 60 l 1
 40 60 l 1
 40 30 l 1
 60 30 l 1
 60 40 l 1
 70 40 l 1
 70 60 l 1
 80 60 l 1
 80 80 l 1
 70 80 l 1
 70 90 l 1
 100 90 l 1
 100 60 l 1
 90 60 l 1
 90 30 l 1
 100 30 l 1
 100 20 l 1
 70 20 l 1
 70 30 l 1
 60 30 l 1
 60 20 l 1
 40 20 l 1
 40 30 l 1
 30 30 l 1
 30 0 l 1
 40 0 l 1
 40 -10 l 1
 0 -10 l 1
 0 0 l 1
EndSplineSet
EndChar

StartChar: sigmaitalic
Encoding: 120590 120590 33
Width: 110
GlyphClass: 1
Flags: W
LayerCount: 2
Fore
SplineSet
0 20 m 1
 0 50 l 1
 10 50 l 1
 10 70 l 1
 20 70 l 1
 20 80 l 1
 30 80 l 1
 30 90 l 1
 50 90 l 1
 50 100 l 1
 90 100 l 1
 90 110 l 1
 100 110 l 1
 100 100 l 1
 90 100 l 1
 90 90 l 1
 70 90 l 1
 70 80 l 1
 80 80 l 1
 80 70 l 1
 90 70 l 1
 90 40 l 1
 80 40 l 1
 80 20 l 1
 70 20 l 1
 70 10 l 1
 60 10 l 1
 60 0 l 1
 20 0 l 1
 20 10 l 1
 10 10 l 1
 10 20 l 1
 0 20 l 1
20 20 m 1
 30 20 l 1
 30 10 l 1
 50 10 l 1
 50 20 l 1
 60 20 l 1
 60 40 l 1
 70 40 l 1
 70 70 l 1
 60 70 l 1
 60 80 l 1
 40 80 l 1
 40 70 l 1
 30 70 l 1
 30 50 l 1
 20 50 l 1
 20 20 l 1
EndSplineSet
EndChar

StartChar: phisymbolitalic
Encoding: 120601 120601 34
Width: 110
GlyphClass: 1
Flags: W
LayerCount: 2
Fore
SplineSet
30 30 m 1
 20 30 l 1
 20 60 l 1
 30 60 l 1
 30 80 l 1
 50 80 l 1
 50 90 l 1
 60 90 l 1
 60 100 l 1
 70 100 l 1
 70 110 l 1
 60 110 l 1
 60 120 l 1
 100 120 l 1
 100 110 l 1
 90 110 l 1
 90 100 l 1
 80 100 l 1
 80 90 l 1
 90 90 l 1
 90 80 l 1
 100 80 l 1
 100 70 l 1
 110 70 l 1
 110 40 l 1
 100 40 l 1
 100 20 l 1
 80 20 l 1
 80 40 l 1
 90 40 l 1
 90 70 l 1
 80 70 l 1
 80 50 l 1
 70 50 l 1
 70 20 l 1
 80 20 l 1
 80 10 l 1
 60 10 l 1
 60 0 l 1
 70 0 l 1
 70 -10 l 1
 30 -10 l 1
 30 0 l 1
 40 0 l 1
 40 10 l 1
 30 10 l 1
 30 30 l 1
40 30 m 1
 50 30 l 1
 50 50 l 1
 60 50 l 1
 60 80 l 1
 50 80 l 1
 50 60 l 1
 40 60 l 1
 40 30 l 1
EndSplineSet
EndChar

StartChar: piitalic
Encoding: 120587 120587 35
Width: 110
GlyphClass: 1
Flags: W
LayerCount: 2
Fore
SplineSet
10 10 m 1
 10 30 l 1
 20 30 l 1
 20 60 l 1
 30 60 l 1
 30 80 l 1
 20 80 l 1
 20 70 l 1
 0 70 l 1
 0 80 l 1
 10 80 l 1
 10 90 l 1
 100 90 l 1
 100 80 l 1
 80 80 l 1
 80 50 l 1
 70 50 l 1
 70 20 l 1
 90 20 l 1
 90 0 l 1
 60 0 l 1
 60 10 l 1
 50 10 l 1
 50 50 l 1
 60 50 l 1
 60 80 l 1
 50 80 l 1
 50 60 l 1
 40 60 l 1
 40 30 l 1
 30 30 l 1
 30 10 l 1
 20 10 l 1
 20 0 l 1
 0 0 l 1
 0 10 l 1
 10 10 l 1
EndSplineSet
EndChar

StartChar: xbolditalic
Encoding: 119961 119961 36
Width: 110
GlyphClass: 1
Flags: W
LayerCount: 2
Fore
SplineSet
0 0 m 1
 0 20 l 1
 20 20 l 1
 20 30 l 1
 30 30 l 1
 30 40 l 1
 40 40 l 1
 40 60 l 1
 30 60 l 1
 30 80 l 1
 20 80 l 1
 20 70 l 1
 10 70 l 1
 10 60 l 1
 0 60 l 1
 0 80 l 1
 10 80 l 1
 10 90 l 1
 50 90 l 1
 50 80 l 1
 60 80 l 1
 60 70 l 1
 70 70 l 1
 70 80 l 1
 80 80 l 1
 80 90 l 1
 100 90 l 1
 100 70 l 1
 80 70 l 1
 80 60 l 1
 70 60 l 1
 70 50 l 1
 60 50 l 1
 60 30 l 1
 70 30 l 1
 70 10 l 1
 80 10 l 1
 80 20 l 1
 90 20 l 1
 90 30 l 1
 100 30 l 1
 100 10 l 1
 90 10 l 1
 90 0 l 1
 50 0 l 1
 50 10 l 1
 40 10 l 1
 40 20 l 1
 30 20 l 1
 30 10 l 1
 20 10 l 1
 20 0 l 1
 0 0 l 1
EndSplineSet
EndChar

StartChar: ybolditalic
Encoding: 119962 119962 37
Width: 110
GlyphClass: 1
Flags: W
LayerCount: 2
Fore
SplineSet
0 0 m 1
 0 20 l 1
 20 20 l 1
 20 0 l 1
 30 0 l 1
 30 10 l 1
 40 10 l 1
 40 20 l 1
 50 20 l 1
 50 30 l 1
 40 30 l 1
 40 40 l 1
 30 40 l 1
 30 80 l 1
 20 80 l 1
 20 70 l 1
 10 70 l 1
 10 80 l 1
 20 80 l 1
 20 90 l 1
 40 90 l 1
 40 80 l 1
 50 80 l 1
 50 40 l 1
 60 40 l 1
 60 50 l 1
 70 50 l 1
 70 70 l 1
 80 70 l 1
 80 90 l 1
 100 90 l 1
 100 70 l 1
 90 70 l 1
 90 50 l 1
 80 50 l 1
 80 30 l 1
 70 30 l 1
 70 20 l 1
 60 20 l 1
 60 10 l 1
 50 10 l 1
 50 0 l 1
 40 0 l 1
 40 -10 l 1
 10 -10 l 1
 10 0 l 1
 0 0 l 1
EndSplineSet
EndChar

StartChar: zbolditalic
Encoding: 119963 119963 38
Width: 110
GlyphClass: 1
Flags: W
LayerCount: 2
Fore
SplineSet
0 0 m 1
 0 10 l 1
 10 10 l 1
 10 20 l 1
 20 20 l 1
 20 30 l 1
 30 30 l 1
 30 40 l 1
 40 40 l 1
 40 60 l 1
 50 60 l 1
 50 70 l 1
 60 70 l 1
 60 80 l 1
 30 80 l 1
 30 70 l 1
 10 70 l 1
 10 80 l 1
 20 80 l 1
 20 90 l 1
 100 90 l 1
 100 80 l 1
 90 80 l 1
 90 70 l 1
 80 70 l 1
 80 60 l 1
 70 60 l 1
 70 40 l 1
 60 40 l 1
 60 30 l 1
 50 30 l 1
 50 20 l 1
 40 20 l 1
 40 10 l 1
 70 10 l 1
 70 20 l 1
 90 20 l 1
 90 10 l 1
 80 10 l 1
 80 0 l 1
 0 0 l 1
EndSplineSet
EndChar

StartChar: ibolditalic
Encoding: 119946 119946 39
Width: 110
GlyphClass: 1
Flags: W
LayerCount: 2
Fore
SplineSet
70 120 m 1
 100 120 l 1
 100 100 l 1
 70 100 l 1
 70 120 l 1
40 10 m 1
 40 30 l 1
 50 30 l 1
 50 60 l 1
 60 60 l 1
 60 80 l 1
 50 80 l 1
 50 90 l 1
 90 90 l 1
 90 60 l 1
 80 60 l 1
 80 30 l 1
 70 30 l 1
 70 10 l 1
 80 10 l 1
 80 20 l 1
 90 20 l 1
 90 30 l 1
 100 30 l 1
 100 10 l 1
 90 10 l 1
 90 0 l 1
 50 0 l 1
 50 10 l 1
 40 10 l 1
EndSplineSet
EndChar

StartChar: ebolditalic
Encoding: 119942 119942 40
Width: 110
GlyphClass: 1
Flags: W
LayerCount: 2
Fore
SplineSet
0 50 m 1
 10 50 l 1
 10 70 l 1
 20 70 l 1
 20 80 l 1
 40 80 l 1
 40 90 l 1
 90 90 l 1
 90 80 l 1
 100 80 l 1
 100 60 l 1
 90 60 l 1
 90 50 l 1
 70 50 l 1
 70 40 l 1
 50 40 l 1
 50 30 l 1
 30 30 l 1
 30 20 l 1
 40 20 l 1
 40 10 l 1
 70 10 l 1
 70 20 l 1
 80 20 l 1
 80 30 l 1
 100 30 l 1
 100 20 l 1
 90 20 l 1
 90 10 l 1
 80 10 l 1
 80 0 l 1
 20 0 l 1
 20 10 l 1
 10 10 l 1
 10 20 l 1
 0 20 l 1
 0 50 l 1
40 40 m 1
 40 50 l 1
 60 50 l 1
 60 60 l 1
 70 60 l 1
 70 70 l 1
 50 70 l 1
 50 60 l 1
 40 60 l 1
 40 50 l 1
 30 50 l 1
 30 40 l 1
 40 40 l 1
EndSplineSet
EndChar

StartChar: o
Encoding: 111 111 41
Width: 110
GlyphClass: 1
Flags: W
LayerCount: 2
Fore
SplineSet
20 70 m 5
 30 70 l 5
 30 80 l 5
 40 80 l 5
 40 90 l 5
 80 90 l 5
 80 80 l 5
 90 80 l 5
 90 70 l 5
 100 70 l 5
 100 20 l 5
 90 20 l 5
 90 10 l 5
 80 10 l 5
 80 0 l 5
 40 0 l 5
 40 10 l 5
 30 10 l 5
 30 20 l 5
 20 20 l 5
 20 70 l 5
40 70 m 5
 40 20 l 5
 50 20 l 5
 50 10 l 5
 70 10 l 5
 70 20 l 5
 80 20 l 5
 80 70 l 5
 70 70 l 5
 70 80 l 5
 50 80 l 5
 50 70 l 5
 40 70 l 5
EndSplineSet
EndChar

StartChar: z
Encoding: 122 122 42
Width: 110
GlyphClass: 1
Flags: W
LayerCount: 2
Fore
SplineSet
20 0 m 1
 20 10 l 1
 30 10 l 1
 30 30 l 1
 40 30 l 1
 40 40 l 1
 50 40 l 1
 50 60 l 1
 60 60 l 1
 60 70 l 1
 70 70 l 1
 70 80 l 1
 40 80 l 1
 40 70 l 1
 30 70 l 1
 30 60 l 1
 20 60 l 1
 20 90 l 1
 100 90 l 1
 100 80 l 1
 90 80 l 1
 90 60 l 1
 80 60 l 1
 80 50 l 1
 70 50 l 1
 70 30 l 1
 60 30 l 1
 60 20 l 1
 50 20 l 1
 50 10 l 1
 80 10 l 1
 80 20 l 1
 90 20 l 1
 90 30 l 1
 100 30 l 1
 100 0 l 1
 20 0 l 1
EndSplineSet
EndChar

StartChar: R
Encoding: 82 82 43
Width: 110
GlyphClass: 1
Flags: W
LayerCount: 2
Fore
SplineSet
10 110 m 1
 0 110 l 1
 0 120 l 1
 70 120 l 1
 70 110 l 1
 80 110 l 1
 80 100 l 1
 90 100 l 1
 90 70 l 1
 80 70 l 1
 80 60 l 1
 70 60 l 1
 70 40 l 1
 80 40 l 1
 80 10 l 1
 90 10 l 1
 90 0 l 1
 70 0 l 1
 70 10 l 1
 60 10 l 1
 60 40 l 1
 50 40 l 1
 50 50 l 1
 30 50 l 1
 30 10 l 1
 40 10 l 1
 40 0 l 1
 0 0 l 1
 0 10 l 1
 10 10 l 1
 10 110 l 1
30 60 m 1
 60 60 l 1
 60 70 l 1
 70 70 l 1
 70 100 l 1
 60 100 l 1
 60 110 l 1
 30 110 l 1
 30 60 l 1
90 10 m 1
 90 20 l 1
 100 20 l 1
 100 10 l 1
 90 10 l 1
EndSplineSet
EndChar

StartChar: T
Encoding: 84 84 44
Width: 110
GlyphClass: 1
Flags: W
LayerCount: 2
Fore
SplineSet
10 90 m 1
 0 90 l 1
 0 120 l 1
 100 120 l 1
 100 90 l 1
 90 90 l 1
 90 100 l 1
 80 100 l 1
 80 110 l 1
 60 110 l 1
 60 10 l 1
 70 10 l 1
 70 0 l 1
 30 0 l 1
 30 10 l 1
 40 10 l 1
 40 110 l 1
 20 110 l 1
 20 100 l 1
 10 100 l 1
 10 90 l 1
EndSplineSet
EndChar

StartChar: I
Encoding: 73 73 45
Width: 110
GlyphClass: 1
Flags: W
LayerCount: 2
Fore
SplineSet
60 110 m 1
 60 120 l 1
 100 120 l 1
 100 110 l 1
 90 110 l 1
 90 10 l 1
 100 10 l 1
 100 0 l 1
 60 0 l 1
 60 10 l 1
 70 10 l 1
 70 110 l 1
 60 110 l 1
EndSplineSet
EndChar

StartChar: l
Encoding: 108 108 46
Width: 110
GlyphClass: 1
Flags: W
LayerCount: 2
Fore
SplineSet
80 120 m 1
 80 10 l 1
 100 10 l 1
 100 0 l 1
 40 0 l 1
 40 10 l 1
 60 10 l 1
 60 110 l 1
 50 110 l 1
 50 120 l 1
 80 120 l 1
EndSplineSet
EndChar

StartChar: i
Encoding: 105 105 47
Width: 110
GlyphClass: 1
Flags: W
LayerCount: 2
Fore
SplineSet
80 100 m 1
 60 100 l 1
 60 120 l 1
 80 120 l 1
 80 100 l 1
40 10 m 1
 60 10 l 1
 60 80 l 1
 40 80 l 1
 40 90 l 1
 80 90 l 1
 80 10 l 1
 100 10 l 1
 100 0 l 1
 40 0 l 1
 40 10 l 1
EndSplineSet
EndChar

StartChar: m
Encoding: 109 109 48
Width: 110
GlyphClass: 1
Flags: W
LayerCount: 2
Fore
SplineSet
0 10 m 1
 10 10 l 1
 10 80 l 1
 0 80 l 1
 0 90 l 1
 20 90 l 1
 20 80 l 1
 30 80 l 1
 30 90 l 1
 50 90 l 1
 50 80 l 1
 60 80 l 1
 60 90 l 1
 80 90 l 1
 80 80 l 1
 90 80 l 1
 90 10 l 1
 100 10 l 1
 100 0 l 1
 70 0 l 1
 70 80 l 1
 60 80 l 1
 60 0 l 1
 40 0 l 1
 40 80 l 1
 30 80 l 1
 30 0 l 1
 0 0 l 1
 0 10 l 1
EndSplineSet
EndChar

StartChar: n
Encoding: 110 110 49
Width: 110
GlyphClass: 1
Flags: W
LayerCount: 2
Fore
SplineSet
10 80 m 1
 0 80 l 1
 0 90 l 1
 30 90 l 1
 30 80 l 1
 40 80 l 1
 40 90 l 1
 70 90 l 1
 70 80 l 1
 80 80 l 1
 80 70 l 1
 90 70 l 1
 90 10 l 1
 100 10 l 1
 100 0 l 1
 60 0 l 1
 60 10 l 1
 70 10 l 1
 70 70 l 1
 60 70 l 1
 60 80 l 1
 40 80 l 1
 40 70 l 1
 30 70 l 1
 30 10 l 1
 40 10 l 1
 40 0 l 1
 0 0 l 1
 0 10 l 1
 10 10 l 1
 10 80 l 1
EndSplineSet
EndChar

StartChar: percent
Encoding: 37 37 50
Width: 110
GlyphClass: 1
Flags: W
LayerCount: 2
Fore
SplineSet
0 80 m 5
 0 110 l 5
 10 110 l 5
 10 120 l 5
 40 120 l 5
 40 110 l 5
 50 110 l 5
 50 80 l 5
 60 80 l 5
 60 100 l 5
 70 100 l 5
 70 120 l 5
 90 120 l 5
 90 100 l 5
 80 100 l 5
 80 80 l 5
 70 80 l 5
 70 70 l 5
 60 70 l 5
 60 50 l 5
 90 50 l 5
 90 40 l 5
 100 40 l 5
 100 10 l 5
 90 10 l 5
 90 0 l 5
 60 0 l 5
 60 10 l 5
 50 10 l 5
 50 40 l 5
 40 40 l 5
 40 20 l 5
 30 20 l 5
 30 0 l 5
 10 0 l 5
 10 20 l 5
 20 20 l 5
 20 40 l 5
 30 40 l 5
 30 50 l 5
 40 50 l 5
 40 70 l 5
 10 70 l 5
 10 80 l 5
 0 80 l 5
30 110 m 5
 20 110 l 5
 20 80 l 5
 30 80 l 5
 30 110 l 5
40 70 m 5
 50 70 l 5
 50 80 l 5
 40 80 l 5
 40 70 l 5
60 40 m 5
 60 50 l 5
 50 50 l 5
 50 40 l 5
 60 40 l 5
80 10 m 5
 80 40 l 5
 70 40 l 5
 70 10 l 5
 80 10 l 5
EndSplineSet
EndChar

StartChar: q
Encoding: 113 113 51
Width: 110
GlyphClass: 1
Flags: W
LayerCount: 2
Fore
SplineSet
30 30 m 1
 20 30 l 1
 20 70 l 1
 30 70 l 1
 30 80 l 1
 40 80 l 1
 40 90 l 1
 80 90 l 1
 80 80 l 1
 90 80 l 1
 90 90 l 1
 100 90 l 1
 100 0 l 1
 110 0 l 1
 110 -10 l 1
 70 -10 l 1
 70 0 l 1
 80 0 l 1
 80 20 l 1
 70 20 l 1
 70 10 l 1
 40 10 l 1
 40 20 l 1
 30 20 l 1
 30 30 l 1
50 30 m 1
 50 20 l 1
 70 20 l 1
 70 30 l 1
 80 30 l 1
 80 70 l 1
 70 70 l 1
 70 80 l 1
 50 80 l 1
 50 70 l 1
 40 70 l 1
 40 30 l 1
 50 30 l 1
EndSplineSet
EndChar

StartChar: u
Encoding: 117 117 52
Width: 110
GlyphClass: 1
Flags: W
LayerCount: 2
Fore
SplineSet
10 80 m 5
 0 80 l 5
 0 90 l 5
 30 90 l 5
 30 20 l 5
 40 20 l 5
 40 10 l 5
 60 10 l 5
 60 20 l 5
 70 20 l 5
 70 80 l 5
 60 80 l 5
 60 90 l 5
 90 90 l 5
 90 10 l 5
 100 10 l 5
 100 0 l 5
 70 0 l 5
 70 10 l 5
 60 10 l 5
 60 0 l 5
 30 0 l 5
 30 10 l 5
 20 10 l 5
 20 20 l 5
 10 20 l 5
 10 80 l 5
EndSplineSet
EndChar

StartChar: t
Encoding: 116 116 53
Width: 110
GlyphClass: 1
Flags: W
LayerCount: 2
Fore
SplineSet
20 90 m 1
 40 90 l 1
 40 110 l 1
 60 110 l 1
 60 90 l 1
 90 90 l 1
 90 80 l 1
 60 80 l 1
 60 10 l 1
 70 10 l 1
 70 20 l 1
 80 20 l 1
 80 30 l 1
 90 30 l 1
 90 10 l 1
 80 10 l 1
 80 0 l 1
 50 0 l 1
 50 10 l 1
 40 10 l 1
 40 80 l 1
 20 80 l 1
 20 90 l 1
EndSplineSet
EndChar

StartChar: parenleft
Encoding: 40 40 54
Width: 110
GlyphClass: 1
Flags: W
LayerCount: 2
Fore
SplineSet
110 120 m 1
 110 110 l 1
 100 110 l 1
 100 100 l 1
 90 100 l 1
 90 80 l 1
 80 80 l 1
 80 40 l 1
 90 40 l 1
 90 20 l 1
 100 20 l 1
 100 10 l 1
 110 10 l 1
 110 0 l 1
 90 0 l 1
 90 10 l 1
 80 10 l 1
 80 20 l 1
 70 20 l 1
 70 40 l 1
 60 40 l 1
 60 80 l 1
 70 80 l 1
 70 100 l 1
 80 100 l 1
 80 110 l 1
 90 110 l 1
 90 120 l 1
 110 120 l 1
EndSplineSet
EndChar

StartChar: parenright
Encoding: 41 41 55
Width: 110
GlyphClass: 1
Flags: W
LayerCount: 2
Fore
SplineSet
60 120 m 1
 80 120 l 1
 80 110 l 1
 90 110 l 1
 90 100 l 1
 100 100 l 1
 100 80 l 1
 110 80 l 1
 110 40 l 1
 100 40 l 1
 100 20 l 1
 90 20 l 1
 90 10 l 1
 80 10 l 1
 80 0 l 1
 60 0 l 1
 60 10 l 1
 70 10 l 1
 70 20 l 1
 80 20 l 1
 80 40 l 1
 90 40 l 1
 90 80 l 1
 80 80 l 1
 80 100 l 1
 70 100 l 1
 70 110 l 1
 60 110 l 1
 60 120 l 1
EndSplineSet
EndChar

StartChar: p
Encoding: 112 112 56
Width: 110
GlyphClass: 1
Flags: W
LayerCount: 2
Fore
SplineSet
20 90 m 1
 50 90 l 1
 50 80 l 1
 60 80 l 1
 60 90 l 1
 90 90 l 1
 90 80 l 1
 100 80 l 1
 100 70 l 1
 110 70 l 1
 110 30 l 1
 100 30 l 1
 100 20 l 1
 90 20 l 1
 90 10 l 1
 60 10 l 1
 60 20 l 1
 50 20 l 1
 50 0 l 5
 60 0 l 5
 60 -10 l 5
 20 -10 l 5
 20 0 l 5
 30 0 l 5
 30 80 l 1
 20 80 l 1
 20 90 l 1
60 70 m 1
 50 70 l 1
 50 30 l 1
 60 30 l 1
 60 20 l 1
 80 20 l 1
 80 30 l 1
 90 30 l 1
 90 70 l 1
 80 70 l 1
 80 80 l 1
 60 80 l 1
 60 70 l 1
EndSplineSet
EndChar

StartChar: e
Encoding: 101 101 57
Width: 110
GlyphClass: 1
Flags: W
LayerCount: 2
Fore
SplineSet
30 20 m 1
 20 20 l 1
 20 70 l 1
 30 70 l 1
 30 80 l 1
 40 80 l 1
 40 90 l 1
 80 90 l 1
 80 80 l 1
 90 80 l 1
 90 70 l 1
 100 70 l 1
 100 40 l 1
 40 40 l 1
 40 20 l 1
 50 20 l 1
 50 10 l 1
 80 10 l 1
 80 0 l 1
 40 0 l 1
 40 10 l 1
 30 10 l 1
 30 20 l 1
40 70 m 1
 40 50 l 1
 80 50 l 1
 80 70 l 1
 70 70 l 1
 70 80 l 1
 50 80 l 1
 50 70 l 1
 40 70 l 1
90 10 m 1
 80 10 l 1
 80 20 l 1
 90 20 l 1
 90 30 l 1
 100 30 l 1
 100 20 l 1
 90 20 l 1
 90 10 l 1
EndSplineSet
EndChar

StartChar: g
Encoding: 103 103 58
Width: 110
GlyphClass: 1
Flags: W
LayerCount: 2
Fore
SplineSet
10 0 m 1
 0 0 l 1
 0 20 l 1
 10 20 l 1
 10 40 l 1
 20 40 l 1
 20 50 l 1
 10 50 l 1
 10 80 l 1
 20 80 l 1
 20 90 l 1
 70 90 l 1
 70 80 l 1
 80 80 l 1
 80 90 l 1
 100 90 l 1
 100 70 l 1
 80 70 l 1
 80 50 l 1
 70 50 l 1
 70 40 l 1
 30 40 l 1
 30 30 l 1
 80 30 l 1
 80 20 l 1
 90 20 l 1
 90 0 l 1
 80 0 l 1
 80 -10 l 1
 10 -10 l 1
 10 0 l 1
30 80 m 1
 30 50 l 1
 60 50 l 1
 60 80 l 1
 30 80 l 1
20 0 m 1
 70 0 l 1
 70 20 l 1
 20 20 l 1
 20 0 l 1
EndSplineSet
EndChar

StartChar: plus
Encoding: 43 43 59
Width: 110
GlyphClass: 1
Flags: W
LayerCount: 2
Fore
SplineSet
40 110 m 1
 60 110 l 1
 60 70 l 1
 100 70 l 1
 100 50 l 1
 60 50 l 1
 60 10 l 1
 40 10 l 1
 40 50 l 1
 0 50 l 1
 0 70 l 1
 40 70 l 1
 40 110 l 1
EndSplineSet
EndChar

StartChar: r
Encoding: 114 114 60
Width: 110
GlyphClass: 1
Flags: W
LayerCount: 2
Fore
SplineSet
80 0 m 1
 40 0 l 1
 40 10 l 1
 50 10 l 1
 50 80 l 1
 40 80 l 1
 40 90 l 1
 70 90 l 1
 70 80 l 1
 80 80 l 1
 80 90 l 1
 100 90 l 1
 100 80 l 1
 110 80 l 1
 110 60 l 1
 90 60 l 1
 90 80 l 1
 80 80 l 1
 80 70 l 1
 70 70 l 1
 70 10 l 1
 80 10 l 1
 80 0 l 1
EndSplineSet
EndChar

StartChar: k
Encoding: 107 107 61
Width: 110
GlyphClass: 1
Flags: W
LayerCount: 2
Fore
SplineSet
0 10 m 1
 10 10 l 1
 10 110 l 1
 0 110 l 1
 0 120 l 1
 30 120 l 1
 30 50 l 1
 40 50 l 1
 40 60 l 1
 50 60 l 1
 50 70 l 1
 60 70 l 1
 60 80 l 1
 50 80 l 1
 50 90 l 1
 90 90 l 1
 90 80 l 1
 70 80 l 1
 70 70 l 1
 60 70 l 1
 60 60 l 1
 50 60 l 1
 50 50 l 1
 60 50 l 1
 60 40 l 1
 70 40 l 1
 70 20 l 1
 80 20 l 1
 80 10 l 1
 90 10 l 1
 90 0 l 1
 50 0 l 1
 50 10 l 1
 60 10 l 1
 60 20 l 1
 50 20 l 1
 50 40 l 1
 30 40 l 1
 30 10 l 1
 40 10 l 1
 40 0 l 1
 0 0 l 1
 0 10 l 1
EndSplineSet
Substitution2: "Single Substitution lookup 3 subtable" Kgk
EndChar

StartChar: numbersign
Encoding: 35 35 62
Width: 110
GlyphClass: 1
Flags: W
LayerCount: 2
Fore
SplineSet
40 40 m 1
 40 80 l 1
 30 80 l 1
 30 90 l 1
 50 90 l 1
 50 120 l 1
 70 120 l 1
 70 90 l 1
 90 90 l 1
 90 120 l 1
 110 120 l 1
 110 90 l 1
 120 90 l 1
 120 80 l 1
 100 80 l 1
 100 40 l 1
 110 40 l 1
 110 30 l 1
 90 30 l 1
 90 0 l 1
 70 0 l 1
 70 30 l 1
 50 30 l 1
 50 0 l 1
 30 0 l 1
 30 30 l 1
 20 30 l 1
 20 40 l 1
 40 40 l 1
60 40 m 1
 80 40 l 1
 80 80 l 1
 60 80 l 1
 60 40 l 1
EndSplineSet
EndChar

StartChar: C
Encoding: 67 67 63
Width: 110
GlyphClass: 1
Flags: W
LayerCount: 2
Fore
SplineSet
10 40 m 1
 0 40 l 1
 0 80 l 1
 10 80 l 1
 10 100 l 1
 20 100 l 1
 20 110 l 1
 30 110 l 1
 30 120 l 1
 80 120 l 1
 80 110 l 1
 90 110 l 1
 90 120 l 1
 100 120 l 1
 100 80 l 1
 90 80 l 1
 90 90 l 1
 80 90 l 1
 80 100 l 1
 70 100 l 1
 70 110 l 1
 40 110 l 1
 40 100 l 1
 30 100 l 1
 30 80 l 1
 20 80 l 1
 20 40 l 1
 30 40 l 1
 30 20 l 1
 40 20 l 1
 40 10 l 1
 80 10 l 1
 80 0 l 1
 30 0 l 1
 30 10 l 1
 20 10 l 1
 20 20 l 1
 10 20 l 1
 10 40 l 1
90 10 m 1
 80 10 l 1
 80 20 l 1
 90 20 l 1
 90 40 l 1
 100 40 l 1
 100 20 l 1
 90 20 l 1
 90 10 l 1
EndSplineSet
Substitution2: "'ss01' Style Set 1 lookup 6 subtable" HexC-nCr
Substitution2: "'aalt' Access All Alternates lookup 0 subtable" HexC-nCr
EndChar

StartChar: x
Encoding: 120 120 64
Width: 110
GlyphClass: 1
Flags: W
LayerCount: 2
Fore
SplineSet
90 60 m 1
 80 60 l 1
 80 70 l 1
 90 70 l 1
 90 80 l 1
 80 80 l 1
 80 90 l 1
 110 90 l 1
 110 80 l 1
 100 80 l 1
 100 70 l 1
 90 70 l 1
 90 60 l 1
20 10 m 1
 30 10 l 1
 30 20 l 1
 40 20 l 1
 40 30 l 1
 50 30 l 1
 50 50 l 1
 40 50 l 1
 40 70 l 1
 30 70 l 1
 30 80 l 1
 20 80 l 1
 20 90 l 1
 60 90 l 1
 60 80 l 1
 50 80 l 1
 50 70 l 1
 60 70 l 1
 60 60 l 1
 80 60 l 1
 80 40 l 1
 90 40 l 1
 90 20 l 1
 100 20 l 1
 100 10 l 1
 110 10 l 1
 110 0 l 1
 70 0 l 1
 70 10 l 1
 80 10 l 1
 80 20 l 1
 70 20 l 1
 70 30 l 1
 50 30 l 1
 50 20 l 1
 40 20 l 1
 40 10 l 1
 50 10 l 1
 50 0 l 1
 20 0 l 1
 20 10 l 1
EndSplineSet
EndChar

StartChar: N
Encoding: 78 78 65
Width: 110
GlyphClass: 1
Flags: W
LayerCount: 2
Fore
SplineSet
10 110 m 1
 0 110 l 1
 0 120 l 1
 20 120 l 1
 20 110 l 1
 30 110 l 1
 30 100 l 1
 40 100 l 1
 40 80 l 1
 50 80 l 1
 50 70 l 1
 60 70 l 1
 60 50 l 1
 70 50 l 1
 70 40 l 1
 80 40 l 1
 80 110 l 1
 70 110 l 1
 70 120 l 1
 100 120 l 1
 100 110 l 1
 90 110 l 1
 90 0 l 1
 80 0 l 1
 80 10 l 1
 70 10 l 1
 70 20 l 1
 60 20 l 1
 60 40 l 1
 50 40 l 1
 50 50 l 1
 40 50 l 1
 40 70 l 1
 30 70 l 1
 30 80 l 1
 20 80 l 1
 20 10 l 1
 30 10 l 1
 30 0 l 1
 0 0 l 1
 0 10 l 1
 10 10 l 1
 10 110 l 1
EndSplineSet
EndChar

StartChar: hyphen
Encoding: 45 45 66
Width: 110
GlyphClass: 1
Flags: W
LayerCount: 2
Fore
SplineSet
0 70 m 5
 100 70 l 5
 100 50 l 5
 0 50 l 5
 0 70 l 5
EndSplineSet
EndChar

StartChar: s
Encoding: 115 115 67
Width: 110
GlyphClass: 1
Flags: W
LayerCount: 2
Fore
SplineSet
20 80 m 1
 30 80 l 1
 30 90 l 1
 80 90 l 1
 80 80 l 1
 90 80 l 1
 90 90 l 1
 100 90 l 1
 100 60 l 1
 90 60 l 1
 90 70 l 1
 80 70 l 1
 80 80 l 1
 40 80 l 1
 40 60 l 1
 60 60 l 1
 60 50 l 1
 90 50 l 1
 90 40 l 1
 100 40 l 1
 100 10 l 1
 90 10 l 1
 90 0 l 1
 40 0 l 1
 40 10 l 1
 30 10 l 1
 30 0 l 1
 20 0 l 1
 20 30 l 1
 30 30 l 1
 30 20 l 1
 40 20 l 1
 40 10 l 1
 80 10 l 1
 80 30 l 1
 60 30 l 1
 60 40 l 1
 30 40 l 1
 30 50 l 1
 20 50 l 1
 20 80 l 1
EndSplineSet
EndChar

StartChar: five
Encoding: 53 53 68
Width: 110
GlyphClass: 1
Flags: W
LayerCount: 2
Fore
SplineSet
20 10 m 1
 20 30 l 1
 40 30 l 1
 40 20 l 1
 50 20 l 1
 50 10 l 1
 80 10 l 1
 80 20 l 1
 90 20 l 1
 90 60 l 1
 80 60 l 1
 80 70 l 1
 40 70 l 1
 40 60 l 1
 30 60 l 1
 30 50 l 1
 20 50 l 1
 20 70 l 1
 30 70 l 1
 30 120 l 1
 110 120 l 1
 110 110 l 1
 100 110 l 1
 100 100 l 1
 40 100 l 1
 40 80 l 1
 90 80 l 1
 90 70 l 1
 100 70 l 1
 100 60 l 1
 110 60 l 1
 110 20 l 1
 100 20 l 1
 100 10 l 1
 90 10 l 1
 90 0 l 1
 30 0 l 1
 30 10 l 1
 20 10 l 1
EndSplineSet
EndChar

StartChar: V
Encoding: 86 86 69
Width: 110
GlyphClass: 1
Flags: W
LayerCount: 2
Fore
SplineSet
30 110 m 1
 20 110 l 1
 20 120 l 1
 60 120 l 1
 60 110 l 1
 50 110 l 1
 50 80 l 1
 60 80 l 1
 60 50 l 1
 80 50 l 1
 80 20 l 1
 70 20 l 1
 70 0 l 1
 60 0 l 1
 60 20 l 1
 50 20 l 1
 50 50 l 1
 40 50 l 1
 40 80 l 1
 30 80 l 1
 30 110 l 1
90 50 m 1
 80 50 l 1
 80 80 l 1
 90 80 l 1
 90 110 l 1
 80 110 l 1
 80 120 l 1
 110 120 l 1
 110 110 l 1
 100 110 l 1
 100 80 l 1
 90 80 l 1
 90 50 l 1
EndSplineSet
EndChar

StartChar: nine
Encoding: 57 57 70
Width: 110
GlyphClass: 1
Flags: W
LayerCount: 2
Fore
SplineSet
30 10 m 5
 20 10 l 5
 20 30 l 5
 40 30 l 5
 40 20 l 5
 50 20 l 5
 50 10 l 5
 80 10 l 1
 80 20 l 1
 90 20 l 1
 90 50 l 1
 80 50 l 1
 80 40 l 1
 40 40 l 1
 40 50 l 1
 30 50 l 1
 30 60 l 1
 20 60 l 1
 20 100 l 1
 30 100 l 1
 30 110 l 1
 40 110 l 1
 40 120 l 1
 90 120 l 1
 90 110 l 1
 100 110 l 1
 100 100 l 1
 110 100 l 1
 110 20 l 1
 100 20 l 1
 100 10 l 1
 90 10 l 1
 90 0 l 1
 30 0 l 5
 30 10 l 5
40 60 m 1
 50 60 l 1
 50 50 l 1
 80 50 l 1
 80 60 l 1
 90 60 l 1
 90 100 l 1
 80 100 l 1
 80 110 l 1
 50 110 l 1
 50 100 l 1
 40 100 l 1
 40 60 l 1
EndSplineSet
EndChar

StartChar: six
Encoding: 54 54 71
Width: 110
GlyphClass: 1
Flags: W
LayerCount: 2
Fore
SplineSet
20 20 m 1
 20 100 l 1
 30 100 l 1
 30 110 l 1
 40 110 l 1
 40 120 l 1
 100 120 l 5
 100 110 l 5
 110 110 l 5
 110 90 l 5
 90 90 l 5
 90 100 l 5
 80 100 l 5
 80 110 l 5
 50 110 l 1
 50 100 l 1
 40 100 l 1
 40 70 l 1
 50 70 l 1
 50 80 l 1
 90 80 l 1
 90 70 l 1
 100 70 l 1
 100 60 l 1
 110 60 l 1
 110 20 l 1
 100 20 l 1
 100 10 l 1
 90 10 l 1
 90 0 l 1
 40 0 l 1
 40 10 l 1
 30 10 l 1
 30 20 l 1
 20 20 l 1
40 20 m 1
 50 20 l 1
 50 10 l 1
 80 10 l 1
 80 20 l 1
 90 20 l 1
 90 60 l 1
 80 60 l 1
 80 70 l 1
 50 70 l 1
 50 60 l 1
 40 60 l 1
 40 20 l 1
EndSplineSet
EndChar

StartChar: seven
Encoding: 55 55 72
Width: 110
GlyphClass: 1
Flags: W
LayerCount: 2
Fore
SplineSet
20 120 m 1
 110 120 l 1
 110 90 l 1
 100 90 l 1
 100 80 l 1
 90 80 l 1
 90 60 l 1
 80 60 l 1
 80 40 l 1
 70 40 l 1
 70 0 l 1
 50 0 l 1
 50 40 l 1
 60 40 l 1
 60 60 l 1
 70 60 l 1
 70 80 l 1
 80 80 l 1
 80 90 l 1
 100 90 l 1
 100 100 l 1
 30 100 l 1
 30 80 l 1
 20 80 l 1
 20 120 l 1
EndSplineSet
EndChar

StartChar: B
Encoding: 66 66 73
Width: 110
GlyphClass: 1
Flags: W
LayerCount: 2
Fore
SplineSet
0 0 m 1
 0 10 l 1
 10 10 l 1
 10 110 l 1
 0 110 l 1
 0 120 l 1
 80 120 l 1
 80 110 l 1
 90 110 l 1
 90 100 l 1
 100 100 l 1
 100 80 l 1
 90 80 l 1
 90 70 l 1
 80 70 l 1
 80 60 l 1
 90 60 l 1
 90 50 l 1
 100 50 l 1
 100 20 l 1
 90 20 l 1
 90 10 l 1
 80 10 l 1
 80 0 l 1
 0 0 l 1
30 70 m 1
 70 70 l 1
 70 80 l 1
 80 80 l 1
 80 100 l 1
 70 100 l 1
 70 110 l 1
 30 110 l 1
 30 70 l 1
70 60 m 1
 30 60 l 1
 30 10 l 1
 70 10 l 1
 70 20 l 1
 80 20 l 1
 80 50 l 1
 70 50 l 1
 70 60 l 1
EndSplineSet
Substitution2: "'ss01' Style Set 1 lookup 6 subtable" HexB
Substitution2: "'aalt' Access All Alternates lookup 0 subtable" HexB
EndChar

StartChar: y
Encoding: 121 121 74
Width: 110
GlyphClass: 1
Flags: W
LayerCount: 2
Fore
SplineSet
30 0 m 1
 20 0 l 1
 20 10 l 1
 40 10 l 1
 40 0 l 1
 50 0 l 1
 50 10 l 1
 60 10 l 1
 60 20 l 1
 50 20 l 1
 50 40 l 1
 40 40 l 1
 40 60 l 1
 30 60 l 1
 30 80 l 1
 20 80 l 1
 20 90 l 1
 60 90 l 1
 60 80 l 1
 50 80 l 1
 50 70 l 1
 60 70 l 1
 60 50 l 1
 70 50 l 1
 70 40 l 1
 80 40 l 1
 80 20 l 1
 70 20 l 1
 70 0 l 1
 60 0 l 1
 60 -10 l 1
 30 -10 l 1
 30 0 l 1
90 40 m 1
 80 40 l 1
 80 60 l 1
 90 60 l 1
 90 80 l 1
 80 80 l 1
 80 90 l 1
 110 90 l 1
 110 80 l 1
 100 80 l 1
 100 60 l 1
 90 60 l 1
 90 40 l 1
EndSplineSet
EndChar

StartChar: d
Encoding: 100 100 75
Width: 110
GlyphClass: 1
Flags: W
LayerCount: 2
Fore
SplineSet
30 20 m 1
 20 20 l 1
 20 70 l 1
 30 70 l 1
 30 80 l 1
 40 80 l 1
 40 90 l 1
 70 90 l 1
 70 80 l 1
 80 80 l 1
 80 110 l 1
 70 110 l 1
 70 120 l 1
 100 120 l 1
 100 10 l 1
 110 10 l 1
 110 0 l 1
 80 0 l 1
 80 10 l 1
 70 10 l 1
 70 0 l 1
 40 0 l 1
 40 10 l 1
 30 10 l 1
 30 20 l 1
50 70 m 1
 40 70 l 1
 40 20 l 1
 50 20 l 1
 50 10 l 1
 70 10 l 1
 70 20 l 1
 80 20 l 1
 80 70 l 1
 70 70 l 1
 70 80 l 1
 50 80 l 1
 50 70 l 1
EndSplineSet
EndChar

StartChar: h
Encoding: 104 104 76
Width: 110
GlyphClass: 1
Flags: W
LayerCount: 2
Fore
SplineSet
0 10 m 1
 10 10 l 1
 10 110 l 1
 0 110 l 1
 0 120 l 1
 30 120 l 1
 30 80 l 1
 40 80 l 1
 40 90 l 1
 70 90 l 1
 70 80 l 1
 80 80 l 1
 80 70 l 1
 90 70 l 1
 90 10 l 1
 100 10 l 1
 100 0 l 1
 60 0 l 1
 60 10 l 1
 70 10 l 1
 70 70 l 1
 60 70 l 1
 60 80 l 1
 40 80 l 1
 40 70 l 1
 30 70 l 1
 30 10 l 1
 40 10 l 1
 40 0 l 1
 0 0 l 1
 0 10 l 1
EndSplineSet
Substitution2: "Single Substitution lookup 1 subtable" caltH-gk
EndChar

StartChar: eight
Encoding: 56 56 77
Width: 110
GlyphClass: 1
Flags: W
LayerCount: 2
Fore
SplineSet
20 20 m 1
 20 50 l 1
 30 50 l 1
 30 70 l 1
 20 70 l 1
 20 100 l 1
 30 100 l 1
 30 110 l 1
 40 110 l 1
 40 120 l 1
 90 120 l 1
 90 110 l 1
 100 110 l 1
 100 100 l 1
 110 100 l 1
 110 70 l 1
 100 70 l 1
 100 50 l 1
 110 50 l 1
 110 20 l 1
 100 20 l 1
 100 10 l 1
 90 10 l 1
 90 0 l 1
 40 0 l 1
 40 10 l 1
 30 10 l 1
 30 20 l 1
 20 20 l 1
50 80 m 1
 50 70 l 1
 90 70 l 1
 90 100 l 1
 80 100 l 1
 80 110 l 1
 50 110 l 1
 50 100 l 1
 40 100 l 1
 40 80 l 1
 50 80 l 1
40 20 m 1
 50 20 l 1
 50 10 l 1
 80 10 l 1
 80 20 l 1
 90 20 l 1
 90 40 l 1
 80 40 l 1
 80 50 l 1
 40 50 l 1
 40 20 l 1
EndSplineSet
EndChar

StartChar: P
Encoding: 80 80 78
Width: 110
GlyphClass: 1
Flags: W
LayerCount: 2
Fore
SplineSet
10 110 m 1
 0 110 l 1
 0 120 l 1
 80 120 l 1
 80 110 l 1
 90 110 l 1
 90 100 l 1
 100 100 l 1
 100 70 l 1
 90 70 l 1
 90 60 l 1
 80 60 l 1
 80 50 l 1
 30 50 l 1
 30 10 l 1
 40 10 l 1
 40 0 l 1
 0 0 l 1
 0 10 l 1
 10 10 l 1
 10 110 l 1
70 110 m 1
 30 110 l 1
 30 60 l 1
 70 60 l 1
 70 70 l 1
 80 70 l 1
 80 100 l 1
 70 100 l 1
 70 110 l 1
EndSplineSet
Substitution2: "'ss01' Style Set 1 lookup 6 subtable" nPr
Substitution2: "'aalt' Access All Alternates lookup 0 subtable" nPr
EndChar

StartChar: O
Encoding: 79 79 79
Width: 110
GlyphClass: 1
Flags: W
LayerCount: 2
Fore
SplineSet
10 90 m 1
 10 110 l 1
 20 110 l 1
 20 120 l 1
 80 120 l 1
 80 110 l 1
 90 110 l 1
 90 90 l 1
 100 90 l 1
 100 30 l 1
 90 30 l 1
 90 10 l 1
 80 10 l 1
 80 0 l 1
 20 0 l 1
 20 10 l 1
 10 10 l 1
 10 30 l 1
 0 30 l 1
 0 90 l 1
 10 90 l 1
20 30 m 1
 30 30 l 1
 30 10 l 1
 70 10 l 1
 70 30 l 1
 80 30 l 1
 80 90 l 1
 70 90 l 1
 70 110 l 1
 30 110 l 1
 30 90 l 1
 20 90 l 1
 20 30 l 1
EndSplineSet
EndChar

StartChar: five.inferior
Encoding: 8325 8325 80
Width: 110
GlyphClass: 1
Flags: W
LayerCount: 2
Fore
SplineSet
30 -10 m 1
 30 0 l 1
 20 0 l 1
 20 10 l 1
 40 10 l 1
 40 0 l 1
 70 0 l 1
 70 30 l 1
 40 30 l 1
 40 20 l 1
 20 20 l 1
 20 60 l 1
 90 60 l 1
 90 50 l 1
 30 50 l 1
 30 40 l 1
 80 40 l 1
 80 30 l 1
 91 30 l 1
 91 0 l 1
 80 0 l 1
 80 -10 l 1
 30 -10 l 1
EndSplineSet
EndChar

StartChar: exclam
Encoding: 33 33 81
Width: 110
GlyphClass: 1
Flags: W
LayerCount: 2
Fore
SplineSet
80 120 m 1
 100 120 l 1
 100 40 l 1
 80 40 l 1
 80 120 l 1
80 20 m 1
 100 20 l 1
 100 0 l 1
 80 0 l 1
 80 20 l 1
EndSplineSet
EndChar

StartChar: at
Encoding: 64 64 82
Width: 110
GlyphClass: 1
Flags: W
LayerCount: 2
Fore
SplineSet
0 90 m 1
 10 90 l 1
 10 110 l 1
 30 110 l 1
 30 120 l 1
 70 120 l 1
 70 110 l 1
 90 110 l 1
 90 100 l 1
 100 100 l 1
 100 40 l 1
 90 40 l 1
 90 30 l 1
 100 30 l 1
 100 10 l 1
 80 10 l 1
 80 0 l 1
 30 0 l 1
 30 10 l 1
 10 10 l 1
 10 30 l 1
 0 30 l 1
 0 90 l 1
20 40 m 1
 20 20 l 1
 40 20 l 1
 40 10 l 1
 70 10 l 1
 70 20 l 1
 90 20 l 1
 90 30 l 1
 60 30 l 1
 60 40 l 1
 50 40 l 1
 50 60 l 1
 60 60 l 1
 60 80 l 1
 70 80 l 1
 70 90 l 1
 80 90 l 1
 80 60 l 1
 70 60 l 1
 70 40 l 1
 80 40 l 1
 80 50 l 1
 90 50 l 1
 90 90 l 1
 80 90 l 1
 80 100 l 1
 60 100 l 1
 60 110 l 1
 40 110 l 1
 40 100 l 1
 20 100 l 1
 20 80 l 1
 10 80 l 1
 10 40 l 1
 20 40 l 1
30 70 m 1
 30 80 l 1
 40 80 l 1
 40 90 l 1
 60 90 l 1
 60 80 l 1
 50 80 l 1
 50 70 l 1
 40 70 l 1
 40 40 l 1
 50 40 l 1
 50 30 l 1
 30 30 l 1
 30 40 l 1
 20 40 l 1
 20 70 l 1
 30 70 l 1
EndSplineSet
EndChar

StartChar: Q
Encoding: 81 81 83
Width: 110
GlyphClass: 1
Flags: W
LayerCount: 2
Fore
SplineSet
10 90 m 1
 10 110 l 1
 20 110 l 1
 20 120 l 1
 80 120 l 1
 80 110 l 1
 90 110 l 1
 90 90 l 1
 100 90 l 1
 100 30 l 1
 90 30 l 1
 90 10 l 1
 80 10 l 1
 80 0 l 1
 90 0 l 1
 90 -10 l 1
 60 -10 l 1
 60 0 l 1
 20 0 l 1
 20 10 l 1
 10 10 l 1
 10 30 l 1
 0 30 l 1
 0 90 l 1
 10 90 l 1
20 30 m 1
 40 30 l 1
 40 20 l 1
 30 20 l 1
 30 10 l 1
 60 10 l 1
 60 30 l 1
 70 30 l 1
 70 20 l 1
 80 20 l 1
 80 90 l 1
 70 90 l 1
 70 110 l 1
 30 110 l 1
 30 90 l 1
 20 90 l 1
 20 30 l 1
40 40 m 1
 60 40 l 1
 60 30 l 1
 40 30 l 1
 40 40 l 1
EndSplineSet
EndChar

StartChar: one.inferior
Encoding: 8321 8321 84
Width: 110
GlyphClass: 1
Flags: W
LayerCount: 2
Fore
SplineSet
60 -10 m 1
 60 0 l 1
 70 0 l 1
 70 40 l 1
 60 40 l 1
 60 50 l 1
 70 50 l 1
 70 60 l 1
 90 60 l 1
 90 0 l 1
 100 0 l 1
 100 -10 l 1
 60 -10 l 1
EndSplineSet
EndChar

StartChar: two.inferior
Encoding: 8322 8322 85
Width: 110
GlyphClass: 1
Flags: W
LayerCount: 2
Fore
SplineSet
20 -10 m 5
 20 10 l 5
 30 10 l 5
 30 20 l 5
 40 20 l 5
 40 30 l 5
 70 30 l 5
 70 50 l 5
 40 50 l 5
 40 40 l 5
 20 40 l 5
 20 50 l 5
 30 50 l 5
 30 60 l 5
 80 60 l 5
 80 50 l 5
 90 50 l 5
 90 30 l 5
 80 30 l 5
 80 20 l 5
 50 20 l 5
 50 10 l 5
 40 10 l 5
 40 0 l 5
 80 0 l 5
 80 10 l 5
 90 10 l 5
 90 -10 l 5
 20 -10 l 5
EndSplineSet
EndChar

StartChar: Mbold
Encoding: 119820 119820 86
Width: 110
GlyphClass: 1
Flags: W
LayerCount: 2
Fore
SplineSet
0 0 m 1
 0 10 l 1
 10 10 l 1
 10 110 l 1
 0 110 l 1
 0 120 l 1
 20 120 l 1
 20 100 l 1
 30 100 l 1
 30 70 l 1
 50 70 l 1
 50 100 l 1
 60 100 l 1
 60 120 l 1
 100 120 l 1
 100 110 l 1
 90 110 l 1
 90 10 l 1
 100 10 l 1
 100 0 l 1
 40 0 l 1
 40 10 l 1
 60 10 l 1
 60 50 l 1
 50 50 l 1
 50 20 l 1
 30 20 l 1
 30 50 l 1
 20 50 l 1
 20 10 l 1
 30 10 l 1
 30 0 l 1
 0 0 l 1
EndSplineSet
EndChar

StartChar: Tbold
Encoding: 119827 119827 87
Width: 110
GlyphClass: 1
Flags: W
LayerCount: 2
Fore
SplineSet
0 120 m 1
 90 120 l 1
 90 90 l 1
 80 90 l 1
 80 100 l 1
 70 100 l 1
 70 110 l 1
 60 110 l 1
 60 10 l 1
 70 10 l 1
 70 0 l 1
 20 0 l 1
 20 10 l 1
 30 10 l 1
 30 110 l 1
 20 110 l 1
 20 100 l 1
 10 100 l 1
 10 90 l 1
 0 90 l 1
 0 120 l 1
EndSplineSet
EndChar

StartChar: fbold
Encoding: 119839 119839 88
Width: 110
GlyphClass: 1
Flags: W
LayerCount: 2
Fore
SplineSet
20 0 m 1
 20 10 l 1
 40 10 l 1
 40 70 l 1
 20 70 l 1
 20 80 l 1
 40 80 l 1
 40 110 l 1
 50 110 l 1
 50 120 l 1
 100 120 l 1
 100 110 l 1
 110 110 l 1
 110 100 l 1
 80 100 l 1
 80 110 l 1
 70 110 l 1
 70 80 l 1
 90 80 l 1
 90 70 l 1
 70 70 l 1
 70 10 l 1
 90 10 l 1
 90 0 l 1
 20 0 l 1
EndSplineSet
EndChar

StartChar: Tsmall
Encoding: 7451 7451 89
Width: 110
GlyphClass: 1
Flags: W
LayerCount: 2
Fore
SplineSet
30 -10 m 1
 30 0 l 1
 40 0 l 1
 40 50 l 1
 30 50 l 1
 30 40 l 1
 20 40 l 1
 20 60 l 1
 80 60 l 1
 80 40 l 1
 70 40 l 1
 70 50 l 1
 60 50 l 1
 60 0 l 1
 70 0 l 1
 70 -10 l 1
 30 -10 l 1
EndSplineSet
EndChar

StartChar: times.small
Encoding: 57356 57356 90
Width: 110
GlyphClass: 1
Flags: W
LayerCount: 2
Fore
SplineSet
60 20 m 1
 70 20 l 1
 70 30 l 1
 80 30 l 1
 80 40 l 1
 70 40 l 1
 70 50 l 1
 60 50 l 1
 60 70 l 1
 70 70 l 1
 70 60 l 1
 80 60 l 1
 80 50 l 1
 100 50 l 1
 100 60 l 1
 110 60 l 1
 110 70 l 1
 120 70 l 1
 120 50 l 1
 110 50 l 1
 110 40 l 1
 100 40 l 1
 100 30 l 1
 110 30 l 1
 110 20 l 1
 120 20 l 1
 120 0 l 1
 110 0 l 1
 110 10 l 1
 100 10 l 1
 100 20 l 1
 80 20 l 1
 80 10 l 1
 70 10 l 1
 70 0 l 1
 60 0 l 1
 60 20 l 1
EndSplineSet
EndChar

StartChar: W
Encoding: 87 87 91
Width: 110
GlyphClass: 1
Flags: W
LayerCount: 2
Fore
SplineSet
0 110 m 1
 0 120 l 1
 40 120 l 1
 40 110 l 1
 30 110 l 1
 30 50 l 1
 40 50 l 1
 40 80 l 1
 50 80 l 1
 50 120 l 1
 70 120 l 1
 70 50 l 1
 80 50 l 1
 80 80 l 1
 90 80 l 1
 90 110 l 1
 80 110 l 1
 80 120 l 1
 100 120 l 1
 100 70 l 1
 90 70 l 1
 90 20 l 1
 80 20 l 1
 80 0 l 1
 70 0 l 1
 70 20 l 1
 60 20 l 1
 60 70 l 1
 50 70 l 1
 50 20 l 1
 40 20 l 1
 40 0 l 1
 30 0 l 1
 30 20 l 1
 20 20 l 1
 20 70 l 1
 10 70 l 1
 10 110 l 1
 0 110 l 1
EndSplineSet
EndChar

StartChar: j
Encoding: 106 106 92
Width: 110
GlyphClass: 1
Flags: W
LayerCount: 2
Fore
SplineSet
100 120 m 1
 100 100 l 1
 80 100 l 1
 80 120 l 1
 100 120 l 1
100 90 m 1
 100 0 l 1
 90 0 l 1
 90 -10 l 1
 50 -10 l 1
 50 0 l 1
 40 0 l 1
 40 20 l 1
 60 20 l 1
 60 0 l 1
 80 0 l 1
 80 80 l 1
 60 80 l 1
 60 90 l 1
 100 90 l 1
EndSplineSet
EndChar

StartChar: times.small.2
Encoding: 57358 57358 93
Width: 110
GlyphClass: 1
Flags: W
LayerCount: 2
Fore
SplineSet
100 0 m 1
 90 0 l 1
 90 10 l 1
 80 10 l 1
 80 20 l 1
 60 20 l 1
 60 10 l 1
 50 10 l 1
 50 0 l 1
 40 0 l 1
 40 20 l 1
 50 20 l 1
 50 30 l 1
 60 30 l 1
 60 40 l 1
 50 40 l 1
 50 50 l 1
 40 50 l 1
 40 70 l 1
 50 70 l 1
 50 60 l 1
 60 60 l 1
 60 50 l 1
 80 50 l 1
 80 60 l 1
 90 60 l 1
 90 70 l 1
 100 70 l 1
 100 50 l 1
 90 50 l 1
 90 40 l 1
 80 40 l 1
 80 30 l 1
 90 30 l 1
 90 20 l 1
 100 20 l 1
 100 0 l 1
EndSplineSet
EndChar

StartChar: lessequal
Encoding: 8804 8804 94
Width: 110
GlyphClass: 1
Flags: W
LayerCount: 2
Fore
SplineSet
110 30 m 1
 82 30 l 1
 82 40 l 1
 60 40 l 1
 60 50 l 1
 40 50 l 1
 40 60 l 1
 20 60 l 1
 20 90 l 1
 40 90 l 1
 40 100 l 1
 60 100 l 1
 60 110 l 1
 80 110 l 1
 80 120 l 1
 110 120 l 1
 110 100 l 1
 90 100 l 1
 90 90 l 1
 70 90 l 1
 70 80 l 1
 50 80 l 1
 50 70 l 1
 70 70 l 1
 70 60 l 1
 90 60 l 1
 90 50 l 1
 110 50 l 1
 110 30 l 1
20 0 m 1
 20 20 l 1
 110 20 l 1
 110 0 l 1
 20 0 l 1
EndSplineSet
EndChar

StartChar: greaterequal
Encoding: 8805 8805 95
Width: 110
GlyphClass: 1
Flags: W
LayerCount: 2
Fore
SplineSet
20 30 m 1
 20 50 l 1
 40 50 l 1
 40 60 l 1
 60 60 l 1
 60 70 l 1
 80 70 l 1
 80 80 l 1
 60 80 l 1
 60 90 l 1
 40 90 l 1
 40 100 l 1
 20 100 l 1
 20 120 l 1
 50 120 l 1
 50 110 l 1
 70 110 l 1
 70 100 l 1
 90 100 l 1
 90 90 l 1
 110 90 l 1
 110 60 l 1
 90 60 l 1
 90 50 l 1
 70 50 l 1
 70 40 l 1
 48 40 l 1
 48 30 l 1
 20 30 l 1
110 0 m 1
 20 0 l 1
 20 20 l 1
 110 20 l 1
 110 0 l 1
EndSplineSet
EndChar

StartChar: f
Encoding: 102 102 96
Width: 110
GlyphClass: 1
Flags: W
LayerCount: 2
Fore
SplineSet
40 10 m 1
 60 10 l 1
 60 80 l 1
 40 80 l 1
 40 90 l 1
 60 90 l 1
 60 110 l 1
 70 110 l 1
 70 120 l 1
 100 120 l 1
 100 110 l 1
 110 110 l 1
 110 100 l 1
 90 100 l 1
 90 110 l 1
 80 110 l 1
 80 90 l 1
 100 90 l 1
 100 80 l 1
 80 80 l 1
 80 10 l 1
 100 10 l 1
 100 0 l 1
 40 0 l 1
 40 10 l 1
EndSplineSet
EndChar

StartChar: X
Encoding: 88 88 97
Width: 110
GlyphClass: 1
Flags: W
LayerCount: 2
Fore
SplineSet
70 70 m 1
 60 70 l 1
 60 90 l 1
 70 90 l 1
 70 100 l 1
 80 100 l 1
 80 110 l 1
 70 110 l 1
 70 120 l 1
 100 120 l 1
 100 110 l 1
 90 110 l 1
 90 100 l 1
 80 100 l 1
 80 90 l 1
 70 90 l 1
 70 70 l 1
0 10 m 1
 10 10 l 1
 10 20 l 1
 20 20 l 1
 20 30 l 1
 30 30 l 1
 30 50 l 1
 40 50 l 1
 40 70 l 1
 30 70 l 1
 30 80 l 1
 20 80 l 1
 20 100 l 1
 10 100 l 1
 10 110 l 1
 0 110 l 1
 0 120 l 1
 40 120 l 1
 40 110 l 1
 30 110 l 1
 30 100 l 1
 40 100 l 1
 40 90 l 1
 50 90 l 1
 50 70 l 1
 60 70 l 1
 60 50 l 1
 70 50 l 1
 70 40 l 1
 80 40 l 1
 80 20 l 1
 90 20 l 1
 90 10 l 1
 100 10 l 1
 100 0 l 1
 60 0 l 1
 60 10 l 1
 70 10 l 1
 70 20 l 1
 60 20 l 1
 60 30 l 1
 50 30 l 1
 50 50 l 1
 40 50 l 1
 40 30 l 1
 30 30 l 1
 30 20 l 1
 20 20 l 1
 20 10 l 1
 30 10 l 1
 30 0 l 1
 0 0 l 1
 0 10 l 1
EndSplineSet
EndChar

StartChar: Asmall
Encoding: 7424 7424 98
Width: 110
GlyphClass: 1
Flags: W
LayerCount: 2
Fore
SplineSet
50 -10 m 1
 20 -10 l 1
 20 0 l 1
 30 0 l 1
 30 20 l 1
 40 20 l 1
 40 40 l 1
 50 40 l 1
 50 60 l 1
 70 60 l 1
 70 40 l 1
 80 40 l 1
 80 20 l 1
 90 20 l 1
 90 0 l 1
 100 0 l 1
 100 -10 l 1
 60 -10 l 1
 60 0 l 1
 70 0 l 1
 70 10 l 1
 40 10 l 1
 40 0 l 1
 50 0 l 1
 50 -10 l 1
60 30 m 1
 50 30 l 1
 50 20 l 1
 60 20 l 1
 60 30 l 1
EndSplineSet
EndChar

StartChar: five.superior
Encoding: 8309 8309 99
Width: 110
GlyphClass: 1
Flags: W
LayerCount: 2
Fore
SplineSet
20 70 m 1
 40 70 l 1
 40 60 l 1
 70 60 l 1
 70 90 l 1
 40 90 l 1
 40 80 l 1
 20 80 l 1
 20 120 l 1
 90 120 l 1
 90 110 l 1
 30 110 l 1
 30 100 l 1
 80 100 l 1
 80 90 l 1
 91 90 l 1
 91 60 l 1
 80 60 l 1
 80 50 l 1
 30 50 l 1
 30 60 l 1
 20 60 l 1
 20 70 l 1
EndSplineSet
EndChar

StartChar: parenleft.inferior
Encoding: 8333 8333 100
Width: 110
GlyphClass: 1
Flags: W
LayerCount: 2
Fore
SplineSet
100 -10 m 1
 80 -10 l 1
 80 0 l 1
 70 0 l 1
 70 10 l 1
 60 10 l 1
 60 40 l 1
 70 40 l 1
 70 50 l 1
 80 50 l 1
 80 60 l 1
 100 60 l 1
 100 50 l 1
 90 50 l 1
 90 40 l 1
 80 40 l 1
 80 10 l 1
 90 10 l 1
 90 0 l 1
 100 0 l 1
 100 -10 l 1
EndSplineSet
EndChar

StartChar: notequal
Encoding: 8800 8800 101
Width: 110
GlyphClass: 1
Flags: W
LayerCount: 2
Fore
SplineSet
0 30 m 1
 0 50 l 1
 40 50 l 1
 40 70 l 1
 0 70 l 1
 0 90 l 1
 50 90 l 1
 50 120 l 1
 70 120 l 1
 70 90 l 1
 100 90 l 1
 100 70 l 1
 60 70 l 1
 60 50 l 1
 100 50 l 1
 100 30 l 1
 50 30 l 1
 50 0 l 1
 30 0 l 1
 30 30 l 1
 0 30 l 1
EndSplineSet
EndChar

StartChar: dotmath
Encoding: 8901 8901 102
Width: 110
GlyphClass: 1
Flags: W
LayerCount: 2
Fore
SplineSet
70 70 m 1
 70 80 l 1
 90 80 l 1
 90 70 l 1
 100 70 l 1
 100 50 l 1
 90 50 l 1
 90 40 l 1
 70 40 l 1
 70 50 l 1
 60 50 l 1
 60 70 l 1
 70 70 l 1
EndSplineSet
EndChar

StartChar: angle
Encoding: 8736 8736 103
Width: 110
GlyphClass: 1
Flags: W
LayerCount: 2
Fore
SplineSet
0 0 m 1
 0 20 l 1
 10 20 l 1
 10 30 l 1
 20 30 l 1
 20 40 l 1
 30 40 l 1
 30 50 l 1
 40 50 l 1
 40 60 l 1
 50 60 l 1
 50 70 l 1
 60 70 l 1
 60 80 l 1
 70 80 l 1
 70 90 l 1
 80 90 l 1
 80 100 l 1
 90 100 l 1
 90 90 l 1
 100 90 l 1
 100 80 l 1
 90 80 l 1
 90 70 l 1
 80 70 l 1
 80 60 l 1
 70 60 l 1
 70 50 l 1
 60 50 l 1
 60 40 l 1
 50 40 l 1
 50 30 l 1
 40 30 l 1
 40 20 l 1
 100 20 l 1
 100 0 l 1
 0 0 l 1
EndSplineSet
EndChar

StartChar: x.itc.superior
Encoding: 57363 57363 104
Width: 110
GlyphClass: 1
Flags: W
LayerCount: 2
Fore
SplineSet
90 100 m 1
 70 100 l 1
 70 110 l 1
 90 110 l 1
 90 100 l 1
20 50 m 1
 20 60 l 1
 30 60 l 1
 30 70 l 1
 40 70 l 1
 40 80 l 1
 50 80 l 1
 50 90 l 1
 40 90 l 1
 40 100 l 1
 30 100 l 1
 30 90 l 1
 20 90 l 1
 20 100 l 1
 30 100 l 1
 30 110 l 1
 60 110 l 1
 60 100 l 1
 70 100 l 1
 70 90 l 1
 60 90 l 1
 60 70 l 1
 70 70 l 1
 70 60 l 1
 80 60 l 1
 80 50 l 1
 50 50 l 1
 50 60 l 1
 40 60 l 1
 40 50 l 1
 20 50 l 1
90 60 m 1
 80 60 l 1
 80 70 l 1
 90 70 l 1
 90 60 l 1
EndSplineSet
EndChar

StartChar: dollar
Encoding: 36 36 105
Width: 110
GlyphClass: 1
Flags: W
LayerCount: 2
Fore
SplineSet
20 70 m 1
 20 100 l 1
 30 100 l 1
 30 110 l 1
 60 110 l 1
 60 120 l 1
 70 120 l 1
 70 110 l 1
 90 110 l 1
 90 100 l 1
 100 100 l 1
 100 110 l 1
 110 110 l 1
 110 70 l 1
 100 70 l 1
 100 80 l 1
 90 80 l 1
 90 90 l 1
 80 90 l 1
 80 100 l 1
 70 100 l 1
 70 70 l 1
 80 70 l 1
 80 60 l 1
 100 60 l 1
 100 50 l 1
 110 50 l 1
 110 20 l 1
 100 20 l 1
 100 10 l 1
 70 10 l 1
 70 0 l 1
 60 0 l 1
 60 10 l 1
 40 10 l 1
 40 20 l 1
 30 20 l 1
 30 10 l 1
 20 10 l 1
 20 50 l 1
 30 50 l 1
 30 40 l 1
 40 40 l 1
 40 30 l 1
 50 30 l 1
 50 20 l 1
 60 20 l 1
 60 50 l 1
 50 50 l 1
 50 60 l 1
 30 60 l 1
 30 70 l 1
 20 70 l 1
50 80 m 1
 50 70 l 1
 60 70 l 1
 60 100 l 1
 50 100 l 1
 50 90 l 1
 40 90 l 1
 40 80 l 1
 50 80 l 1
70 20 m 1
 80 20 l 1
 80 30 l 1
 90 30 l 1
 90 40 l 1
 80 40 l 1
 80 50 l 1
 70 50 l 1
 70 20 l 1
EndSplineSet
EndChar

StartChar: mubolditalic
Encoding: 120641 120641 106
Width: 110
GlyphClass: 1
Flags: W
LayerCount: 2
Fore
SplineSet
50 -10 m 1
 0 -10 l 1
 0 0 l 1
 10 0 l 1
 10 30 l 1
 20 30 l 1
 20 60 l 1
 30 60 l 1
 30 80 l 1
 20 80 l 1
 20 90 l 1
 60 90 l 1
 60 60 l 1
 70 60 l 1
 70 90 l 1
 100 90 l 1
 100 60 l 1
 90 60 l 1
 90 30 l 1
 100 30 l 1
 100 20 l 1
 70 20 l 1
 70 30 l 1
 60 30 l 1
 60 20 l 1
 40 20 l 1
 40 0 l 1
 50 0 l 1
 50 -10 l 1
60 60 m 1
 50 60 l 1
 50 30 l 1
 60 30 l 1
 60 60 l 1
EndSplineSet
EndChar

StartChar: v
Encoding: 118 118 107
Width: 110
GlyphClass: 1
Flags: W
LayerCount: 2
Fore
SplineSet
90 40 m 1
 80 40 l 1
 80 60 l 1
 90 60 l 1
 90 80 l 1
 80 80 l 1
 80 90 l 1
 110 90 l 1
 110 80 l 1
 100 80 l 1
 100 60 l 1
 90 60 l 1
 90 40 l 1
30 80 m 1
 20 80 l 1
 20 90 l 1
 60 90 l 1
 60 80 l 1
 50 80 l 1
 50 60 l 1
 60 60 l 1
 60 40 l 1
 80 40 l 1
 80 20 l 1
 70 20 l 1
 70 0 l 1
 60 0 l 1
 60 20 l 1
 50 20 l 1
 50 40 l 1
 40 40 l 1
 40 60 l 1
 30 60 l 1
 30 80 l 1
EndSplineSet
EndChar

StartChar: ampersand
Encoding: 38 38 108
Width: 110
GlyphClass: 1
Flags: W
LayerCount: 2
Fore
SplineSet
10 10 m 1
 0 10 l 1
 0 50 l 1
 10 50 l 1
 10 60 l 1
 20 60 l 1
 20 70 l 1
 10 70 l 1
 10 110 l 1
 20 110 l 1
 20 120 l 1
 60 120 l 1
 60 110 l 1
 70 110 l 1
 70 80 l 1
 60 80 l 1
 60 70 l 1
 100 70 l 1
 100 60 l 1
 90 60 l 1
 90 40 l 1
 80 40 l 1
 80 30 l 1
 70 30 l 1
 70 20 l 1
 80 20 l 1
 80 10 l 1
 90 10 l 1
 90 0 l 1
 70 0 l 1
 70 10 l 1
 50 10 l 1
 50 0 l 1
 10 0 l 1
 10 10 l 1
30 110 m 1
 30 70 l 1
 40 70 l 1
 40 80 l 1
 50 80 l 1
 50 110 l 1
 30 110 l 1
50 60 m 1
 40 60 l 1
 40 50 l 1
 50 50 l 1
 50 40 l 1
 70 40 l 1
 70 60 l 1
 60 60 l 1
 60 70 l 1
 50 70 l 1
 50 60 l 1
40 10 m 1
 40 20 l 1
 50 20 l 1
 50 30 l 1
 40 30 l 1
 40 40 l 1
 30 40 l 1
 30 50 l 1
 20 50 l 1
 20 10 l 1
 40 10 l 1
100 10 m 1
 90 10 l 1
 90 20 l 1
 100 20 l 1
 100 10 l 1
EndSplineSet
EndChar

StartChar: H
Encoding: 72 72 109
Width: 110
GlyphClass: 1
Flags: W
LayerCount: 2
Fore
SplineSet
10 110 m 1
 0 110 l 1
 0 120 l 1
 40 120 l 1
 40 110 l 1
 30 110 l 1
 30 70 l 1
 70 70 l 1
 70 110 l 1
 60 110 l 1
 60 120 l 1
 100 120 l 1
 100 110 l 1
 90 110 l 1
 90 10 l 1
 100 10 l 1
 100 0 l 1
 60 0 l 1
 60 10 l 1
 70 10 l 1
 70 60 l 1
 30 60 l 1
 30 10 l 1
 40 10 l 1
 40 0 l 1
 0 0 l 1
 0 10 l 1
 10 10 l 1
 10 110 l 1
EndSplineSet
EndChar

StartChar: L
Encoding: 76 76 110
Width: 110
GlyphClass: 1
Flags: W
LayerCount: 2
Fore
SplineSet
0 110 m 1
 0 120 l 1
 40 120 l 1
 40 110 l 1
 30 110 l 1
 30 10 l 1
 80 10 l 1
 80 20 l 1
 90 20 l 1
 90 40 l 1
 100 40 l 1
 100 0 l 1
 0 0 l 1
 0 10 l 1
 10 10 l 1
 10 110 l 1
 0 110 l 1
EndSplineSet
EndChar

StartChar: w
Encoding: 119 119 111
Width: 110
GlyphClass: 1
Flags: W
LayerCount: 2
Fore
SplineSet
0 80 m 1
 0 90 l 1
 40 90 l 1
 40 80 l 1
 30 80 l 1
 30 40 l 1
 40 40 l 1
 40 60 l 1
 50 60 l 1
 50 90 l 1
 70 90 l 1
 70 40 l 1
 80 40 l 1
 80 60 l 1
 90 60 l 1
 90 80 l 1
 80 80 l 1
 80 90 l 1
 100 90 l 1
 100 50 l 1
 90 50 l 1
 90 20 l 1
 80 20 l 1
 80 0 l 1
 70 0 l 1
 70 20 l 1
 60 20 l 1
 60 50 l 1
 50 50 l 1
 50 20 l 1
 40 20 l 1
 40 0 l 1
 30 0 l 1
 30 20 l 1
 20 20 l 1
 20 60 l 1
 10 60 l 1
 10 80 l 1
 0 80 l 1
EndSplineSet
EndChar

StartChar: G
Encoding: 71 71 112
Width: 110
GlyphClass: 1
Flags: W
LayerCount: 2
Fore
SplineSet
0 80 m 1
 10 80 l 1
 10 100 l 1
 20 100 l 1
 20 110 l 1
 30 110 l 1
 30 120 l 1
 80 120 l 1
 80 110 l 1
 90 110 l 1
 90 120 l 1
 100 120 l 1
 100 80 l 1
 90 80 l 1
 90 90 l 1
 80 90 l 1
 80 100 l 1
 70 100 l 1
 70 110 l 1
 40 110 l 1
 40 100 l 1
 30 100 l 1
 30 80 l 1
 20 80 l 1
 20 40 l 1
 30 40 l 1
 30 20 l 1
 40 20 l 1
 40 10 l 1
 70 10 l 1
 70 0 l 1
 30 0 l 1
 30 10 l 1
 20 10 l 1
 20 20 l 1
 10 20 l 1
 10 40 l 1
 0 40 l 1
 0 80 l 1
80 20 m 1
 80 10 l 1
 70 10 l 1
 70 20 l 1
 80 20 l 1
 80 50 l 1
 60 50 l 1
 60 60 l 1
 100 60 l 1
 100 0 l 1
 90 0 l 1
 90 20 l 1
 80 20 l 1
EndSplineSet
EndChar

StartChar: K
Encoding: 75 75 113
Width: 110
GlyphClass: 1
Flags: W
LayerCount: 2
Fore
SplineSet
10 110 m 1
 0 110 l 1
 0 120 l 1
 40 120 l 1
 40 110 l 1
 30 110 l 1
 30 60 l 1
 40 60 l 1
 40 70 l 1
 50 70 l 1
 50 80 l 1
 60 80 l 1
 60 90 l 1
 70 90 l 1
 70 100 l 1
 80 100 l 1
 80 110 l 1
 70 110 l 1
 70 120 l 1
 100 120 l 1
 100 110 l 1
 90 110 l 1
 90 100 l 1
 80 100 l 1
 80 90 l 1
 70 90 l 1
 70 80 l 1
 60 80 l 1
 60 60 l 1
 70 60 l 1
 70 40 l 1
 80 40 l 1
 80 30 l 1
 90 30 l 1
 90 10 l 1
 100 10 l 1
 100 0 l 1
 60 0 l 1
 60 10 l 1
 70 10 l 1
 70 20 l 1
 60 20 l 1
 60 40 l 1
 50 40 l 1
 50 50 l 1
 30 50 l 1
 30 10 l 1
 40 10 l 1
 40 0 l 1
 0 0 l 1
 0 10 l 1
 10 10 l 1
 10 110 l 1
EndSplineSet
EndChar

StartChar: Z
Encoding: 90 90 114
Width: 110
GlyphClass: 1
Flags: W
LayerCount: 2
Fore
SplineSet
90 30 m 1
 100 30 l 1
 100 0 l 1
 0 0 l 1
 0 10 l 1
 10 10 l 1
 10 20 l 1
 20 20 l 1
 20 40 l 1
 30 40 l 1
 30 50 l 1
 40 50 l 1
 40 70 l 1
 50 70 l 1
 50 80 l 1
 60 80 l 1
 60 100 l 1
 70 100 l 1
 70 110 l 1
 20 110 l 1
 20 100 l 1
 10 100 l 1
 10 90 l 1
 0 90 l 1
 0 120 l 1
 100 120 l 1
 100 110 l 1
 90 110 l 1
 90 100 l 1
 80 100 l 1
 80 80 l 1
 70 80 l 1
 70 70 l 1
 60 70 l 1
 60 50 l 1
 50 50 l 1
 50 40 l 1
 40 40 l 1
 40 20 l 1
 30 20 l 1
 30 10 l 1
 80 10 l 1
 80 20 l 1
 90 20 l 1
 90 30 l 1
EndSplineSet
EndChar

StartChar: Jsmall
Encoding: 7434 7434 115
Width: 110
GlyphClass: 1
Flags: W
LayerCount: 2
Fore
SplineSet
40 20 m 1
 40 0 l 1
 60 0 l 1
 60 50 l 1
 50 50 l 1
 50 60 l 1
 90 60 l 1
 90 50 l 1
 80 50 l 1
 80 0 l 1
 70 0 l 1
 70 -10 l 1
 30 -10 l 1
 30 0 l 1
 20 0 l 1
 20 20 l 1
 40 20 l 1
EndSplineSet
EndChar

StartChar: zero.inferior
Encoding: 8320 8320 116
Width: 110
GlyphClass: 1
Flags: W
LayerCount: 2
Fore
SplineSet
20 50 m 1
 30 50 l 1
 30 60 l 1
 80 60 l 1
 80 50 l 1
 90 50 l 1
 90 0 l 1
 80 0 l 1
 80 -10 l 1
 30 -10 l 1
 30 0 l 1
 20 0 l 1
 20 50 l 1
40 0 m 1
 70 0 l 1
 70 50 l 1
 40 50 l 1
 40 0 l 1
EndSplineSet
EndChar

StartChar: pinferior
Encoding: 8346 8346 117
Width: 110
GlyphClass: 1
Flags: W
LayerCount: 2
Fore
SplineSet
20 -10 m 1
 20 0 l 1
 30 0 l 1
 30 40 l 1
 20 40 l 1
 20 50 l 1
 50 50 l 1
 50 40 l 1
 60 40 l 1
 60 30 l 1
 50 30 l 1
 50 20 l 1
 70 20 l 1
 70 40 l 1
 60 40 l 1
 60 50 l 1
 80 50 l 1
 80 40 l 1
 90 40 l 1
 90 20 l 1
 80 20 l 1
 80 10 l 1
 50 10 l 1
 50 0 l 1
 60 0 l 1
 60 -10 l 1
 20 -10 l 1
EndSplineSet
EndChar

StartChar: ninferior
Encoding: 8345 8345 118
Width: 110
GlyphClass: 1
Flags: W
LayerCount: 2
Fore
SplineSet
50 -10 m 1
 20 -10 l 1
 20 0 l 1
 30 0 l 1
 30 40 l 1
 20 40 l 1
 20 50 l 1
 50 50 l 1
 50 40 l 1
 60 40 l 1
 60 50 l 1
 80 50 l 1
 80 40 l 1
 90 40 l 1
 90 0 l 1
 100 0 l 1
 100 -10 l 1
 60 -10 l 1
 60 0 l 1
 70 0 l 1
 70 40 l 1
 60 40 l 1
 60 30 l 1
 50 30 l 1
 50 -10 l 1
EndSplineSet
EndChar

StartChar: einferior
Encoding: 8337 8337 119
Width: 110
GlyphClass: 1
Flags: W
LayerCount: 2
Fore
SplineSet
20 0 m 1
 20 30 l 1
 30 30 l 1
 30 40 l 1
 70 40 l 1
 70 30 l 1
 80 30 l 1
 80 10 l 1
 40 10 l 1
 40 0 l 1
 80 0 l 1
 80 -10 l 1
 30 -10 l 1
 30 0 l 1
 20 0 l 1
40 20 m 1
 60 20 l 1
 60 30 l 1
 40 30 l 1
 40 20 l 1
EndSplineSet
EndChar

StartChar: minus.inferior
Encoding: 8331 8331 120
Width: 110
GlyphClass: 1
Flags: W
LayerCount: 2
Fore
SplineSet
40 20 m 1
 40 30 l 1
 90 30 l 1
 90 20 l 1
 40 20 l 1
EndSplineSet
EndChar

StartChar: nine.inferior
Encoding: 8329 8329 121
Width: 110
GlyphClass: 1
Flags: W
LayerCount: 2
Fore
SplineSet
40 10 m 1
 40 0 l 1
 70 0 l 1
 70 20 l 1
 30 20 l 1
 30 30 l 1
 20 30 l 1
 20 50 l 1
 30 50 l 1
 30 60 l 1
 80 60 l 1
 80 50 l 1
 90 50 l 1
 90 0 l 1
 80 0 l 1
 80 -10 l 1
 30 -10 l 1
 30 0 l 1
 20 0 l 1
 20 10 l 1
 40 10 l 1
70 30 m 1
 70 50 l 1
 40 50 l 1
 40 30 l 1
 70 30 l 1
EndSplineSet
EndChar

StartChar: Csmall
Encoding: 7428 7428 122
Width: 110
GlyphClass: 1
Flags: W
LayerCount: 2
Fore
SplineSet
40 -10 m 1
 40 0 l 1
 30 0 l 1
 30 10 l 1
 20 10 l 1
 20 40 l 1
 30 40 l 1
 30 50 l 1
 40 50 l 1
 40 60 l 1
 70 60 l 1
 70 50 l 1
 80 50 l 1
 80 60 l 1
 90 60 l 1
 90 40 l 1
 70 40 l 1
 70 50 l 1
 50 50 l 1
 50 40 l 1
 40 40 l 1
 40 10 l 1
 50 10 l 1
 50 0 l 1
 80 0 l 1
 80 -10 l 1
 40 -10 l 1
90 0 m 1
 80 0 l 1
 80 10 l 1
 90 10 l 1
 90 0 l 1
EndSplineSet
EndChar

StartChar: Ksmall
Encoding: 7435 7435 123
Width: 110
GlyphClass: 1
Flags: W
LayerCount: 2
Fore
SplineSet
20 -10 m 1
 20 0 l 1
 30 0 l 1
 30 50 l 1
 20 50 l 1
 20 60 l 1
 60 60 l 1
 60 50 l 1
 50 50 l 1
 50 30 l 1
 60 30 l 1
 60 40 l 1
 70 40 l 1
 70 60 l 1
 100 60 l 1
 100 50 l 1
 90 50 l 1
 90 40 l 1
 80 40 l 1
 80 30 l 1
 70 30 l 1
 70 20 l 1
 80 20 l 1
 80 10 l 1
 90 10 l 1
 90 0 l 1
 100 0 l 1
 100 -10 l 1
 70 -10 l 1
 70 10 l 1
 60 10 l 1
 60 20 l 1
 50 20 l 1
 50 0 l 1
 60 0 l 1
 60 -10 l 1
 20 -10 l 1
EndSplineSet
EndChar

StartChar: twosuperior
Encoding: 178 178 124
Width: 110
GlyphClass: 1
Flags: W
LayerCount: 2
Fore
SplineSet
20 100 m 1
 20 110 l 1
 30 110 l 1
 30 120 l 1
 80 120 l 1
 80 110 l 1
 90 110 l 1
 90 90 l 1
 80 90 l 1
 80 80 l 1
 50 80 l 1
 50 70 l 1
 40 70 l 1
 40 60 l 1
 80 60 l 1
 80 70 l 1
 90 70 l 1
 90 50 l 1
 20 50 l 1
 20 70 l 1
 30 70 l 1
 30 80 l 1
 40 80 l 1
 40 90 l 1
 70 90 l 1
 70 110 l 1
 40 110 l 1
 40 100 l 1
 20 100 l 1
EndSplineSet
EndChar

StartChar: greater
Encoding: 62 62 125
Width: 110
GlyphClass: 1
Flags: W
LayerCount: 2
Fore
SplineSet
40 0 m 5
 40 20 l 5
 50 20 l 5
 50 30 l 5
 60 30 l 5
 60 40 l 5
 70 40 l 5
 70 50 l 5
 80 50 l 5
 80 60 l 5
 70 60 l 5
 70 70 l 5
 60 70 l 5
 60 80 l 5
 50 80 l 5
 50 90 l 5
 40 90 l 5
 40 110 l 5
 60 110 l 5
 60 100 l 5
 70 100 l 5
 70 90 l 5
 80 90 l 5
 80 80 l 5
 90 80 l 5
 90 70 l 5
 100 70 l 5
 100 60 l 5
 110 60 l 5
 110 50 l 5
 100 50 l 5
 100 40 l 5
 90 40 l 5
 90 30 l 5
 80 30 l 5
 80 20 l 5
 70 20 l 5
 70 10 l 5
 60 10 l 5
 60 0 l 5
 40 0 l 5
EndSplineSet
EndChar

StartChar: less
Encoding: 60 60 126
Width: 110
GlyphClass: 1
Flags: W
LayerCount: 2
Fore
SplineSet
90 0 m 1
 70 0 l 1
 70 10 l 1
 60 10 l 1
 60 20 l 1
 50 20 l 1
 50 30 l 1
 40 30 l 1
 40 40 l 1
 30 40 l 1
 30 50 l 1
 20 50 l 1
 20 60 l 1
 30 60 l 1
 30 70 l 1
 40 70 l 1
 40 80 l 1
 50 80 l 1
 50 90 l 1
 60 90 l 1
 60 100 l 1
 70 100 l 1
 70 110 l 1
 90 110 l 1
 90 90 l 1
 80 90 l 1
 80 80 l 1
 70 80 l 1
 70 70 l 1
 60 70 l 1
 60 60 l 1
 50 60 l 1
 50 50 l 1
 60 50 l 1
 60 40 l 1
 70 40 l 1
 70 30 l 1
 80 30 l 1
 80 20 l 1
 90 20 l 1
 90 0 l 1
EndSplineSet
EndChar

StartChar: equal
Encoding: 61 61 127
Width: 110
GlyphClass: 1
Flags: W
LayerCount: 2
Fore
SplineSet
0 90 m 1
 100 90 l 1
 100 70 l 1
 0 70 l 1
 0 90 l 1
0 50 m 1
 100 50 l 1
 100 30 l 1
 0 30 l 1
 0 50 l 1
EndSplineSet
EndChar

StartChar: infty.inferior
Encoding: 57367 57367 128
Width: 110
GlyphClass: 1
Flags: W
LayerCount: 2
Fore
SplineSet
0 10 m 1
 0 40 l 1
 10 40 l 1
 10 50 l 1
 20 50 l 1
 20 60 l 1
 40 60 l 1
 40 50 l 1
 60 50 l 1
 60 60 l 1
 80 60 l 1
 80 50 l 1
 90 50 l 1
 90 40 l 1
 100 40 l 1
 100 10 l 1
 90 10 l 1
 90 0 l 1
 80 0 l 1
 80 -10 l 1
 60 -10 l 1
 60 0 l 1
 40 0 l 1
 40 -10 l 1
 20 -10 l 1
 20 0 l 1
 10 0 l 1
 10 10 l 1
 0 10 l 1
70 30 m 1
 60 30 l 1
 60 10 l 1
 80 10 l 1
 80 20 l 1
 90 20 l 1
 90 30 l 1
 80 30 l 1
 80 40 l 1
 70 40 l 1
 70 30 l 1
10 20 m 1
 20 20 l 1
 20 10 l 1
 30 10 l 1
 30 20 l 1
 40 20 l 1
 40 40 l 1
 20 40 l 1
 20 30 l 1
 10 30 l 1
 10 20 l 1
EndSplineSet
EndChar

StartChar: plancktwopi
Encoding: 8463 8463 129
Width: 110
GlyphClass: 1
Flags: W
LayerCount: 2
Fore
SplineSet
30 70 m 1
 40 70 l 1
 40 80 l 1
 70 80 l 1
 70 70 l 1
 80 70 l 1
 80 60 l 1
 90 60 l 1
 90 10 l 1
 100 10 l 1
 100 0 l 1
 60 0 l 1
 60 10 l 1
 70 10 l 1
 70 60 l 1
 60 60 l 1
 60 70 l 1
 40 70 l 1
 40 60 l 1
 30 60 l 1
 30 10 l 1
 40 10 l 1
 40 0 l 1
 0 0 l 1
 0 10 l 1
 10 10 l 1
 10 80 l 1
 0 80 l 1
 0 90 l 1
 10 90 l 1
 10 110 l 1
 0 110 l 1
 0 120 l 1
 30 120 l 1
 30 100 l 1
 50 100 l 1
 50 90 l 1
 30 90 l 1
 30 70 l 1
70 100 m 1
 50 100 l 1
 50 110 l 1
 70 110 l 1
 70 100 l 1
EndSplineSet
EndChar

StartChar: bracketleft
Encoding: 91 91 130
Width: 110
GlyphClass: 1
Flags: W
LayerCount: 2
Fore
SplineSet
60 0 m 1
 60 120 l 1
 110 120 l 1
 110 110 l 1
 80 110 l 1
 80 10 l 1
 110 10 l 1
 110 0 l 1
 60 0 l 1
EndSplineSet
EndChar

StartChar: bracketright
Encoding: 93 93 131
Width: 110
GlyphClass: 1
Flags: W
LayerCount: 2
Fore
SplineSet
60 120 m 1
 110 120 l 1
 110 0 l 1
 60 0 l 1
 60 10 l 1
 90 10 l 1
 90 110 l 1
 60 110 l 1
 60 120 l 1
EndSplineSet
EndChar

StartChar: zero
Encoding: 48 48 132
Width: 110
GlyphClass: 1
Flags: W
LayerCount: 2
Fore
SplineSet
20 90 m 1
 30 90 l 1
 30 110 l 1
 40 110 l 1
 40 120 l 1
 90 120 l 1
 90 110 l 1
 100 110 l 1
 100 90 l 1
 110 90 l 1
 110 30 l 1
 100 30 l 1
 100 10 l 1
 90 10 l 1
 90 0 l 1
 40 0 l 1
 40 10 l 1
 30 10 l 1
 30 30 l 1
 20 30 l 1
 20 90 l 1
50 20 m 1
 50 10 l 1
 80 10 l 1
 80 20 l 1
 90 20 l 1
 90 100 l 1
 80 100 l 1
 80 110 l 1
 50 110 l 1
 50 100 l 1
 40 100 l 1
 40 20 l 1
 50 20 l 1
EndSplineSet
EndChar

StartChar: period
Encoding: 46 46 133
Width: 110
GlyphClass: 1
Flags: W
LayerCount: 2
Fore
SplineSet
40 0 m 5
 40 30 l 5
 70 30 l 5
 70 0 l 5
 40 0 l 5
EndSplineSet
EndChar

StartChar: comma
Encoding: 44 44 134
Width: 110
GlyphClass: 1
Flags: W
LayerCount: 2
Fore
SplineSet
40 10 m 1
 40 40 l 1
 70 40 l 1
 70 0 l 1
 60 0 l 1
 60 -10 l 1
 40 -10 l 1
 40 0 l 1
 50 0 l 1
 50 10 l 1
 40 10 l 1
EndSplineSet
EndChar

StartChar: question
Encoding: 63 63 135
Width: 110
GlyphClass: 1
Flags: W
LayerCount: 2
Fore
SplineSet
20 80 m 1
 20 100 l 1
 30 100 l 1
 30 110 l 1
 40 110 l 1
 40 120 l 1
 80 120 l 1
 80 110 l 1
 90 110 l 1
 90 100 l 1
 100 100 l 1
 100 80 l 1
 90 80 l 1
 90 70 l 1
 80 70 l 1
 80 60 l 1
 70 60 l 1
 70 40 l 1
 50 40 l 1
 50 60 l 1
 60 60 l 1
 60 70 l 1
 70 70 l 1
 70 80 l 1
 80 80 l 1
 80 100 l 1
 70 100 l 1
 70 110 l 1
 50 110 l 1
 50 100 l 1
 40 100 l 1
 40 80 l 1
 20 80 l 1
50 0 m 1
 50 20 l 1
 70 20 l 1
 70 0 l 1
 50 0 l 1
EndSplineSet
EndChar

StartChar: J
Encoding: 74 74 136
Width: 110
GlyphClass: 1
Flags: W
LayerCount: 2
Fore
SplineSet
20 50 m 1
 40 50 l 1
 40 20 l 1
 50 20 l 1
 50 10 l 1
 60 10 l 1
 60 20 l 1
 70 20 l 1
 70 110 l 1
 50 110 l 1
 50 120 l 1
 110 120 l 1
 110 110 l 1
 90 110 l 1
 90 20 l 1
 80 20 l 1
 80 10 l 1
 70 10 l 1
 70 0 l 1
 40 0 l 1
 40 10 l 1
 30 10 l 1
 30 20 l 1
 20 20 l 1
 20 50 l 1
EndSplineSet
EndChar

StartChar: Y
Encoding: 89 89 137
Width: 110
GlyphClass: 1
Flags: W
LayerCount: 2
Fore
SplineSet
10 110 m 5
 0 110 l 5
 0 120 l 5
 40 120 l 5
 40 110 l 5
 30 110 l 5
 30 90 l 5
 40 90 l 5
 40 70 l 5
 50 70 l 5
 50 60 l 5
 60 60 l 5
 60 70 l 5
 70 70 l 5
 70 90 l 5
 80 90 l 5
 80 110 l 5
 70 110 l 5
 70 120 l 5
 100 120 l 5
 100 110 l 5
 90 110 l 5
 90 90 l 5
 80 90 l 5
 80 70 l 5
 70 70 l 5
 70 50 l 5
 60 50 l 5
 60 10 l 5
 70 10 l 5
 70 0 l 5
 30 0 l 5
 30 10 l 5
 40 10 l 5
 40 50 l 5
 30 50 l 5
 30 70 l 5
 20 70 l 5
 20 90 l 5
 10 90 l 5
 10 110 l 5
EndSplineSet
EndChar

StartChar: semicolon
Encoding: 59 59 138
Width: 110
GlyphClass: 1
Flags: W
LayerCount: 2
Fore
SplineSet
80 70 m 1
 80 100 l 1
 110 100 l 1
 110 70 l 1
 80 70 l 1
80 10 m 1
 80 40 l 1
 110 40 l 1
 110 0 l 1
 100 0 l 1
 100 -10 l 1
 80 -10 l 1
 80 0 l 1
 90 0 l 1
 90 10 l 1
 80 10 l 1
EndSplineSet
EndChar

StartChar: quotedbl
Encoding: 34 34 139
Width: 110
GlyphClass: 1
Flags: W
LayerCount: 2
Fore
SplineSet
20 90 m 1
 20 120 l 1
 50 120 l 1
 50 80 l 1
 40 80 l 1
 40 70 l 1
 20 70 l 1
 20 80 l 1
 30 80 l 1
 30 90 l 1
 20 90 l 1
60 90 m 1
 60 120 l 1
 90 120 l 1
 90 80 l 1
 80 80 l 1
 80 70 l 1
 60 70 l 1
 60 80 l 1
 70 80 l 1
 70 90 l 1
 60 90 l 1
EndSplineSet
EndChar

StartChar: asterisk
Encoding: 42 42 140
Width: 110
GlyphClass: 1
Flags: W
LayerCount: 2
Fore
SplineSet
70 70 m 1
 70 80 l 1
 90 80 l 1
 90 70 l 1
 100 70 l 1
 100 50 l 1
 90 50 l 1
 90 40 l 1
 70 40 l 1
 70 50 l 1
 60 50 l 1
 60 70 l 1
 70 70 l 1
EndSplineSet
EndChar

StartChar: underscore
Encoding: 95 95 141
Width: 110
GlyphClass: 1
Flags: W
LayerCount: 2
Fore
SplineSet
0 10 m 5
 100 10 l 5
 100 0 l 5
 0 0 l 5
 0 10 l 5
EndSplineSet
Substitution2: "'ss01' Style Set 1 lookup 6 subtable" cursor.replace
Substitution2: "'aalt' Access All Alternates lookup 0 subtable" cursor.replace
EndChar

StartChar: braceleft
Encoding: 123 123 142
Width: 110
GlyphClass: 1
Flags: W
LayerCount: 2
Fore
SplineSet
100 120 m 1
 100 110 l 1
 80 110 l 1
 80 70 l 1
 70 70 l 1
 70 60 l 1
 60 60 l 1
 60 50 l 1
 70 50 l 1
 70 40 l 1
 80 40 l 1
 80 0 l 1
 100 0 l 1
 100 -10 l 1
 70 -10 l 1
 70 0 l 1
 60 0 l 1
 60 40 l 1
 50 40 l 1
 50 50 l 1
 40 50 l 1
 40 60 l 1
 50 60 l 1
 50 70 l 1
 60 70 l 1
 60 110 l 1
 70 110 l 1
 70 120 l 1
 100 120 l 1
EndSplineSet
EndChar

StartChar: bar
Encoding: 124 124 143
Width: 110
VWidth: 0
GlyphClass: 1
Flags: HW
LayerCount: 2
Fore
SplineSet
40 120 m 261
 60 120 l 261
 60 0 l 261
 40 0 l 261
 40 120 l 261
EndSplineSet
Substitution2: "'ss02' Style Set 2 lookup 9 subtable" bar.ss02
Substitution2: "'ss01' Style Set 1 lookup 6 subtable" bar.ss01
Substitution2: "'aalt' Access All Alternates lookup 0 subtable" bar.ss01
EndChar

StartChar: braceright
Encoding: 125 125 144
Width: 110
GlyphClass: 1
Flags: W
LayerCount: 2
Fore
SplineSet
60 120 m 1
 90 120 l 1
 90 110 l 1
 100 110 l 1
 100 70 l 1
 110 70 l 1
 110 60 l 1
 120 60 l 1
 120 50 l 1
 110 50 l 1
 110 40 l 1
 100 40 l 1
 100 0 l 1
 90 0 l 1
 90 -10 l 1
 60 -10 l 1
 60 0 l 1
 80 0 l 1
 80 40 l 1
 90 40 l 1
 90 50 l 1
 100 50 l 1
 100 60 l 1
 90 60 l 1
 90 70 l 1
 80 70 l 1
 80 110 l 1
 60 110 l 1
 60 120 l 1
EndSplineSet
EndChar

StartChar: minferior
Encoding: 8344 8344 145
Width: 110
GlyphClass: 1
Flags: W
LayerCount: 2
Fore
SplineSet
0 0 m 1
 10 0 l 1
 10 30 l 1
 0 30 l 1
 0 40 l 1
 20 40 l 1
 20 30 l 1
 30 30 l 1
 30 40 l 1
 50 40 l 1
 50 30 l 1
 60 30 l 1
 60 40 l 1
 80 40 l 1
 80 30 l 1
 90 30 l 1
 90 0 l 1
 100 0 l 1
 100 -10 l 1
 70 -10 l 1
 70 30 l 1
 60 30 l 1
 60 -10 l 1
 40 -10 l 1
 40 30 l 1
 30 30 l 1
 30 -10 l 1
 0 -10 l 1
 0 0 l 1
EndSplineSet
EndChar

StartChar: Psmall
Encoding: 7448 7448 146
Width: 110
GlyphClass: 1
Flags: W
LayerCount: 2
Fore
SplineSet
20 60 m 1
 80 60 l 1
 80 50 l 1
 90 50 l 1
 90 30 l 1
 80 30 l 1
 80 20 l 1
 50 20 l 1
 50 0 l 1
 60 0 l 1
 60 -10 l 1
 20 -10 l 1
 20 0 l 1
 30 0 l 1
 30 50 l 1
 20 50 l 1
 20 60 l 1
70 50 m 1
 50 50 l 1
 50 30 l 1
 70 30 l 1
 70 50 l 1
EndSplineSet
EndChar

StartChar: Nsmall
Encoding: 628 628 147
Width: 110
GlyphClass: 1
Flags: W
LayerCount: 2
Fore
SplineSet
20 -10 m 1
 20 0 l 1
 30 0 l 1
 30 50 l 1
 20 50 l 1
 20 60 l 1
 40 60 l 1
 40 50 l 1
 50 50 l 1
 50 40 l 1
 60 40 l 1
 60 30 l 1
 70 30 l 1
 70 50 l 1
 60 50 l 1
 60 60 l 1
 90 60 l 1
 90 50 l 1
 80 50 l 1
 80 -10 l 1
 70 -10 l 1
 70 0 l 1
 60 0 l 1
 60 10 l 1
 50 10 l 1
 50 20 l 1
 40 20 l 1
 40 0 l 1
 50 0 l 1
 50 -10 l 1
 20 -10 l 1
EndSplineSet
EndChar

StartChar: Bsmall
Encoding: 665 665 148
Width: 110
GlyphClass: 1
Flags: W
LayerCount: 2
Fore
SplineSet
20 50 m 1
 20 60 l 1
 80 60 l 1
 80 50 l 1
 90 50 l 1
 90 30 l 1
 80 30 l 1
 80 20 l 1
 90 20 l 1
 90 0 l 1
 80 0 l 1
 80 -10 l 1
 20 -10 l 1
 20 0 l 1
 30 0 l 1
 30 50 l 1
 20 50 l 1
50 50 m 1
 50 30 l 1
 70 30 l 1
 70 50 l 1
 50 50 l 1
70 20 m 1
 50 20 l 1
 50 0 l 1
 70 0 l 1
 70 20 l 1
EndSplineSet
EndChar

StartChar: mu.itc.inferior
Encoding: 57365 57365 149
Width: 110
GlyphClass: 1
Flags: W
LayerCount: 2
Fore
SplineSet
20 10 m 1
 30 10 l 1
 30 40 l 1
 40 40 l 1
 40 60 l 1
 60 60 l 1
 60 40 l 1
 50 40 l 1
 50 10 l 1
 70 10 l 1
 70 40 l 1
 80 40 l 1
 80 60 l 1
 100 60 l 1
 100 40 l 1
 90 40 l 1
 90 10 l 1
 100 10 l 1
 100 0 l 1
 80 0 l 1
 80 10 l 1
 70 10 l 1
 70 0 l 1
 50 0 l 1
 50 10 l 1
 40 10 l 1
 40 -10 l 1
 20 -10 l 1
 20 10 l 1
EndSplineSet
EndChar

StartChar: tau.itc.inferior
Encoding: 57364 57364 150
Width: 110
GlyphClass: 1
Flags: W
LayerCount: 2
Fore
SplineSet
20 30 m 1
 30 30 l 1
 30 40 l 1
 90 40 l 1
 90 30 l 1
 70 30 l 1
 70 20 l 1
 60 20 l 1
 60 0 l 1
 70 0 l 1
 70 -10 l 1
 50 -10 l 1
 50 0 l 1
 40 0 l 1
 40 20 l 1
 50 20 l 1
 50 30 l 1
 30 30 l 1
 30 20 l 1
 20 20 l 1
 20 30 l 1
80 0 m 1
 70 0 l 1
 70 10 l 1
 80 10 l 1
 80 0 l 1
EndSplineSet
EndChar

StartChar: cut
Encoding: 57385 57385 151
Width: 110
GlyphClass: 1
Flags: W
LayerCount: 2
Fore
SplineSet
0 0 m 1
 0 120 l 1
 100 120 l 1
 100 0 l 1
 0 0 l 1
10 40 m 1
 10 20 l 1
 20 20 l 1
 20 10 l 1
 40 10 l 1
 40 20 l 1
 60 20 l 1
 60 10 l 1
 80 10 l 1
 80 20 l 1
 60 20 l 1
 60 40 l 1
 80 40 l 1
 80 20 l 1
 90 20 l 1
 90 40 l 1
 80 40 l 1
 80 50 l 1
 60 50 l 1
 60 60 l 1
 70 60 l 1
 70 80 l 1
 80 80 l 1
 80 110 l 1
 70 110 l 1
 70 90 l 1
 60 90 l 1
 60 70 l 1
 40 70 l 1
 40 90 l 1
 30 90 l 1
 30 110 l 1
 20 110 l 1
 20 80 l 1
 30 80 l 1
 30 60 l 1
 40 60 l 1
 40 50 l 1
 20 50 l 1
 20 40 l 1
 10 40 l 1
20 40 m 1
 40 40 l 1
 40 20 l 1
 20 20 l 1
 20 40 l 1
EndSplineSet
EndChar

StartChar: ten.small
Encoding: 9192 9192 152
AltUni2: 00e010.ffffffff.0 00e010.ffffffff.0
Width: 110
GlyphClass: 1
Flags: W
LayerCount: 2
Fore
SplineSet
10 60 m 1
 0 60 l 1
 0 70 l 1
 10 70 l 1
 10 80 l 1
 30 80 l 1
 30 0 l 1
 10 0 l 1
 10 60 l 1
50 10 m 1
 50 70 l 1
 60 70 l 1
 60 80 l 1
 90 80 l 1
 90 70 l 1
 100 70 l 1
 100 10 l 1
 90 10 l 1
 90 0 l 1
 60 0 l 1
 60 10 l 1
 50 10 l 1
70 70 m 1
 70 10 l 1
 80 10 l 1
 80 70 l 1
 70 70 l 1
EndSplineSet
EndChar

StartChar: BOX
Encoding: 57384 57384 153
Width: 110
GlyphClass: 1
Flags: W
LayerCount: 2
Fore
SplineSet
0 120 m 1
 100 120 l 1
 100 -10 l 1
 0 -10 l 1
 0 120 l 1
10 110 m 1
 10 0 l 1
 90 0 l 1
 90 110 l 1
 10 110 l 1
EndSplineSet
EndChar

StartChar: degree
Encoding: 176 176 154
Width: 110
GlyphClass: 1
Flags: W
LayerCount: 2
Fore
SplineSet
30 120 m 5
 70 120 l 5
 70 110 l 5
 80 110 l 5
 80 70 l 5
 70 70 l 5
 70 60 l 5
 30 60 l 5
 30 70 l 5
 20 70 l 5
 20 110 l 5
 30 110 l 5
 30 120 l 5
40 110 m 5
 40 100 l 5
 30 100 l 5
 30 80 l 5
 40 80 l 5
 40 70 l 5
 60 70 l 5
 60 80 l 5
 70 80 l 5
 70 100 l 5
 60 100 l 5
 60 110 l 5
 40 110 l 5
EndSplineSet
Substitution2: "'ss01' Style Set 1 lookup 6 subtable" dms
Substitution2: "'aalt' Access All Alternates lookup 0 subtable" dms
EndChar

StartChar: shade
Encoding: 9618 9618 155
Width: 110
GlyphClass: 1
Flags: W
LayerCount: 2
Fore
SplineSet
10 20 m 1
 10 30 l 1
 0 30 l 1
 0 40 l 1
 10 40 l 1
 10 50 l 1
 0 50 l 1
 0 60 l 1
 10 60 l 1
 10 70 l 1
 0 70 l 1
 0 80 l 1
 10 80 l 1
 10 90 l 1
 0 90 l 1
 0 100 l 1
 10 100 l 1
 10 110 l 1
 0 110 l 1
 0 120 l 1
 10 120 l 1
 10 110 l 1
 20 110 l 1
 20 120 l 1
 30 120 l 1
 30 110 l 1
 40 110 l 1
 40 120 l 1
 50 120 l 1
 50 110 l 1
 60 110 l 1
 60 120 l 1
 70 120 l 1
 70 110 l 1
 80 110 l 1
 80 120 l 1
 90 120 l 1
 90 110 l 1
 100 110 l 1
 100 100 l 1
 90 100 l 1
 90 90 l 1
 100 90 l 1
 100 80 l 1
 90 80 l 1
 90 70 l 1
 100 70 l 1
 100 60 l 1
 90 60 l 1
 90 50 l 1
 100 50 l 1
 100 40 l 1
 90 40 l 1
 90 30 l 1
 100 30 l 1
 100 20 l 1
 90 20 l 1
 90 10 l 1
 100 10 l 1
 100 0 l 1
 90 0 l 1
 90 10 l 1
 80 10 l 1
 80 20 l 1
 90 20 l 1
 90 30 l 1
 80 30 l 1
 80 40 l 1
 90 40 l 1
 90 50 l 1
 80 50 l 1
 80 60 l 1
 90 60 l 1
 90 70 l 1
 80 70 l 1
 80 80 l 1
 90 80 l 1
 90 90 l 1
 80 90 l 1
 80 100 l 1
 70 100 l 1
 70 110 l 1
 60 110 l 1
 60 100 l 1
 50 100 l 1
 50 110 l 1
 40 110 l 1
 40 100 l 1
 30 100 l 1
 30 110 l 1
 20 110 l 1
 20 100 l 1
 10 100 l 1
 10 90 l 1
 20 90 l 1
 20 80 l 1
 10 80 l 1
 10 70 l 1
 20 70 l 1
 20 60 l 1
 10 60 l 1
 10 50 l 1
 20 50 l 1
 20 40 l 1
 10 40 l 1
 10 30 l 1
 20 30 l 1
 20 20 l 1
 10 20 l 1
 10 10 l 1
 20 10 l 1
 20 0 l 1
 30 0 l 1
 30 10 l 1
 40 10 l 1
 40 0 l 1
 50 0 l 1
 50 10 l 1
 60 10 l 1
 60 0 l 1
 70 0 l 1
 70 10 l 1
 80 10 l 1
 80 0 l 1
 90 0 l 1
 90 -10 l 1
 80 -10 l 1
 80 0 l 1
 70 0 l 1
 70 -10 l 1
 60 -10 l 1
 60 0 l 1
 50 0 l 1
 50 -10 l 1
 40 -10 l 1
 40 0 l 1
 30 0 l 1
 30 -10 l 1
 20 -10 l 1
 20 0 l 1
 10 0 l 1
 10 -10 l 1
 0 -10 l 1
 0 0 l 1
 10 0 l 1
 10 10 l 1
 0 10 l 1
 0 20 l 1
 10 20 l 1
90 110 m 1
 80 110 l 1
 80 100 l 1
 90 100 l 1
 90 110 l 1
20 20 m 1
 30 20 l 1
 30 30 l 1
 20 30 l 1
 20 40 l 1
 30 40 l 1
 30 50 l 1
 20 50 l 1
 20 60 l 1
 30 60 l 1
 30 70 l 1
 20 70 l 1
 20 80 l 1
 30 80 l 1
 30 90 l 1
 20 90 l 1
 20 100 l 1
 30 100 l 1
 30 90 l 1
 40 90 l 1
 40 100 l 1
 50 100 l 1
 50 90 l 1
 60 90 l 1
 60 100 l 1
 70 100 l 1
 70 90 l 1
 80 90 l 1
 80 80 l 1
 70 80 l 1
 70 70 l 1
 80 70 l 1
 80 60 l 1
 70 60 l 1
 70 50 l 1
 80 50 l 1
 80 40 l 1
 70 40 l 1
 70 30 l 1
 80 30 l 1
 80 20 l 1
 70 20 l 1
 70 30 l 1
 60 30 l 1
 60 40 l 1
 70 40 l 1
 70 50 l 1
 60 50 l 1
 60 60 l 1
 70 60 l 1
 70 70 l 1
 60 70 l 1
 60 80 l 1
 50 80 l 1
 50 90 l 1
 40 90 l 1
 40 80 l 1
 30 80 l 1
 30 70 l 1
 40 70 l 1
 40 60 l 1
 30 60 l 1
 30 50 l 1
 40 50 l 1
 40 40 l 1
 30 40 l 1
 30 30 l 1
 40 30 l 1
 40 20 l 1
 50 20 l 1
 50 30 l 1
 60 30 l 1
 60 20 l 1
 70 20 l 1
 70 10 l 1
 60 10 l 1
 60 20 l 1
 50 20 l 1
 50 10 l 1
 40 10 l 1
 40 20 l 1
 30 20 l 1
 30 10 l 1
 20 10 l 1
 20 20 l 1
70 90 m 1
 60 90 l 1
 60 80 l 1
 70 80 l 1
 70 90 l 1
50 70 m 1
 40 70 l 1
 40 80 l 1
 50 80 l 1
 50 70 l 1
 60 70 l 1
 60 60 l 1
 50 60 l 1
 50 50 l 1
 60 50 l 1
 60 40 l 1
 50 40 l 1
 50 30 l 1
 40 30 l 1
 40 40 l 1
 50 40 l 1
 50 50 l 1
 40 50 l 1
 40 60 l 1
 50 60 l 1
 50 70 l 1
EndSplineSet
EndChar

StartChar: trianglerightsmallblack
Encoding: 9656 9656 156
Width: 110
GlyphClass: 1
Flags: W
LayerCount: 2
Fore
SplineSet
60 20 m 1
 60 80 l 1
 80 80 l 1
 80 70 l 1
 100 70 l 1
 100 60 l 1
 120 60 l 1
 120 40 l 1
 100 40 l 1
 100 30 l 1
 80 30 l 1
 80 20 l 1
 60 20 l 1
EndSplineSet
EndChar

StartChar: uni7B97
Encoding: 31639 31639 157
Width: 120
GlyphClass: 1
Flags: W
LayerCount: 2
Fore
SplineSet
10 80 m 1
 0 80 l 1
 0 90 l 1
 10 90 l 1
 10 110 l 1
 20 110 l 1
 20 120 l 1
 30 120 l 1
 30 110 l 1
 50 110 l 1
 50 100 l 1
 60 100 l 1
 60 110 l 1
 70 110 l 1
 70 120 l 1
 80 120 l 1
 80 110 l 1
 110 110 l 1
 110 100 l 1
 90 100 l 1
 90 40 l 1
 80 40 l 1
 80 30 l 1
 110 30 l 1
 110 20 l 1
 80 20 l 1
 80 0 l 1
 70 0 l 1
 70 20 l 1
 30 20 l 1
 30 10 l 1
 20 10 l 1
 20 0 l 1
 10 0 l 1
 10 10 l 1
 20 10 l 1
 20 20 l 1
 0 20 l 1
 0 30 l 1
 30 30 l 1
 30 40 l 1
 20 40 l 1
 20 90 l 1
 10 90 l 1
 10 80 l 1
60 90 m 1
 80 90 l 1
 80 100 l 1
 60 100 l 1
 60 90 l 1
50 100 m 1
 40 100 l 1
 40 90 l 1
 50 90 l 1
 50 100 l 1
30 90 m 1
 30 100 l 1
 20 100 l 1
 20 90 l 1
 30 90 l 1
40 50 m 1
 40 60 l 1
 50 60 l 1
 50 50 l 1
 70 50 l 1
 70 60 l 1
 60 60 l 1
 60 70 l 1
 70 70 l 1
 70 60 l 1
 80 60 l 1
 80 80 l 1
 60 80 l 1
 60 70 l 1
 50 70 l 1
 50 80 l 1
 30 80 l 1
 30 70 l 1
 40 70 l 1
 40 60 l 1
 30 60 l 1
 30 50 l 1
 40 50 l 1
70 40 m 1
 40 40 l 1
 40 30 l 1
 70 30 l 1
 70 40 l 1
EndSplineSet
Substitution2: "'ss01' Style Set 1 lookup 6 subtable" uni7B97_uniFE00
Substitution2: "'aalt' Access All Alternates lookup 0 subtable" uni7B97_uniFE00
EndChar

StartChar: uni8BA1
Encoding: 35745 35745 158
Width: 120
GlyphClass: 1
Flags: W
LayerCount: 2
Fore
SplineSet
30 90 m 1
 20 90 l 1
 20 110 l 1
 10 110 l 1
 10 120 l 1
 20 120 l 1
 20 110 l 1
 30 110 l 1
 30 90 l 1
80 60 m 1
 80 0 l 1
 70 0 l 1
 70 60 l 1
 40 60 l 1
 40 70 l 1
 70 70 l 1
 70 120 l 1
 80 120 l 1
 80 70 l 1
 110 70 l 1
 110 60 l 1
 80 60 l 1
0 70 m 1
 0 80 l 1
 30 80 l 1
 30 20 l 1
 40 20 l 1
 40 10 l 1
 30 10 l 1
 30 0 l 1
 20 0 l 1
 20 70 l 1
 0 70 l 1
50 20 m 1
 40 20 l 1
 40 30 l 1
 50 30 l 1
 50 20 l 1
EndSplineSet
EndChar

StartChar: uni5668
Encoding: 22120 22120 159
Width: 120
GlyphClass: 1
Flags: W
LayerCount: 2
Fore
SplineSet
0 50 m 1
 30 50 l 1
 30 60 l 1
 0 60 l 1
 0 70 l 1
 50 70 l 1
 50 80 l 1
 10 80 l 1
 10 120 l 1
 50 120 l 1
 50 80 l 1
 60 80 l 1
 60 120 l 1
 100 120 l 1
 100 80 l 1
 90 80 l 1
 90 70 l 1
 110 70 l 1
 110 60 l 1
 90 60 l 1
 90 50 l 1
 100 50 l 1
 100 40 l 1
 110 40 l 1
 110 30 l 1
 100 30 l 1
 100 0 l 1
 60 0 l 1
 60 40 l 1
 90 40 l 1
 90 50 l 1
 80 50 l 1
 80 60 l 1
 40 60 l 1
 40 50 l 1
 30 50 l 1
 30 40 l 1
 50 40 l 1
 50 0 l 1
 10 0 l 1
 10 40 l 1
 0 40 l 1
 0 50 l 1
20 110 m 1
 20 90 l 1
 40 90 l 1
 40 110 l 1
 20 110 l 1
90 110 m 1
 70 110 l 1
 70 90 l 1
 90 90 l 1
 90 110 l 1
60 70 m 1
 80 70 l 1
 80 80 l 1
 60 80 l 1
 60 70 l 1
40 30 m 1
 20 30 l 1
 20 10 l 1
 40 10 l 1
 40 30 l 1
70 30 m 1
 70 10 l 1
 90 10 l 1
 90 30 l 1
 70 30 l 1
EndSplineSet
EndChar

StartChar: uni51FD
Encoding: 20989 20989 160
Width: 120
GlyphClass: 1
Flags: W
LayerCount: 2
Fore
SplineSet
10 40 m 1
 10 20 l 1
 40 20 l 1
 40 30 l 1
 30 30 l 1
 30 40 l 1
 40 40 l 1
 40 30 l 1
 50 30 l 1
 50 60 l 1
 40 60 l 1
 40 50 l 1
 30 50 l 1
 30 60 l 1
 40 60 l 1
 40 70 l 1
 30 70 l 1
 30 80 l 1
 20 80 l 1
 20 90 l 1
 30 90 l 1
 30 80 l 1
 40 80 l 1
 40 70 l 1
 50 70 l 1
 50 90 l 1
 60 90 l 1
 60 100 l 1
 70 100 l 1
 70 110 l 1
 10 110 l 1
 10 120 l 1
 90 120 l 1
 90 110 l 1
 80 110 l 1
 80 100 l 1
 70 100 l 1
 70 90 l 1
 60 90 l 1
 60 70 l 1
 70 70 l 1
 70 60 l 1
 80 60 l 1
 80 50 l 1
 90 50 l 1
 90 30 l 1
 80 30 l 1
 80 50 l 1
 70 50 l 1
 70 60 l 1
 60 60 l 1
 60 30 l 1
 50 30 l 1
 50 20 l 1
 100 20 l 1
 100 80 l 1
 110 80 l 1
 110 0 l 1
 100 0 l 1
 100 10 l 1
 0 10 l 1
 0 80 l 1
 10 80 l 1
 10 50 l 1
 30 50 l 1
 30 40 l 1
 10 40 l 1
80 70 m 1
 70 70 l 1
 70 80 l 1
 80 80 l 1
 80 90 l 1
 90 90 l 1
 90 80 l 1
 80 80 l 1
 80 70 l 1
EndSplineSet
EndChar

StartChar: uni6570
Encoding: 25968 25968 161
Width: 120
GlyphClass: 1
Flags: W
LayerCount: 2
Fore
SplineSet
20 40 m 1
 20 30 l 1
 40 30 l 1
 40 20 l 1
 50 20 l 1
 50 10 l 1
 60 10 l 1
 60 0 l 1
 50 0 l 1
 50 10 l 1
 40 10 l 1
 40 20 l 1
 20 20 l 1
 20 10 l 1
 10 10 l 1
 10 0 l 1
 0 0 l 1
 0 10 l 1
 10 10 l 1
 10 20 l 1
 20 20 l 1
 20 30 l 1
 10 30 l 1
 10 40 l 1
 0 40 l 1
 0 50 l 1
 20 50 l 1
 20 60 l 1
 30 60 l 1
 30 80 l 1
 20 80 l 1
 20 70 l 1
 10 70 l 1
 10 60 l 1
 0 60 l 1
 0 70 l 1
 10 70 l 1
 10 80 l 1
 20 80 l 1
 20 90 l 1
 0 90 l 1
 0 100 l 1
 10 100 l 1
 10 110 l 1
 0 110 l 1
 0 120 l 1
 10 120 l 1
 10 110 l 1
 20 110 l 1
 20 100 l 1
 30 100 l 1
 30 120 l 1
 40 120 l 1
 40 110 l 1
 50 110 l 1
 50 100 l 1
 60 100 l 1
 60 90 l 1
 70 90 l 1
 70 120 l 1
 80 120 l 1
 80 100 l 1
 110 100 l 1
 110 90 l 1
 100 90 l 1
 100 50 l 1
 90 50 l 1
 90 30 l 1
 100 30 l 1
 100 10 l 1
 110 10 l 1
 110 0 l 1
 100 0 l 1
 100 10 l 1
 90 10 l 1
 90 30 l 1
 80 30 l 1
 80 20 l 1
 70 20 l 1
 70 10 l 1
 60 10 l 1
 60 20 l 1
 70 20 l 1
 70 30 l 1
 80 30 l 1
 80 50 l 1
 70 50 l 1
 70 70 l 1
 80 70 l 1
 80 50 l 1
 90 50 l 1
 90 90 l 1
 70 90 l 1
 70 70 l 1
 60 70 l 1
 60 90 l 1
 40 90 l 1
 40 80 l 1
 50 80 l 1
 50 70 l 1
 40 70 l 1
 40 60 l 1
 30 60 l 1
 30 50 l 1
 60 50 l 1
 60 40 l 1
 50 40 l 1
 50 30 l 1
 40 30 l 1
 40 40 l 1
 20 40 l 1
60 110 m 1
 50 110 l 1
 50 120 l 1
 60 120 l 1
 60 110 l 1
50 60 m 1
 50 70 l 1
 60 70 l 1
 60 60 l 1
 50 60 l 1
EndSplineSet
Substitution2: "'ss01' Style Set 1 lookup 6 subtable" uni6570_uniFE00
Substitution2: "'aalt' Access All Alternates lookup 0 subtable" uni6570_uniFE00
EndChar

StartChar: mbold
Encoding: 119846 119846 162
Width: 110
GlyphClass: 1
Flags: W
LayerCount: 2
Fore
SplineSet
100 80 m 1
 100 0 l 1
 70 0 l 1
 70 80 l 1
 60 80 l 1
 60 0 l 1
 40 0 l 1
 40 80 l 1
 30 80 l 1
 30 0 l 1
 0 0 l 1
 0 90 l 1
 20 90 l 1
 20 80 l 1
 30 80 l 1
 30 90 l 1
 50 90 l 1
 50 80 l 1
 60 80 l 1
 60 90 l 1
 90 90 l 1
 90 80 l 1
 100 80 l 1
EndSplineSet
EndChar

StartChar: nbold
Encoding: 119847 119847 163
Width: 110
GlyphClass: 1
Flags: W
LayerCount: 2
Fore
SplineSet
40 70 m 1
 40 0 l 1
 0 0 l 1
 0 10 l 1
 10 10 l 1
 10 80 l 1
 0 80 l 1
 0 90 l 1
 30 90 l 1
 30 80 l 1
 40 80 l 1
 40 90 l 1
 70 90 l 1
 70 80 l 1
 80 80 l 1
 80 70 l 1
 90 70 l 1
 90 10 l 1
 100 10 l 1
 100 0 l 1
 50 0 l 1
 50 10 l 1
 60 10 l 1
 60 70 l 1
 40 70 l 1
EndSplineSet
EndChar

StartChar: pbold
Encoding: 119849 119849 164
Width: 110
GlyphClass: 1
Flags: W
LayerCount: 2
Fore
SplineSet
0 90 m 1
 40 90 l 1
 40 80 l 1
 50 80 l 1
 50 90 l 1
 80 90 l 1
 80 80 l 1
 90 80 l 1
 90 70 l 1
 100 70 l 1
 100 30 l 1
 90 30 l 1
 90 20 l 1
 80 20 l 1
 80 10 l 1
 50 10 l 1
 50 20 l 1
 40 20 l 1
 40 0 l 1
 50 0 l 1
 50 -10 l 1
 0 -10 l 1
 0 0 l 1
 10 0 l 1
 10 80 l 1
 0 80 l 1
 0 90 l 1
50 70 m 1
 40 70 l 1
 40 30 l 1
 50 30 l 1
 50 20 l 1
 60 20 l 1
 60 30 l 1
 70 30 l 1
 70 70 l 1
 60 70 l 1
 60 80 l 1
 50 80 l 1
 50 70 l 1
EndSplineSet
EndChar

StartChar: kbold
Encoding: 119844 119844 165
Width: 110
GlyphClass: 1
Flags: W
LayerCount: 2
Fore
SplineSet
40 0 m 1
 0 0 l 1
 0 10 l 1
 10 10 l 1
 10 110 l 1
 0 110 l 1
 0 120 l 1
 40 120 l 1
 40 50 l 1
 50 50 l 1
 50 60 l 1
 60 60 l 1
 60 70 l 1
 70 70 l 1
 70 80 l 1
 60 80 l 1
 60 90 l 1
 100 90 l 1
 100 80 l 1
 80 80 l 1
 80 70 l 1
 70 70 l 1
 70 60 l 1
 60 60 l 1
 60 50 l 1
 70 50 l 1
 70 40 l 1
 80 40 l 1
 80 20 l 1
 90 20 l 1
 90 10 l 1
 100 10 l 1
 100 0 l 1
 50 0 l 1
 50 10 l 1
 60 10 l 1
 60 20 l 1
 50 20 l 1
 50 40 l 1
 40 40 l 1
 40 0 l 1
EndSplineSet
EndChar

StartChar: Gbold
Encoding: 119814 119814 166
Width: 110
GlyphClass: 1
Flags: W
LayerCount: 2
Fore
SplineSet
100 120 m 1
 100 80 l 1
 90 80 l 1
 90 90 l 1
 80 90 l 1
 80 100 l 1
 70 100 l 1
 70 110 l 1
 50 110 l 1
 50 100 l 1
 40 100 l 1
 40 90 l 1
 30 90 l 1
 30 30 l 1
 40 30 l 1
 40 20 l 1
 50 20 l 1
 50 10 l 1
 70 10 l 1
 70 20 l 1
 80 20 l 1
 80 50 l 1
 60 50 l 1
 60 60 l 1
 100 60 l 1
 100 0 l 1
 90 0 l 1
 90 10 l 1
 80 10 l 1
 80 0 l 1
 30 0 l 1
 30 10 l 1
 10 10 l 1
 10 30 l 1
 0 30 l 1
 0 90 l 1
 10 90 l 1
 10 110 l 1
 30 110 l 1
 30 120 l 1
 80 120 l 1
 80 110 l 1
 90 110 l 1
 90 120 l 1
 100 120 l 1
EndSplineSet
EndChar

StartChar: Pbold
Encoding: 119823 119823 167
Width: 110
GlyphClass: 1
Flags: W
LayerCount: 2
Fore
SplineSet
0 110 m 1
 0 120 l 1
 80 120 l 1
 80 110 l 1
 90 110 l 1
 90 100 l 1
 100 100 l 1
 100 70 l 1
 90 70 l 1
 90 60 l 1
 80 60 l 1
 80 50 l 1
 40 50 l 1
 40 10 l 1
 50 10 l 1
 50 0 l 1
 0 0 l 1
 0 10 l 1
 10 10 l 1
 10 110 l 1
 0 110 l 1
40 60 m 1
 60 60 l 1
 60 70 l 1
 70 70 l 1
 70 100 l 1
 60 100 l 1
 60 110 l 1
 40 110 l 1
 40 60 l 1
EndSplineSet
EndChar

StartChar: HexA
Encoding: 57345 57345 168
Width: 110
GlyphClass: 1
Flags: W
LayerCount: 2
Fore
SplineSet
0 10 m 1
 10 10 l 1
 10 40 l 1
 20 40 l 1
 20 70 l 1
 30 70 l 1
 30 100 l 1
 40 100 l 1
 40 120 l 1
 60 120 l 1
 60 100 l 1
 70 100 l 1
 70 70 l 1
 80 70 l 1
 80 40 l 1
 90 40 l 1
 90 10 l 1
 100 10 l 1
 100 0 l 1
 40 0 l 1
 40 10 l 1
 50 10 l 1
 50 40 l 1
 20 40 l 1
 20 10 l 1
 30 10 l 1
 30 0 l 1
 0 0 l 1
 0 10 l 1
30 70 m 1
 30 50 l 1
 40 50 l 1
 40 70 l 1
 30 70 l 1
EndSplineSet
EndChar

StartChar: HexB
Encoding: 57346 57346 169
Width: 110
GlyphClass: 1
Flags: W
LayerCount: 2
Fore
SplineSet
0 110 m 1
 0 120 l 1
 80 120 l 1
 80 110 l 1
 90 110 l 1
 90 100 l 1
 100 100 l 1
 100 80 l 1
 90 80 l 1
 90 50 l 1
 100 50 l 1
 100 20 l 1
 90 20 l 1
 90 10 l 1
 80 10 l 1
 80 0 l 1
 0 0 l 1
 0 10 l 1
 10 10 l 1
 10 110 l 1
 0 110 l 1
50 110 m 1
 50 70 l 1
 60 70 l 1
 60 80 l 1
 70 80 l 1
 70 100 l 1
 60 100 l 1
 60 110 l 1
 50 110 l 1
60 60 m 1
 50 60 l 1
 50 10 l 1
 60 10 l 1
 60 20 l 1
 70 20 l 1
 70 50 l 1
 60 50 l 1
 60 60 l 1
EndSplineSet
EndChar

StartChar: HexC-nCr
Encoding: 57347 57347 170
Width: 110
GlyphClass: 1
Flags: W
LayerCount: 2
Fore
SplineSet
100 120 m 1
 100 80 l 1
 90 80 l 1
 90 90 l 1
 70 90 l 1
 70 100 l 1
 60 100 l 1
 60 90 l 1
 50 90 l 1
 50 80 l 1
 40 80 l 1
 40 30 l 1
 50 30 l 1
 50 20 l 1
 60 20 l 1
 60 10 l 1
 80 10 l 1
 80 20 l 1
 90 20 l 1
 90 30 l 1
 100 30 l 1
 100 10 l 1
 90 10 l 1
 90 0 l 1
 30 0 l 1
 30 10 l 1
 10 10 l 1
 10 30 l 1
 0 30 l 1
 0 90 l 1
 10 90 l 1
 10 110 l 1
 30 110 l 1
 30 120 l 1
 80 120 l 1
 80 110 l 1
 90 110 l 1
 90 120 l 1
 100 120 l 1
EndSplineSet
EndChar

StartChar: HexD
Encoding: 57348 57348 171
Width: 110
GlyphClass: 1
Flags: W
LayerCount: 2
Fore
SplineSet
0 0 m 1
 0 10 l 1
 10 10 l 1
 10 110 l 1
 0 110 l 1
 0 120 l 1
 70 120 l 1
 70 110 l 1
 90 110 l 1
 90 90 l 1
 100 90 l 1
 100 20 l 1
 90 20 l 1
 90 10 l 1
 70 10 l 1
 70 0 l 1
 0 0 l 1
60 10 m 1
 60 30 l 1
 70 30 l 1
 70 90 l 1
 60 90 l 1
 60 110 l 1
 50 110 l 1
 50 10 l 1
 60 10 l 1
EndSplineSet
EndChar

StartChar: HexE
Encoding: 57349 57349 172
Width: 110
GlyphClass: 1
Flags: W
LayerCount: 2
Fore
SplineSet
0 0 m 1
 0 10 l 1
 10 10 l 1
 10 110 l 1
 0 110 l 1
 0 120 l 1
 100 120 l 1
 100 90 l 1
 90 90 l 1
 90 100 l 1
 80 100 l 1
 80 110 l 1
 50 110 l 1
 50 70 l 1
 70 70 l 1
 70 90 l 1
 80 90 l 1
 80 40 l 1
 70 40 l 1
 70 60 l 1
 50 60 l 1
 50 10 l 1
 80 10 l 1
 80 20 l 1
 90 20 l 1
 90 30 l 1
 100 30 l 1
 100 0 l 1
 0 0 l 1
EndSplineSet
EndChar

StartChar: HexF
Encoding: 57350 57350 173
Width: 110
GlyphClass: 1
Flags: W
LayerCount: 2
Fore
SplineSet
60 10 m 1
 60 0 l 1
 0 0 l 1
 0 10 l 1
 10 10 l 1
 10 110 l 1
 0 110 l 1
 0 120 l 1
 100 120 l 1
 100 90 l 1
 90 90 l 1
 90 100 l 1
 80 100 l 1
 80 110 l 1
 50 110 l 1
 50 70 l 1
 70 70 l 1
 70 90 l 1
 80 90 l 1
 80 40 l 1
 70 40 l 1
 70 60 l 1
 50 60 l 1
 50 10 l 1
 60 10 l 1
EndSplineSet
EndChar

StartChar: nPr
Encoding: 57351 57351 174
Width: 110
GlyphClass: 1
Flags: W
LayerCount: 2
Fore
SplineSet
10 110 m 1
 0 110 l 1
 0 120 l 1
 80 120 l 1
 80 110 l 1
 90 110 l 1
 90 100 l 1
 100 100 l 1
 100 60 l 1
 90 60 l 1
 90 50 l 1
 80 50 l 1
 80 40 l 1
 50 40 l 1
 50 10 l 1
 60 10 l 1
 60 0 l 1
 0 0 l 1
 0 10 l 1
 10 10 l 1
 10 110 l 1
50 50 m 1
 60 50 l 1
 60 60 l 1
 70 60 l 1
 70 100 l 1
 60 100 l 1
 60 110 l 1
 50 110 l 1
 50 50 l 1
EndSplineSet
EndChar

StartChar: x.bar
Encoding: 57352 57352 175
Width: 110
GlyphClass: 1
Flags: W
LayerCount: 2
Fore
SplineSet
20 110 m 1
 20 120 l 1
 110 120 l 1
 110 110 l 1
 20 110 l 1
90 60 m 1
 80 60 l 1
 80 70 l 1
 90 70 l 1
 90 80 l 1
 80 80 l 1
 80 90 l 1
 110 90 l 1
 110 80 l 1
 100 80 l 1
 100 70 l 1
 90 70 l 1
 90 60 l 1
30 80 m 1
 20 80 l 1
 20 90 l 1
 60 90 l 1
 60 80 l 1
 50 80 l 1
 50 70 l 1
 60 70 l 1
 60 60 l 1
 80 60 l 1
 80 40 l 1
 90 40 l 1
 90 20 l 1
 100 20 l 1
 100 10 l 1
 110 10 l 1
 110 0 l 1
 70 0 l 1
 70 10 l 1
 80 10 l 1
 80 20 l 1
 70 20 l 1
 70 30 l 1
 50 30 l 1
 50 20 l 1
 40 20 l 1
 40 10 l 1
 50 10 l 1
 50 0 l 1
 20 0 l 1
 20 10 l 1
 30 10 l 1
 30 20 l 1
 40 20 l 1
 40 30 l 1
 50 30 l 1
 50 50 l 1
 40 50 l 1
 40 70 l 1
 30 70 l 1
 30 80 l 1
EndSplineSet
EndChar

StartChar: y.bar
Encoding: 57354 57354 176
Width: 110
GlyphClass: 1
Flags: W
LayerCount: 2
Fore
SplineSet
110 110 m 1
 20 110 l 1
 20 120 l 1
 110 120 l 1
 110 110 l 1
30 0 m 1
 20 0 l 1
 20 10 l 1
 40 10 l 1
 40 0 l 1
 50 0 l 1
 50 10 l 1
 60 10 l 1
 60 20 l 1
 50 20 l 1
 50 40 l 1
 40 40 l 1
 40 60 l 1
 30 60 l 1
 30 80 l 1
 20 80 l 1
 20 90 l 1
 60 90 l 1
 60 80 l 1
 50 80 l 1
 50 70 l 1
 60 70 l 1
 60 50 l 1
 70 50 l 1
 70 40 l 1
 80 40 l 1
 80 20 l 1
 70 20 l 1
 70 0 l 1
 60 0 l 1
 60 -10 l 1
 30 -10 l 1
 30 0 l 1
90 40 m 1
 80 40 l 1
 80 60 l 1
 90 60 l 1
 90 80 l 1
 80 80 l 1
 80 90 l 1
 110 90 l 1
 110 80 l 1
 100 80 l 1
 100 60 l 1
 90 60 l 1
 90 40 l 1
EndSplineSet
EndChar

StartChar: x.hat
Encoding: 57353 57353 177
Width: 110
GlyphClass: 1
Flags: W
LayerCount: 2
Fore
SplineSet
30 90 m 1
 30 100 l 1
 40 100 l 1
 40 110 l 1
 50 110 l 1
 50 120 l 1
 70 120 l 1
 70 110 l 1
 80 110 l 1
 80 100 l 1
 90 100 l 1
 90 90 l 1
 70 90 l 1
 70 100 l 1
 50 100 l 1
 50 90 l 1
 30 90 l 1
90 50 m 1
 80 50 l 1
 80 60 l 1
 90 60 l 1
 90 70 l 1
 80 70 l 1
 80 80 l 1
 110 80 l 1
 110 70 l 1
 100 70 l 1
 100 60 l 1
 90 60 l 1
 90 50 l 1
20 0 m 1
 20 10 l 1
 30 10 l 1
 30 20 l 1
 40 20 l 1
 40 30 l 1
 50 30 l 1
 50 50 l 1
 40 50 l 1
 40 60 l 1
 30 60 l 1
 30 70 l 1
 20 70 l 1
 20 80 l 1
 60 80 l 1
 60 70 l 1
 50 70 l 1
 50 60 l 1
 60 60 l 1
 60 50 l 1
 80 50 l 1
 80 30 l 1
 90 30 l 1
 90 20 l 1
 100 20 l 1
 100 10 l 1
 110 10 l 1
 110 0 l 1
 70 0 l 1
 70 10 l 1
 80 10 l 1
 80 20 l 1
 70 20 l 1
 70 30 l 1
 50 30 l 1
 50 20 l 1
 40 20 l 1
 40 10 l 1
 50 10 l 1
 50 0 l 1
 20 0 l 1
EndSplineSet
EndChar

StartChar: y.hat
Encoding: 57355 57355 178
Width: 110
GlyphClass: 1
Flags: W
LayerCount: 2
Fore
SplineSet
30 90 m 1
 30 100 l 1
 40 100 l 1
 40 110 l 1
 50 110 l 1
 50 120 l 1
 70 120 l 1
 70 110 l 1
 80 110 l 1
 80 100 l 1
 90 100 l 1
 90 90 l 1
 70 90 l 1
 70 100 l 1
 50 100 l 1
 50 90 l 1
 30 90 l 1
20 80 m 1
 60 80 l 1
 60 70 l 1
 50 70 l 1
 50 60 l 1
 60 60 l 1
 60 40 l 1
 70 40 l 1
 70 30 l 1
 80 30 l 1
 80 20 l 1
 70 20 l 1
 70 0 l 1
 60 0 l 1
 60 -10 l 1
 30 -10 l 1
 30 0 l 1
 20 0 l 1
 20 10 l 1
 40 10 l 1
 40 0 l 1
 50 0 l 1
 50 10 l 1
 60 10 l 1
 60 20 l 1
 49 20 l 1
 49 40 l 1
 40 40 l 1
 40 60 l 1
 30 60 l 1
 30 70 l 1
 20 70 l 1
 20 80 l 1
90 30 m 1
 80 30 l 1
 80 50 l 1
 90 50 l 1
 90 70 l 1
 80 70 l 1
 80 80 l 1
 110 80 l 1
 110 70 l 1
 100 70 l 1
 100 50 l 1
 90 50 l 1
 90 30 l 1
EndSplineSet
EndChar

StartChar: EE
Encoding: 57357 57357 179
Width: 110
GlyphClass: 1
Flags: W
LayerCount: 2
Fore
SplineSet
60 10 m 1
 60 50 l 1
 70 50 l 1
 70 60 l 1
 100 60 l 1
 100 50 l 1
 110 50 l 1
 110 10 l 1
 100 10 l 1
 100 0 l 1
 70 0 l 1
 70 10 l 1
 60 10 l 1
20 60 m 1
 40 60 l 1
 40 0 l 1
 20 0 l 1
 20 60 l 1
80 50 m 1
 80 10 l 1
 90 10 l 1
 90 50 l 1
 80 50 l 1
EndSplineSet
EndChar

StartChar: EE-
Encoding: 57359 57359 180
Width: 110
GlyphClass: 1
Flags: W
LayerCount: 2
Fore
SplineSet
50 80 m 1
 50 100 l 1
 100 100 l 1
 100 80 l 1
 50 80 l 1
30 10 m 1
 30 50 l 1
 40 50 l 1
 40 60 l 1
 70 60 l 1
 70 50 l 1
 80 50 l 1
 80 10 l 1
 70 10 l 1
 70 0 l 1
 40 0 l 1
 40 10 l 1
 30 10 l 1
0 60 m 1
 20 60 l 1
 20 0 l 1
 0 0 l 1
 0 60 l 1
50 50 m 1
 50 10 l 1
 60 10 l 1
 60 50 l 1
 50 50 l 1
EndSplineSet
EndChar

StartChar: four.superior
Encoding: 8308 8308 181
Width: 110
GlyphClass: 1
Flags: W
LayerCount: 2
Fore
SplineSet
20 70 m 1
 20 80 l 1
 30 80 l 1
 30 90 l 1
 40 90 l 1
 40 100 l 1
 50 100 l 1
 50 110 l 1
 60 110 l 1
 60 120 l 1
 80 120 l 1
 80 80 l 1
 90 80 l 1
 90 70 l 1
 80 70 l 1
 80 60 l 1
 90 60 l 1
 90 50 l 1
 50 50 l 1
 50 60 l 1
 60 60 l 1
 60 70 l 1
 20 70 l 1
40 80 m 1
 60 80 l 1
 60 100 l 1
 50 100 l 1
 50 90 l 1
 40 90 l 1
 40 80 l 1
EndSplineSet
EndChar

StartChar: threesuperior
Encoding: 179 179 182
Width: 110
GlyphClass: 1
Flags: W
LayerCount: 2
Fore
SplineSet
20 110 m 5
 30 110 l 5
 30 120 l 5
 80 120 l 5
 80 110 l 5
 90 110 l 5
 90 90 l 5
 80 90 l 5
 80 80 l 5
 90 80 l 5
 90 60 l 5
 80 60 l 5
 80 50 l 5
 30 50 l 5
 30 60 l 5
 20 60 l 5
 20 70 l 5
 40 70 l 5
 40 60 l 5
 70 60 l 5
 70 80 l 5
 40 80 l 5
 40 90 l 5
 70 90 l 5
 70 110 l 5
 40 110 l 5
 40 100 l 5
 20 100 l 5
 20 110 l 5
EndSplineSet
EndChar

StartChar: onesuperior
Encoding: 185 185 183
Width: 110
GlyphClass: 1
Flags: W
LayerCount: 2
Fore
SplineSet
60 50 m 5
 60 60 l 5
 70 60 l 5
 70 100 l 5
 60 100 l 5
 60 110 l 5
 70 110 l 5
 70 120 l 5
 90 120 l 5
 90 60 l 5
 100 60 l 5
 100 50 l 5
 60 50 l 5
EndSplineSet
EndChar

StartChar: zero.superior
Encoding: 8304 8304 184
Width: 110
GlyphClass: 1
Flags: W
LayerCount: 2
Fore
SplineSet
20 110 m 1
 30 110 l 1
 30 120 l 1
 80 120 l 1
 80 110 l 1
 90 110 l 1
 90 60 l 1
 80 60 l 1
 80 50 l 1
 30 50 l 1
 30 60 l 1
 20 60 l 1
 20 110 l 1
40 60 m 1
 70 60 l 1
 70 110 l 1
 40 110 l 1
 40 60 l 1
EndSplineSet
EndChar

StartChar: three.inferior
Encoding: 8323 8323 185
Width: 110
GlyphClass: 1
Flags: W
LayerCount: 2
Fore
SplineSet
20 0 m 1
 20 10 l 1
 40 10 l 1
 40 0 l 1
 70 0 l 1
 70 20 l 1
 40 20 l 1
 40 30 l 1
 70 30 l 1
 70 50 l 1
 40 50 l 1
 40 40 l 1
 20 40 l 1
 20 50 l 1
 30 50 l 1
 30 60 l 1
 80 60 l 1
 80 50 l 1
 90 50 l 1
 90 30 l 1
 80 30 l 1
 80 20 l 1
 90 20 l 1
 90 0 l 1
 80 0 l 1
 80 -10 l 1
 30 -10 l 1
 30 0 l 1
 20 0 l 1
EndSplineSet
EndChar

StartChar: four.inferior
Encoding: 8324 8324 186
Width: 110
GlyphClass: 1
Flags: W
LayerCount: 2
Fore
SplineSet
20 10 m 5
 20 20 l 5
 30 20 l 5
 30 30 l 5
 40 30 l 5
 40 40 l 5
 50 40 l 5
 50 50 l 5
 60 50 l 5
 60 60 l 5
 80 60 l 5
 80 20 l 5
 90 20 l 5
 90 10 l 5
 80 10 l 5
 80 0 l 5
 90 0 l 5
 90 -10 l 5
 50 -10 l 5
 50 0 l 5
 60 0 l 5
 60 10 l 5
 20 10 l 5
40 20 m 5
 60 20 l 5
 60 40 l 5
 50 40 l 5
 50 30 l 5
 40 30 l 5
 40 20 l 5
EndSplineSet
EndChar

StartChar: six.inferior
Encoding: 8326 8326 187
Width: 110
GlyphClass: 1
Flags: W
LayerCount: 2
Fore
SplineSet
30 0 m 1
 20 0 l 1
 20 50 l 1
 30 50 l 1
 30 60 l 1
 80 60 l 1
 80 50 l 1
 90 50 l 1
 90 40 l 1
 70 40 l 1
 70 50 l 1
 40 50 l 1
 40 30 l 1
 80 30 l 1
 80 20 l 1
 90 20 l 1
 90 0 l 1
 80 0 l 1
 80 -10 l 1
 30 -10 l 1
 30 0 l 1
70 0 m 1
 70 20 l 1
 40 20 l 1
 40 0 l 1
 70 0 l 1
EndSplineSet
EndChar

StartChar: seven.inferior
Encoding: 8327 8327 188
Width: 110
GlyphClass: 1
Flags: W
LayerCount: 2
Fore
SplineSet
20 60 m 1
 90 60 l 1
 90 40 l 1
 80 40 l 1
 80 30 l 1
 70 30 l 1
 70 20 l 1
 60 20 l 1
 60 -10 l 1
 40 -10 l 1
 40 20 l 1
 50 20 l 1
 50 30 l 1
 60 30 l 1
 60 40 l 1
 70 40 l 1
 70 50 l 1
 30 50 l 1
 30 40 l 1
 20 40 l 1
 20 60 l 1
EndSplineSet
EndChar

StartChar: eight.inferior
Encoding: 8328 8328 189
Width: 110
GlyphClass: 1
Flags: W
LayerCount: 2
Fore
SplineSet
30 60 m 1
 80 60 l 1
 80 50 l 1
 90 50 l 1
 90 30 l 1
 80 30 l 1
 80 20 l 1
 90 20 l 1
 90 0 l 1
 80 0 l 1
 80 -10 l 1
 30 -10 l 1
 30 0 l 1
 20 0 l 1
 20 20 l 1
 30 20 l 1
 30 30 l 1
 20 30 l 1
 20 50 l 1
 30 50 l 1
 30 60 l 1
40 50 m 1
 40 30 l 1
 70 30 l 1
 70 50 l 1
 40 50 l 1
40 20 m 1
 40 0 l 1
 70 0 l 1
 70 20 l 1
 40 20 l 1
EndSplineSet
EndChar

StartChar: six.superior
Encoding: 8310 8310 190
Width: 110
GlyphClass: 1
Flags: W
LayerCount: 2
Fore
SplineSet
30 60 m 1
 20 60 l 1
 20 110 l 1
 30 110 l 1
 30 120 l 1
 80 120 l 1
 80 110 l 1
 90 110 l 1
 90 100 l 1
 70 100 l 1
 70 110 l 1
 40 110 l 1
 40 90 l 1
 80 90 l 1
 80 80 l 1
 90 80 l 1
 90 60 l 1
 80 60 l 1
 80 50 l 1
 30 50 l 1
 30 60 l 1
70 60 m 1
 70 80 l 1
 40 80 l 1
 40 60 l 1
 70 60 l 1
EndSplineSet
EndChar

StartChar: seven.superior
Encoding: 8311 8311 191
Width: 110
GlyphClass: 1
Flags: W
LayerCount: 2
Fore
SplineSet
20 120 m 1
 90 120 l 1
 90 100 l 1
 80 100 l 1
 80 90 l 1
 70 90 l 1
 70 80 l 1
 60 80 l 1
 60 50 l 1
 40 50 l 1
 40 80 l 1
 50 80 l 1
 50 90 l 1
 60 90 l 1
 60 100 l 1
 70 100 l 1
 70 110 l 1
 30 110 l 1
 30 100 l 1
 20 100 l 1
 20 120 l 1
EndSplineSet
EndChar

StartChar: eight.superior
Encoding: 8312 8312 192
Width: 110
GlyphClass: 1
Flags: W
LayerCount: 2
Fore
SplineSet
30 120 m 1
 80 120 l 1
 80 110 l 1
 90 110 l 1
 90 90 l 1
 80 90 l 1
 80 80 l 1
 90 80 l 1
 90 60 l 1
 80 60 l 1
 80 50 l 1
 30 50 l 1
 30 60 l 1
 20 60 l 1
 20 80 l 1
 30 80 l 1
 30 90 l 1
 20 90 l 1
 20 110 l 1
 30 110 l 1
 30 120 l 1
40 110 m 1
 40 90 l 1
 70 90 l 1
 70 110 l 1
 40 110 l 1
40 80 m 1
 40 60 l 1
 70 60 l 1
 70 80 l 1
 40 80 l 1
EndSplineSet
EndChar

StartChar: nine.superior
Encoding: 8313 8313 193
Width: 110
GlyphClass: 1
Flags: W
LayerCount: 2
Fore
SplineSet
40 70 m 1
 40 60 l 1
 70 60 l 1
 70 80 l 1
 30 80 l 1
 30 90 l 1
 20 90 l 1
 20 110 l 1
 30 110 l 1
 30 120 l 1
 80 120 l 1
 80 110 l 1
 90 110 l 1
 90 60 l 1
 80 60 l 1
 80 50 l 1
 30 50 l 1
 30 60 l 1
 20 60 l 1
 20 70 l 1
 40 70 l 1
70 90 m 1
 70 110 l 1
 40 110 l 1
 40 90 l 1
 70 90 l 1
EndSplineSet
EndChar

StartChar: rsupmod
Encoding: 691 691 194
Width: 110
GlyphClass: 1
Flags: W
LayerCount: 2
Fore
SplineSet
20 120 m 1
 50 120 l 1
 50 110 l 1
 60 110 l 1
 60 120 l 1
 80 120 l 1
 80 110 l 1
 90 110 l 1
 90 100 l 1
 70 100 l 1
 70 110 l 1
 60 110 l 1
 60 100 l 1
 50 100 l 1
 50 70 l 1
 60 70 l 1
 60 60 l 1
 20 60 l 1
 20 70 l 1
 30 70 l 1
 30 111 l 1
 20 111 l 1
 20 120 l 1
EndSplineSet
EndChar

StartChar: gmod
Encoding: 7501 7501 195
Width: 110
GlyphClass: 1
Flags: W
LayerCount: 2
Fore
SplineSet
90 110 m 1
 80 110 l 1
 80 120 l 1
 90 120 l 1
 90 110 l 1
20 110 m 1
 30 110 l 1
 30 120 l 1
 70 120 l 1
 70 110 l 1
 80 110 l 1
 80 100 l 1
 70 100 l 1
 70 90 l 1
 50 90 l 1
 50 80 l 1
 80 80 l 1
 80 70 l 1
 90 70 l 1
 90 60 l 1
 80 60 l 1
 80 50 l 1
 30 50 l 1
 30 60 l 1
 20 60 l 1
 20 70 l 1
 30 70 l 1
 30 80 l 1
 40 80 l 1
 40 90 l 1
 30 90 l 1
 30 100 l 1
 20 100 l 1
 20 110 l 1
50 110 m 1
 40 110 l 1
 40 100 l 1
 50 100 l 1
 50 110 l 1
40 70 m 1
 40 60 l 1
 60 60 l 1
 60 70 l 1
 40 70 l 1
EndSplineSet
EndChar

StartChar: minus.one.superior
Encoding: 57361 57361 196
Width: 110
GlyphClass: 1
Flags: W
LayerCount: 2
Fore
SplineSet
60 50 m 1
 60 60 l 1
 70 60 l 1
 70 100 l 1
 60 100 l 1
 60 110 l 1
 70 110 l 1
 70 120 l 1
 90 120 l 1
 90 60 l 1
 100 60 l 1
 100 50 l 1
 60 50 l 1
0 80 m 1
 0 90 l 1
 50 90 l 1
 50 80 l 1
 0 80 l 1
EndSplineSet
EndChar

StartChar: trianglerightblack
Encoding: 9654 9654 197
Width: 110
GlyphClass: 1
Flags: W
LayerCount: 2
Fore
SplineSet
40 30 m 1
 40 20 l 1
 20 20 l 1
 20 100 l 1
 40 100 l 1
 40 90 l 1
 60 90 l 1
 60 80 l 1
 80 80 l 1
 80 70 l 1
 100 70 l 1
 100 50 l 1
 80 50 l 1
 80 40 l 1
 60 40 l 1
 60 30 l 1
 40 30 l 1
EndSplineSet
Substitution2: "Single Substitution lookup 8 subtable" to
Substitution2: "'ss01' Style Set 1 lookup 6 subtable" to
Substitution2: "'aalt' Access All Alternates lookup 0 subtable" to
EndChar

StartChar: triangleleftblack
Encoding: 9664 9664 198
Width: 110
GlyphClass: 1
Flags: W
LayerCount: 2
Fore
SplineSet
80 30 m 1
 60 30 l 1
 60 40 l 1
 40 40 l 1
 40 50 l 1
 20 50 l 1
 20 70 l 1
 40 70 l 1
 40 80 l 1
 60 80 l 1
 60 90 l 1
 80 90 l 1
 80 100 l 1
 100 100 l 1
 100 20 l 1
 80 20 l 1
 80 30 l 1
EndSplineSet
EndChar

StartChar: quotesingle
Encoding: 39 39 199
Width: 110
GlyphClass: 1
Flags: W
LayerCount: 2
Fore
SplineSet
60 90 m 1
 60 120 l 1
 90 120 l 1
 90 80 l 1
 80 80 l 1
 80 70 l 1
 60 70 l 1
 60 80 l 1
 70 80 l 1
 70 90 l 1
 60 90 l 1
EndSplineSet
EndChar

StartChar: triangleleftwhite
Encoding: 9665 9665 200
Width: 110
GlyphClass: 1
Flags: W
LayerCount: 2
Fore
SplineSet
80 30 m 1
 60 30 l 1
 60 40 l 1
 40 40 l 1
 40 50 l 1
 20 50 l 1
 20 70 l 1
 40 70 l 1
 40 80 l 1
 60 80 l 1
 60 90 l 1
 80 90 l 1
 80 100 l 1
 100 100 l 1
 100 20 l 1
 80 20 l 1
 80 30 l 1
60 70 m 1
 40 70 l 1
 40 50 l 1
 60 50 l 1
 60 40 l 1
 80 40 l 1
 80 30 l 1
 90 30 l 1
 90 90 l 1
 80 90 l 1
 80 80 l 1
 60 80 l 1
 60 70 l 1
EndSplineSet
EndChar

StartChar: litre
Encoding: 8467 8467 201
Width: 110
GlyphClass: 1
Flags: W
LayerCount: 2
Fore
SplineSet
50 0 m 1
 20 0 l 1
 20 10 l 1
 40 10 l 1
 40 20 l 1
 50 20 l 1
 50 30 l 1
 40 30 l 1
 40 60 l 1
 50 60 l 1
 50 90 l 1
 60 90 l 1
 60 110 l 1
 70 110 l 1
 70 120 l 1
 90 120 l 1
 90 110 l 1
 100 110 l 1
 100 90 l 1
 90 90 l 1
 90 60 l 1
 80 60 l 1
 80 30 l 1
 70 30 l 1
 70 10 l 1
 80 10 l 1
 80 20 l 1
 100 20 l 1
 100 10 l 1
 90 10 l 1
 90 0 l 1
 70 0 l 1
 70 10 l 1
 50 10 l 1
 50 0 l 1
50 60 m 1
 50 30 l 1
 60 30 l 1
 60 60 l 1
 70 60 l 1
 70 90 l 1
 80 90 l 1
 80 110 l 1
 70 110 l 1
 70 90 l 1
 60 90 l 1
 60 60 l 1
 50 60 l 1
EndSplineSet
EndChar

StartChar: titalic
Encoding: 119905 119905 202
Width: 110
GlyphClass: 1
Flags: W
LayerCount: 2
Fore
SplineSet
50 40 m 1
 50 70 l 1
 60 70 l 1
 60 80 l 1
 40 80 l 1
 40 90 l 1
 60 90 l 1
 60 100 l 1
 70 100 l 1
 70 110 l 1
 90 110 l 1
 90 100 l 1
 80 100 l 1
 80 90 l 1
 110 90 l 1
 110 80 l 1
 80 80 l 1
 80 70 l 1
 70 70 l 1
 70 40 l 1
 60 40 l 1
 60 10 l 1
 70 10 l 1
 70 20 l 1
 80 20 l 1
 80 30 l 1
 100 30 l 1
 100 20 l 1
 90 20 l 1
 90 10 l 1
 80 10 l 1
 80 0 l 1
 50 0 l 1
 50 10 l 1
 40 10 l 1
 40 40 l 1
 50 40 l 1
EndSplineSet
EndChar

StartChar: uni5168
Encoding: 20840 20840 203
Width: 120
GlyphClass: 1
Flags: W
LayerCount: 2
Fore
SplineSet
20 70 m 1
 0 70 l 1
 0 80 l 1
 20 80 l 1
 20 90 l 1
 30 90 l 1
 30 100 l 1
 40 100 l 1
 40 110 l 1
 50 110 l 1
 50 120 l 1
 60 120 l 1
 60 110 l 1
 70 110 l 1
 70 100 l 1
 80 100 l 1
 80 90 l 1
 90 90 l 1
 90 80 l 1
 110 80 l 1
 110 70 l 1
 90 70 l 1
 90 80 l 1
 80 80 l 1
 80 70 l 1
 60 70 l 1
 60 50 l 1
 90 50 l 1
 90 40 l 1
 60 40 l 1
 60 10 l 1
 100 10 l 1
 100 0 l 1
 10 0 l 1
 10 10 l 1
 50 10 l 1
 50 40 l 1
 20 40 l 1
 20 50 l 1
 50 50 l 1
 50 70 l 1
 30 70 l 1
 30 80 l 1
 20 80 l 1
 20 70 l 1
30 90 m 1
 30 80 l 1
 80 80 l 1
 80 90 l 1
 70 90 l 1
 70 100 l 1
 60 100 l 1
 60 110 l 1
 50 110 l 1
 50 100 l 1
 40 100 l 1
 40 90 l 1
 30 90 l 1
EndSplineSet
EndChar

StartChar: uni90E8
Encoding: 37096 37096 204
Width: 120
GlyphClass: 1
Flags: W
LayerCount: 2
Fore
SplineSet
0 100 m 1
 30 100 l 1
 30 110 l 1
 20 110 l 1
 20 120 l 1
 30 120 l 1
 30 110 l 1
 40 110 l 1
 40 100 l 1
 70 100 l 1
 70 110 l 1
 110 110 l 1
 110 80 l 1
 100 80 l 1
 100 70 l 1
 110 70 l 1
 110 30 l 1
 100 30 l 1
 100 70 l 1
 90 70 l 1
 90 80 l 1
 100 80 l 1
 100 100 l 1
 80 100 l 1
 80 40 l 1
 90 40 l 1
 90 30 l 1
 100 30 l 1
 100 20 l 1
 90 20 l 1
 90 30 l 1
 80 30 l 1
 80 0 l 1
 70 0 l 1
 70 60 l 1
 0 60 l 1
 0 70 l 1
 20 70 l 1
 20 80 l 1
 10 80 l 1
 10 90 l 1
 0 90 l 1
 0 100 l 1
20 80 m 1
 30 80 l 1
 30 70 l 1
 40 70 l 1
 40 80 l 1
 50 80 l 1
 50 90 l 1
 20 90 l 1
 20 80 l 1
50 80 m 1
 50 70 l 1
 70 70 l 1
 70 90 l 1
 60 90 l 1
 60 80 l 1
 50 80 l 1
10 50 m 1
 60 50 l 1
 60 0 l 1
 50 0 l 1
 50 10 l 1
 20 10 l 1
 20 0 l 1
 10 0 l 1
 10 50 l 1
20 40 m 1
 20 20 l 1
 50 20 l 1
 50 40 l 1
 20 40 l 1
EndSplineSet
Substitution2: "'ss01' Style Set 1 lookup 6 subtable" uni90E8_uniFE00
Substitution2: "'aalt' Access All Alternates lookup 0 subtable" uni90E8_uniFE00
EndChar

StartChar: uni521D
Encoding: 21021 21021 205
Width: 120
GlyphClass: 1
Flags: W
LayerCount: 2
Fore
SplineSet
0 90 m 1
 0 100 l 1
 20 100 l 1
 20 110 l 1
 10 110 l 1
 10 120 l 1
 20 120 l 1
 20 110 l 1
 30 110 l 1
 30 100 l 1
 50 100 l 1
 50 110 l 1
 110 110 l 1
 110 10 l 1
 100 10 l 1
 100 100 l 1
 80 100 l 1
 80 40 l 1
 70 40 l 1
 70 20 l 1
 60 20 l 1
 60 10 l 1
 50 10 l 1
 50 0 l 1
 40 0 l 1
 40 10 l 1
 50 10 l 1
 50 20 l 1
 60 20 l 1
 60 40 l 1
 70 40 l 1
 70 100 l 1
 50 100 l 1
 50 90 l 1
 40 90 l 1
 40 80 l 1
 30 80 l 1
 30 60 l 1
 40 60 l 1
 40 50 l 1
 50 50 l 1
 50 40 l 1
 40 40 l 1
 40 50 l 1
 30 50 l 1
 30 0 l 1
 20 0 l 1
 20 60 l 1
 10 60 l 1
 10 50 l 1
 0 50 l 1
 0 60 l 1
 10 60 l 1
 10 70 l 1
 20 70 l 1
 20 80 l 1
 30 80 l 1
 30 90 l 1
 0 90 l 1
50 60 m 1
 40 60 l 1
 40 70 l 1
 50 70 l 1
 50 60 l 1
100 10 m 1
 100 0 l 1
 90 0 l 1
 90 10 l 1
 80 10 l 1
 80 20 l 1
 90 20 l 1
 90 10 l 1
 100 10 l 1
EndSplineSet
Substitution2: "'ss01' Style Set 1 lookup 6 subtable" uni521D_uniFE00
Substitution2: "'aalt' Access All Alternates lookup 0 subtable" uni521D_uniFE00
EndChar

StartChar: uni59CB
Encoding: 22987 22987 206
Width: 120
GlyphClass: 1
Flags: W
LayerCount: 2
Fore
SplineSet
10 80 m 1
 0 80 l 1
 0 90 l 1
 10 90 l 1
 10 120 l 1
 20 120 l 1
 20 90 l 1
 40 90 l 1
 40 30 l 1
 30 30 l 1
 30 80 l 1
 20 80 l 1
 20 60 l 1
 10 60 l 1
 10 40 l 1
 20 40 l 1
 20 30 l 1
 30 30 l 1
 30 20 l 1
 40 20 l 1
 40 10 l 1
 30 10 l 1
 30 20 l 1
 20 20 l 1
 20 10 l 1
 10 10 l 1
 10 0 l 1
 0 0 l 1
 0 10 l 1
 10 10 l 1
 10 20 l 1
 20 20 l 1
 20 30 l 1
 10 30 l 1
 10 40 l 1
 0 40 l 1
 0 60 l 1
 10 60 l 1
 10 80 l 1
110 70 m 1
 50 70 l 1
 50 90 l 1
 60 90 l 1
 60 100 l 1
 70 100 l 1
 70 120 l 1
 80 120 l 1
 80 100 l 1
 70 100 l 1
 70 90 l 1
 60 90 l 1
 60 80 l 1
 100 80 l 1
 100 90 l 1
 90 90 l 1
 90 100 l 1
 100 100 l 1
 100 90 l 1
 110 90 l 1
 110 70 l 1
60 0 m 1
 50 0 l 1
 50 60 l 1
 110 60 l 1
 110 0 l 1
 100 0 l 1
 100 10 l 1
 60 10 l 1
 60 0 l 1
60 20 m 1
 100 20 l 1
 100 50 l 1
 60 50 l 1
 60 20 l 1
EndSplineSet
Substitution2: "'ss01' Style Set 1 lookup 6 subtable" uni59CB_uniFE00
Substitution2: "'aalt' Access All Alternates lookup 0 subtable" uni59CB_uniFE00
EndChar

StartChar: uni5316
Encoding: 21270 21270 207
Width: 120
GlyphClass: 1
Flags: W
LayerCount: 2
Fore
SplineSet
0 70 m 1
 10 70 l 1
 10 80 l 1
 20 80 l 1
 20 100 l 1
 30 100 l 1
 30 120 l 1
 40 120 l 1
 40 100 l 1
 30 100 l 1
 30 50 l 1
 50 50 l 1
 50 60 l 1
 60 60 l 1
 60 120 l 1
 70 120 l 1
 70 70 l 1
 80 70 l 1
 80 60 l 1
 70 60 l 1
 70 10 l 1
 100 10 l 1
 100 40 l 1
 110 40 l 1
 110 0 l 1
 70 0 l 1
 70 10 l 1
 60 10 l 1
 60 50 l 1
 50 50 l 1
 50 40 l 1
 30 40 l 1
 30 0 l 1
 20 0 l 1
 20 70 l 1
 10 70 l 1
 10 60 l 1
 0 60 l 1
 0 70 l 1
90 70 m 1
 80 70 l 1
 80 80 l 1
 90 80 l 1
 90 90 l 1
 100 90 l 1
 100 100 l 1
 110 100 l 1
 110 90 l 1
 100 90 l 1
 100 80 l 1
 90 80 l 1
 90 70 l 1
EndSplineSet
Substitution2: "'ss01' Style Set 1 lookup 6 subtable" uni5316_uniFE00
Substitution2: "'aalt' Access All Alternates lookup 0 subtable" uni5316_uniFE00
EndChar

StartChar: uni5B58
Encoding: 23384 23384 208
Width: 120
GlyphClass: 1
Flags: W
LayerCount: 2
Fore
SplineSet
0 50 m 1
 10 50 l 1
 10 60 l 1
 20 60 l 1
 20 70 l 1
 30 70 l 1
 30 90 l 1
 40 90 l 1
 40 100 l 1
 0 100 l 1
 0 110 l 1
 40 110 l 1
 40 120 l 1
 50 120 l 1
 50 110 l 1
 110 110 l 1
 110 100 l 1
 50 100 l 1
 50 90 l 1
 40 90 l 1
 40 80 l 1
 100 80 l 1
 100 70 l 1
 90 70 l 1
 90 60 l 1
 80 60 l 1
 80 50 l 1
 110 50 l 1
 110 40 l 1
 80 40 l 1
 80 10 l 1
 70 10 l 1
 70 40 l 1
 40 40 l 1
 40 50 l 1
 70 50 l 1
 70 60 l 1
 80 60 l 1
 80 70 l 1
 30 70 l 1
 30 0 l 1
 20 0 l 1
 20 50 l 1
 10 50 l 1
 10 40 l 1
 0 40 l 1
 0 50 l 1
70 10 m 1
 70 0 l 1
 60 0 l 1
 60 10 l 1
 50 10 l 1
 50 20 l 1
 60 20 l 1
 60 10 l 1
 70 10 l 1
EndSplineSet
Substitution2: "'ss01' Style Set 1 lookup 6 subtable" uni5B58_uniFE00
Substitution2: "'aalt' Access All Alternates lookup 0 subtable" uni5B58_uniFE00
EndChar

StartChar: uni50A8
Encoding: 20648 20648 209
Width: 120
GlyphClass: 1
Flags: W
LayerCount: 2
Fore
SplineSet
0 70 m 1
 0 80 l 1
 10 80 l 1
 10 100 l 1
 20 100 l 1
 20 120 l 1
 30 120 l 1
 30 100 l 1
 40 100 l 1
 40 90 l 1
 30 90 l 1
 30 100 l 1
 20 100 l 1
 20 80 l 1
 40 80 l 1
 40 50 l 1
 60 50 l 1
 60 60 l 1
 70 60 l 1
 70 70 l 1
 50 70 l 1
 50 80 l 1
 70 80 l 1
 70 90 l 1
 50 90 l 1
 50 100 l 1
 70 100 l 1
 70 120 l 1
 80 120 l 1
 80 100 l 1
 100 100 l 1
 100 80 l 1
 110 80 l 1
 110 70 l 1
 80 70 l 1
 80 60 l 1
 100 60 l 1
 100 0 l 1
 60 0 l 1
 60 40 l 1
 40 40 l 1
 40 30 l 1
 50 30 l 1
 50 20 l 1
 40 20 l 1
 40 10 l 1
 30 10 l 1
 30 70 l 1
 20 70 l 1
 20 0 l 1
 10 0 l 1
 10 70 l 1
 0 70 l 1
110 100 m 1
 100 100 l 1
 100 110 l 1
 110 110 l 1
 110 100 l 1
80 90 m 1
 80 80 l 1
 90 80 l 1
 90 90 l 1
 80 90 l 1
70 50 m 1
 70 40 l 1
 90 40 l 1
 90 50 l 1
 70 50 l 1
70 30 m 1
 70 10 l 1
 90 10 l 1
 90 30 l 1
 70 30 l 1
EndSplineSet
EndChar

StartChar: uni7F6E
Encoding: 32622 32622 210
Width: 120
GlyphClass: 1
Flags: W
LayerCount: 2
Fore
SplineSet
0 80 m 1
 50 80 l 1
 50 90 l 1
 10 90 l 1
 10 120 l 1
 100 120 l 1
 100 90 l 1
 60 90 l 1
 60 80 l 1
 110 80 l 1
 110 70 l 1
 50 70 l 1
 50 60 l 1
 90 60 l 1
 90 10 l 1
 110 10 l 1
 110 0 l 1
 0 0 l 1
 0 10 l 1
 20 10 l 1
 20 60 l 1
 40 60 l 1
 40 70 l 1
 0 70 l 1
 0 80 l 1
20 100 m 1
 40 100 l 1
 40 110 l 1
 20 110 l 1
 20 100 l 1
90 110 m 1
 70 110 l 1
 70 100 l 1
 90 100 l 1
 90 110 l 1
50 100 m 1
 60 100 l 1
 60 110 l 1
 50 110 l 1
 50 100 l 1
50 10 m 1
 50 20 l 1
 60 20 l 1
 60 10 l 1
 80 10 l 1
 80 20 l 1
 70 20 l 1
 70 30 l 1
 60 30 l 1
 60 40 l 1
 70 40 l 1
 70 30 l 1
 80 30 l 1
 80 50 l 1
 60 50 l 1
 60 40 l 1
 50 40 l 1
 50 50 l 1
 30 50 l 1
 30 40 l 1
 40 40 l 1
 40 30 l 1
 30 30 l 1
 30 10 l 1
 50 10 l 1
50 30 m 1
 50 20 l 1
 40 20 l 1
 40 30 l 1
 50 30 l 1
EndSplineSet
Substitution2: "'ss01' Style Set 1 lookup 6 subtable" uni7F6E_uniFE00
Substitution2: "'aalt' Access All Alternates lookup 0 subtable" uni7F6E_uniFE00
EndChar

StartChar: uni8BBE
Encoding: 35774 35774 211
Width: 120
GlyphClass: 1
Flags: W
LayerCount: 2
Fore
SplineSet
60 30 m 1
 60 40 l 1
 70 40 l 1
 70 30 l 1
 80 30 l 1
 80 40 l 1
 90 40 l 1
 90 60 l 1
 60 60 l 1
 60 40 l 1
 50 40 l 1
 50 70 l 1
 100 70 l 1
 100 80 l 1
 90 80 l 1
 90 110 l 1
 60 110 l 1
 60 80 l 1
 50 80 l 1
 50 70 l 1
 40 70 l 1
 40 80 l 1
 50 80 l 1
 50 120 l 1
 100 120 l 1
 100 80 l 1
 110 80 l 1
 110 70 l 1
 100 70 l 1
 100 40 l 1
 90 40 l 1
 90 30 l 1
 80 30 l 1
 80 20 l 1
 90 20 l 1
 90 10 l 1
 110 10 l 1
 110 0 l 1
 90 0 l 1
 90 10 l 1
 80 10 l 1
 80 20 l 1
 70 20 l 1
 70 10 l 1
 60 10 l 1
 60 20 l 1
 70 20 l 1
 70 30 l 1
 60 30 l 1
10 110 m 1
 10 120 l 1
 20 120 l 1
 20 110 l 1
 30 110 l 1
 30 90 l 1
 20 90 l 1
 20 110 l 1
 10 110 l 1
40 20 m 1
 40 10 l 1
 60 10 l 1
 60 0 l 1
 40 0 l 1
 40 10 l 1
 30 10 l 1
 30 0 l 1
 20 0 l 1
 20 70 l 1
 0 70 l 1
 0 80 l 1
 30 80 l 1
 30 70 l 1
 40 70 l 1
 40 60 l 1
 30 60 l 1
 30 20 l 1
 40 20 l 1
50 20 m 1
 40 20 l 1
 40 30 l 1
 50 30 l 1
 50 20 l 1
EndSplineSet
EndChar

StartChar: uni636E
Encoding: 25454 25454 212
Width: 120
GlyphClass: 1
Flags: W
LayerCount: 2
Fore
SplineSet
20 90 m 1
 0 90 l 1
 0 100 l 1
 20 100 l 1
 20 120 l 1
 30 120 l 1
 30 100 l 1
 40 100 l 1
 40 120 l 1
 100 120 l 1
 100 90 l 1
 80 90 l 1
 80 70 l 1
 110 70 l 1
 110 60 l 1
 80 60 l 1
 80 50 l 1
 100 50 l 1
 100 0 l 1
 90 0 l 1
 90 10 l 1
 60 10 l 1
 60 0 l 1
 50 0 l 1
 50 30 l 1
 40 30 l 1
 40 20 l 1
 30 20 l 1
 30 10 l 1
 20 10 l 1
 20 50 l 1
 0 50 l 1
 0 60 l 1
 20 60 l 1
 20 90 l 1
50 100 m 1
 90 100 l 1
 90 110 l 1
 50 110 l 1
 50 100 l 1
70 90 m 1
 50 90 l 1
 50 70 l 1
 70 70 l 1
 70 90 l 1
40 90 m 1
 30 90 l 1
 30 70 l 1
 40 70 l 1
 40 90 l 1
30 60 m 1
 30 30 l 1
 40 30 l 1
 40 60 l 1
 30 60 l 1
70 60 m 1
 50 60 l 1
 50 50 l 1
 70 50 l 1
 70 60 l 1
90 20 m 1
 90 40 l 1
 60 40 l 1
 60 20 l 1
 90 20 l 1
20 10 m 1
 20 0 l 1
 10 0 l 1
 10 10 l 1
 0 10 l 1
 0 20 l 1
 10 20 l 1
 10 10 l 1
 20 10 l 1
EndSplineSet
EndChar

StartChar: uni4F4D
Encoding: 20301 20301 213
Width: 120
GlyphClass: 1
Flags: W
LayerCount: 2
Fore
SplineSet
0 80 m 1
 10 80 l 1
 10 100 l 1
 20 100 l 1
 20 120 l 1
 30 120 l 1
 30 100 l 1
 60 100 l 1
 60 110 l 1
 50 110 l 1
 50 120 l 1
 60 120 l 1
 60 110 l 1
 70 110 l 1
 70 100 l 1
 100 100 l 1
 100 90 l 1
 30 90 l 1
 30 100 l 1
 20 100 l 1
 20 20 l 1
 70 20 l 1
 70 40 l 1
 80 40 l 1
 80 80 l 1
 90 80 l 1
 90 40 l 1
 80 40 l 1
 80 20 l 1
 110 20 l 1
 110 10 l 1
 20 10 l 1
 20 0 l 1
 10 0 l 1
 10 70 l 1
 0 70 l 1
 0 80 l 1
40 60 m 1
 40 80 l 1
 50 80 l 1
 50 60 l 1
 60 60 l 1
 60 30 l 1
 50 30 l 1
 50 60 l 1
 40 60 l 1
EndSplineSet
Substitution2: "'ss01' Style Set 1 lookup 6 subtable" uni4F4D_uniFE00
Substitution2: "'aalt' Access All Alternates lookup 0 subtable" uni4F4D_uniFE00
EndChar

StartChar: uni590D
Encoding: 22797 22797 214
Width: 120
GlyphClass: 1
Flags: W
LayerCount: 2
Fore
SplineSet
70 30 m 1
 70 20 l 1
 90 20 l 1
 90 10 l 1
 110 10 l 1
 110 0 l 1
 90 0 l 1
 90 10 l 1
 70 10 l 1
 70 20 l 1
 40 20 l 1
 40 10 l 1
 20 10 l 1
 20 0 l 1
 0 0 l 1
 0 10 l 1
 20 10 l 1
 20 20 l 1
 40 20 l 1
 40 30 l 1
 30 30 l 1
 30 40 l 1
 20 40 l 1
 20 30 l 1
 10 30 l 1
 10 40 l 1
 20 40 l 1
 20 50 l 1
 30 50 l 1
 30 60 l 1
 20 60 l 1
 20 90 l 1
 10 90 l 1
 10 80 l 1
 0 80 l 1
 0 90 l 1
 10 90 l 1
 10 100 l 1
 20 100 l 1
 20 110 l 1
 30 110 l 1
 30 120 l 1
 40 120 l 1
 40 110 l 1
 110 110 l 1
 110 100 l 1
 90 100 l 1
 90 60 l 1
 40 60 l 1
 40 50 l 1
 90 50 l 1
 90 40 l 1
 80 40 l 1
 80 30 l 1
 70 30 l 1
 70 40 l 1
 40 40 l 1
 40 30 l 1
 70 30 l 1
80 100 m 1
 30 100 l 1
 30 90 l 1
 80 90 l 1
 80 100 l 1
30 70 m 1
 80 70 l 1
 80 80 l 1
 30 80 l 1
 30 70 l 1
EndSplineSet
EndChar

StartChar: uni8F93
Encoding: 36755 36755 215
Width: 120
GlyphClass: 1
Flags: W
LayerCount: 2
Fore
SplineSet
60 20 m 1
 50 20 l 1
 50 10 l 1
 60 10 l 1
 60 0 l 1
 40 0 l 1
 40 20 l 1
 30 20 l 1
 30 0 l 1
 20 0 l 1
 20 20 l 1
 0 20 l 1
 0 30 l 1
 20 30 l 1
 20 50 l 1
 0 50 l 1
 0 70 l 1
 10 70 l 1
 10 90 l 1
 0 90 l 1
 0 100 l 1
 20 100 l 1
 20 120 l 1
 30 120 l 1
 30 100 l 1
 40 100 l 1
 40 90 l 1
 50 90 l 1
 50 100 l 1
 60 100 l 1
 60 110 l 1
 70 110 l 1
 70 120 l 1
 80 120 l 1
 80 110 l 1
 90 110 l 1
 90 100 l 1
 100 100 l 1
 100 90 l 1
 110 90 l 1
 110 80 l 1
 100 80 l 1
 100 90 l 1
 90 90 l 1
 90 80 l 1
 60 80 l 1
 60 90 l 1
 50 90 l 1
 50 80 l 1
 40 80 l 1
 40 90 l 1
 20 90 l 1
 20 80 l 1
 30 80 l 1
 30 60 l 1
 40 60 l 1
 40 70 l 1
 70 70 l 1
 70 10 l 1
 60 10 l 1
 60 20 l 1
70 100 m 1
 60 100 l 1
 60 90 l 1
 90 90 l 1
 90 100 l 1
 80 100 l 1
 80 110 l 1
 70 110 l 1
 70 100 l 1
20 60 m 1
 20 70 l 1
 10 70 l 1
 10 60 l 1
 20 60 l 1
90 30 m 1
 80 30 l 1
 80 70 l 1
 90 70 l 1
 90 30 l 1
110 10 m 1
 100 10 l 1
 100 70 l 1
 110 70 l 1
 110 10 l 1
60 50 m 1
 60 60 l 1
 50 60 l 1
 50 50 l 1
 60 50 l 1
30 50 m 1
 30 30 l 1
 40 30 l 1
 40 50 l 1
 30 50 l 1
60 30 m 1
 60 40 l 1
 50 40 l 1
 50 30 l 1
 60 30 l 1
100 10 m 1
 100 0 l 1
 90 0 l 1
 90 10 l 1
 80 10 l 1
 80 20 l 1
 90 20 l 1
 90 10 l 1
 100 10 l 1
EndSplineSet
EndChar

StartChar: uni5165
Encoding: 20837 20837 216
Width: 120
GlyphClass: 1
Flags: W
LayerCount: 2
Fore
SplineSet
0 10 m 1
 10 10 l 1
 10 20 l 1
 20 20 l 1
 20 30 l 1
 30 30 l 1
 30 50 l 1
 40 50 l 1
 40 70 l 1
 50 70 l 1
 50 110 l 1
 30 110 l 1
 30 120 l 1
 50 120 l 1
 50 110 l 1
 60 110 l 1
 60 70 l 1
 70 70 l 1
 70 50 l 1
 80 50 l 1
 80 30 l 1
 90 30 l 1
 90 20 l 1
 100 20 l 1
 100 10 l 1
 110 10 l 1
 110 0 l 1
 100 0 l 1
 100 10 l 1
 90 10 l 1
 90 20 l 1
 80 20 l 1
 80 30 l 1
 70 30 l 1
 70 50 l 1
 60 50 l 1
 60 70 l 1
 50 70 l 1
 50 50 l 1
 40 50 l 1
 40 30 l 1
 30 30 l 1
 30 20 l 1
 20 20 l 1
 20 10 l 1
 10 10 l 1
 10 0 l 1
 0 0 l 1
 0 10 l 1
EndSplineSet
Substitution2: "'ss01' Style Set 1 lookup 6 subtable" uni5165_uniFE00
Substitution2: "'aalt' Access All Alternates lookup 0 subtable" uni5165_uniFE00
EndChar

StartChar: uni51FA
Encoding: 20986 20986 217
Width: 120
GlyphClass: 1
Flags: W
LayerCount: 2
Fore
SplineSet
0 50 m 1
 10 50 l 1
 10 20 l 1
 50 20 l 1
 50 70 l 1
 10 70 l 1
 10 110 l 1
 20 110 l 1
 20 80 l 1
 50 80 l 1
 50 120 l 1
 60 120 l 1
 60 80 l 1
 90 80 l 1
 90 110 l 1
 100 110 l 1
 100 60 l 1
 90 60 l 1
 90 70 l 1
 60 70 l 1
 60 20 l 1
 100 20 l 1
 100 50 l 1
 110 50 l 1
 110 0 l 1
 100 0 l 1
 100 10 l 1
 0 10 l 1
 0 50 l 1
EndSplineSet
Substitution2: "'ss01' Style Set 1 lookup 6 subtable" uni51FA_uniFE00
Substitution2: "'aalt' Access All Alternates lookup 0 subtable" uni51FA_uniFE00
EndChar

StartChar: uni89D2
Encoding: 35282 35282 218
Width: 120
GlyphClass: 1
Flags: W
LayerCount: 2
Fore
SplineSet
0 70 m 1
 10 70 l 1
 10 80 l 1
 20 80 l 1
 20 100 l 1
 30 100 l 1
 30 120 l 1
 40 120 l 1
 40 110 l 1
 90 110 l 1
 90 100 l 1
 80 100 l 1
 80 90 l 1
 110 90 l 1
 110 10 l 1
 100 10 l 1
 100 30 l 1
 70 30 l 1
 70 0 l 1
 60 0 l 1
 60 30 l 1
 20 30 l 1
 20 10 l 1
 10 10 l 1
 10 0 l 1
 0 0 l 1
 0 10 l 1
 10 10 l 1
 10 30 l 1
 20 30 l 1
 20 70 l 1
 10 70 l 1
 10 60 l 1
 0 60 l 1
 0 70 l 1
30 90 m 1
 70 90 l 1
 70 100 l 1
 30 100 l 1
 30 90 l 1
70 70 m 1
 100 70 l 1
 100 80 l 1
 70 80 l 1
 70 70 l 1
30 80 m 1
 30 70 l 1
 60 70 l 1
 60 80 l 1
 30 80 l 1
30 40 m 1
 60 40 l 1
 60 60 l 1
 30 60 l 1
 30 40 l 1
70 60 m 1
 70 40 l 1
 100 40 l 1
 100 60 l 1
 70 60 l 1
100 10 m 1
 100 0 l 1
 90 0 l 1
 90 10 l 1
 80 10 l 1
 80 20 l 1
 90 20 l 1
 90 10 l 1
 100 10 l 1
EndSplineSet
Substitution2: "'ss01' Style Set 1 lookup 6 subtable" uni89D2_uniFE00
Substitution2: "'aalt' Access All Alternates lookup 0 subtable" uni89D2_uniFE00
EndChar

StartChar: uni5355
Encoding: 21333 21333 219
Width: 120
GlyphClass: 1
Flags: W
LayerCount: 2
Fore
SplineSet
0 40 m 1
 50 40 l 1
 50 50 l 1
 10 50 l 1
 10 100 l 1
 30 100 l 1
 30 110 l 1
 20 110 l 1
 20 120 l 1
 30 120 l 1
 30 110 l 1
 40 110 l 1
 40 100 l 1
 70 100 l 1
 70 110 l 1
 80 110 l 1
 80 120 l 1
 90 120 l 1
 90 110 l 1
 80 110 l 1
 80 100 l 1
 100 100 l 1
 100 50 l 1
 60 50 l 1
 60 40 l 1
 110 40 l 1
 110 30 l 1
 60 30 l 1
 60 0 l 1
 50 0 l 1
 50 30 l 1
 0 30 l 1
 0 40 l 1
90 90 m 1
 60 90 l 1
 60 80 l 1
 90 80 l 1
 90 90 l 1
20 80 m 1
 50 80 l 1
 50 90 l 1
 20 90 l 1
 20 80 l 1
60 60 m 1
 90 60 l 1
 90 70 l 1
 60 70 l 1
 60 60 l 1
20 60 m 1
 50 60 l 1
 50 70 l 1
 20 70 l 1
 20 60 l 1
EndSplineSet
EndChar

StartChar: uni5EA6
Encoding: 24230 24230 220
Width: 120
GlyphClass: 1
Flags: W
LayerCount: 2
Fore
SplineSet
0 10 m 1
 0 20 l 1
 10 20 l 1
 10 110 l 1
 60 110 l 1
 60 120 l 1
 70 120 l 1
 70 110 l 1
 110 110 l 1
 110 100 l 1
 90 100 l 1
 90 90 l 1
 110 90 l 1
 110 80 l 1
 90 80 l 1
 90 60 l 1
 40 60 l 1
 40 80 l 1
 20 80 l 1
 20 20 l 1
 10 20 l 1
 10 10 l 1
 0 10 l 1
80 100 m 1
 50 100 l 1
 50 90 l 1
 80 90 l 1
 80 100 l 1
40 100 m 1
 20 100 l 1
 20 90 l 1
 40 90 l 1
 40 100 l 1
50 80 m 1
 50 70 l 1
 80 70 l 1
 80 80 l 1
 50 80 l 1
50 0 m 1
 20 0 l 1
 20 10 l 1
 50 10 l 1
 50 30 l 1
 40 30 l 1
 40 40 l 1
 30 40 l 1
 30 50 l 1
 100 50 l 1
 100 40 l 1
 90 40 l 1
 90 30 l 1
 80 30 l 1
 80 10 l 1
 110 10 l 1
 110 0 l 1
 80 0 l 1
 80 10 l 1
 50 10 l 1
 50 0 l 1
50 40 m 1
 50 30 l 1
 60 30 l 1
 60 20 l 1
 70 20 l 1
 70 30 l 1
 80 30 l 1
 80 40 l 1
 50 40 l 1
EndSplineSet
Substitution2: "'ss01' Style Set 1 lookup 6 subtable" uni5EA6_uniFE00
Substitution2: "'aalt' Access All Alternates lookup 0 subtable" uni5EA6_uniFE00
EndChar

StartChar: uni663E
Encoding: 26174 26174 221
Width: 120
GlyphClass: 1
Flags: W
LayerCount: 2
Fore
SplineSet
0 0 m 1
 0 10 l 1
 40 10 l 1
 40 60 l 1
 20 60 l 1
 20 120 l 1
 90 120 l 1
 90 60 l 1
 70 60 l 1
 70 20 l 1
 80 20 l 1
 80 10 l 1
 110 10 l 1
 110 0 l 1
 0 0 l 1
30 110 m 1
 30 100 l 1
 80 100 l 1
 80 110 l 1
 30 110 l 1
80 90 m 1
 30 90 l 1
 30 70 l 1
 80 70 l 1
 80 90 l 1
60 60 m 1
 50 60 l 1
 50 10 l 1
 60 10 l 1
 60 60 l 1
90 20 m 1
 80 20 l 1
 80 30 l 1
 90 30 l 1
 90 50 l 1
 100 50 l 1
 100 30 l 1
 90 30 l 1
 90 20 l 1
10 40 m 1
 10 50 l 1
 20 50 l 1
 20 40 l 1
 30 40 l 1
 30 20 l 1
 20 20 l 1
 20 40 l 1
 10 40 l 1
EndSplineSet
EndChar

StartChar: uni793A
Encoding: 31034 31034 222
Width: 120
GlyphClass: 1
Flags: W
LayerCount: 2
Fore
SplineSet
10 120 m 1
 100 120 l 1
 100 110 l 1
 10 110 l 1
 10 120 l 1
0 80 m 1
 110 80 l 1
 110 70 l 1
 60 70 l 1
 60 10 l 1
 50 10 l 1
 50 70 l 1
 0 70 l 1
 0 80 l 1
90 50 m 1
 80 50 l 1
 80 60 l 1
 90 60 l 1
 90 50 l 1
 100 50 l 1
 100 40 l 1
 110 40 l 1
 110 20 l 1
 100 20 l 1
 100 40 l 1
 90 40 l 1
 90 50 l 1
0 20 m 1
 0 30 l 1
 10 30 l 1
 10 40 l 1
 20 40 l 1
 20 50 l 1
 30 50 l 1
 30 60 l 1
 40 60 l 1
 40 50 l 1
 30 50 l 1
 30 40 l 1
 20 40 l 1
 20 30 l 1
 10 30 l 1
 10 20 l 1
 0 20 l 1
50 10 m 1
 50 0 l 1
 40 0 l 1
 40 10 l 1
 30 10 l 1
 30 20 l 1
 40 20 l 1
 40 10 l 1
 50 10 l 1
EndSplineSet
Substitution2: "'ss01' Style Set 1 lookup 6 subtable" uni793A_uniFE00
Substitution2: "'aalt' Access All Alternates lookup 0 subtable" uni793A_uniFE00
EndChar

StartChar: uni683C
Encoding: 26684 26684 223
Width: 120
GlyphClass: 1
Flags: W
LayerCount: 2
Fore
SplineSet
10 40 m 1
 0 40 l 1
 0 50 l 1
 10 50 l 1
 10 70 l 1
 20 70 l 1
 20 80 l 1
 0 80 l 1
 0 90 l 1
 20 90 l 1
 20 120 l 1
 30 120 l 1
 30 90 l 1
 50 90 l 1
 50 80 l 1
 30 80 l 1
 30 60 l 1
 40 60 l 1
 40 50 l 1
 50 50 l 1
 50 60 l 1
 60 60 l 1
 60 50 l 1
 90 50 l 1
 90 60 l 1
 80 60 l 1
 80 70 l 1
 70 70 l 1
 70 80 l 1
 60 80 l 1
 60 90 l 1
 70 90 l 1
 70 80 l 1
 80 80 l 1
 80 90 l 1
 90 90 l 1
 90 100 l 1
 60 100 l 1
 60 90 l 1
 50 90 l 1
 50 100 l 1
 60 100 l 1
 60 120 l 1
 70 120 l 1
 70 110 l 1
 100 110 l 1
 100 90 l 1
 90 90 l 1
 90 80 l 1
 80 80 l 1
 80 70 l 1
 90 70 l 1
 90 60 l 1
 110 60 l 1
 110 50 l 1
 100 50 l 1
 100 0 l 1
 90 0 l 1
 90 10 l 1
 60 10 l 1
 60 0 l 1
 50 0 l 1
 50 40 l 1
 40 40 l 1
 40 50 l 1
 30 50 l 1
 30 0 l 1
 20 0 l 1
 20 50 l 1
 10 50 l 1
 10 40 l 1
60 60 m 1
 60 70 l 1
 70 70 l 1
 70 60 l 1
 60 60 l 1
90 40 m 1
 60 40 l 1
 60 20 l 1
 90 20 l 1
 90 40 l 1
EndSplineSet
EndChar

StartChar: uni5F0F
Encoding: 24335 24335 224
Width: 120
GlyphClass: 1
Flags: W
LayerCount: 2
Fore
SplineSet
0 100 m 1
 60 100 l 1
 60 120 l 1
 70 120 l 1
 70 100 l 1
 90 100 l 1
 90 110 l 1
 80 110 l 1
 80 120 l 1
 90 120 l 1
 90 110 l 1
 100 110 l 1
 100 100 l 1
 110 100 l 1
 110 90 l 1
 70 90 l 1
 70 50 l 1
 80 50 l 1
 80 30 l 1
 90 30 l 1
 90 20 l 1
 100 20 l 1
 100 40 l 1
 110 40 l 1
 110 0 l 1
 100 0 l 1
 100 10 l 1
 90 10 l 1
 90 20 l 1
 80 20 l 1
 80 30 l 1
 70 30 l 1
 70 20 l 1
 30 20 l 1
 30 10 l 1
 0 10 l 1
 0 20 l 1
 30 20 l 1
 30 60 l 1
 10 60 l 1
 10 70 l 1
 60 70 l 1
 60 90 l 1
 0 90 l 1
 0 100 l 1
70 30 m 1
 70 50 l 1
 60 50 l 1
 60 60 l 1
 40 60 l 1
 40 30 l 1
 70 30 l 1
EndSplineSet
Substitution2: "'ss01' Style Set 1 lookup 6 subtable" uni5F0F_uniFE00
Substitution2: "'aalt' Access All Alternates lookup 0 subtable" uni5F0F_uniFE00
EndChar

StartChar: uni53F7
Encoding: 21495 21495 225
Width: 120
GlyphClass: 1
Flags: W
LayerCount: 2
Fore
SplineSet
20 120 m 1
 90 120 l 1
 90 80 l 1
 20 80 l 1
 20 120 l 1
30 110 m 1
 30 90 l 1
 80 90 l 1
 80 110 l 1
 30 110 l 1
0 70 m 1
 110 70 l 1
 110 60 l 1
 40 60 l 1
 40 50 l 1
 90 50 l 1
 90 20 l 1
 80 20 l 1
 80 10 l 1
 70 10 l 1
 70 20 l 1
 80 20 l 1
 80 40 l 1
 20 40 l 1
 20 50 l 1
 30 50 l 1
 30 60 l 1
 0 60 l 1
 0 70 l 1
70 10 m 1
 70 0 l 1
 60 0 l 1
 60 10 l 1
 50 10 l 1
 50 20 l 1
 60 20 l 1
 60 10 l 1
 70 10 l 1
EndSplineSet
Substitution2: "'ss01' Style Set 1 lookup 6 subtable" uni53F7_uniFE00
Substitution2: "'aalt' Access All Alternates lookup 0 subtable" uni53F7_uniFE00
EndChar

StartChar: uni7B26
Encoding: 31526 31526 226
Width: 120
GlyphClass: 1
Flags: W
LayerCount: 2
Fore
SplineSet
0 80 m 1
 0 90 l 1
 10 90 l 1
 10 100 l 1
 20 100 l 1
 20 120 l 1
 30 120 l 1
 30 110 l 1
 60 110 l 1
 60 100 l 1
 70 100 l 1
 70 120 l 1
 80 120 l 1
 80 110 l 1
 110 110 l 1
 110 100 l 1
 100 100 l 1
 100 90 l 1
 90 90 l 1
 90 70 l 1
 110 70 l 1
 110 60 l 1
 90 60 l 1
 90 10 l 1
 80 10 l 1
 80 60 l 1
 40 60 l 1
 40 70 l 1
 80 70 l 1
 80 90 l 1
 90 90 l 1
 90 100 l 1
 70 100 l 1
 70 90 l 1
 60 90 l 1
 60 80 l 1
 50 80 l 1
 50 90 l 1
 60 90 l 1
 60 100 l 1
 40 100 l 1
 40 80 l 1
 30 80 l 1
 30 0 l 1
 20 0 l 1
 20 50 l 1
 10 50 l 1
 10 40 l 1
 0 40 l 1
 0 50 l 1
 10 50 l 1
 10 60 l 1
 20 60 l 1
 20 80 l 1
 30 80 l 1
 30 100 l 1
 20 100 l 1
 20 90 l 1
 10 90 l 1
 10 80 l 1
 0 80 l 1
40 40 m 1
 40 50 l 1
 50 50 l 1
 50 40 l 1
 60 40 l 1
 60 30 l 1
 50 30 l 1
 50 40 l 1
 40 40 l 1
80 10 m 1
 80 0 l 1
 70 0 l 1
 70 10 l 1
 60 10 l 1
 60 20 l 1
 70 20 l 1
 70 10 l 1
 80 10 l 1
EndSplineSet
EndChar

StartChar: uni7A0B
Encoding: 31243 31243 227
Width: 120
GlyphClass: 1
Flags: W
LayerCount: 2
Fore
SplineSet
10 40 m 1
 0 40 l 1
 0 50 l 1
 10 50 l 1
 10 70 l 1
 20 70 l 1
 20 80 l 1
 0 80 l 1
 0 90 l 1
 20 90 l 1
 20 100 l 1
 0 100 l 1
 0 110 l 1
 20 110 l 1
 20 120 l 1
 40 120 l 1
 40 110 l 1
 30 110 l 1
 30 90 l 1
 40 90 l 1
 40 80 l 1
 30 80 l 1
 30 60 l 1
 40 60 l 1
 40 70 l 1
 110 70 l 1
 110 60 l 1
 80 60 l 1
 80 50 l 1
 100 50 l 1
 100 40 l 1
 80 40 l 1
 80 20 l 1
 110 20 l 1
 110 10 l 1
 40 10 l 1
 40 20 l 1
 70 20 l 1
 70 40 l 1
 50 40 l 1
 50 50 l 1
 70 50 l 1
 70 60 l 1
 40 60 l 1
 40 50 l 1
 30 50 l 1
 30 0 l 1
 20 0 l 1
 20 50 l 1
 10 50 l 1
 10 40 l 1
50 80 m 1
 50 120 l 1
 100 120 l 1
 100 80 l 1
 50 80 l 1
60 90 m 1
 90 90 l 1
 90 110 l 1
 60 110 l 1
 60 90 l 1
EndSplineSet
Substitution2: "'ss01' Style Set 1 lookup 6 subtable" uni7A0B_uniFE00
Substitution2: "'aalt' Access All Alternates lookup 0 subtable" uni7A0B_uniFE00
EndChar

StartChar: uni5DE5
Encoding: 24037 24037 228
Width: 120
GlyphClass: 1
Flags: W
LayerCount: 2
Fore
SplineSet
0 0 m 1
 0 10 l 1
 50 10 l 1
 50 100 l 1
 10 100 l 1
 10 110 l 1
 100 110 l 1
 100 100 l 1
 60 100 l 1
 60 10 l 1
 110 10 l 1
 110 0 l 1
 0 0 l 1
EndSplineSet
EndChar

StartChar: uni6027
Encoding: 24615 24615 229
Width: 120
GlyphClass: 1
Flags: W
LayerCount: 2
Fore
SplineSet
30 0 m 1
 20 0 l 1
 20 120 l 1
 30 120 l 1
 30 80 l 1
 40 80 l 1
 40 110 l 1
 50 110 l 1
 50 90 l 1
 70 90 l 1
 70 120 l 1
 80 120 l 1
 80 90 l 1
 110 90 l 1
 110 80 l 1
 80 80 l 1
 80 60 l 1
 100 60 l 1
 100 50 l 1
 80 50 l 1
 80 20 l 1
 110 20 l 1
 110 10 l 1
 40 10 l 1
 40 20 l 1
 70 20 l 1
 70 50 l 1
 50 50 l 1
 50 60 l 1
 70 60 l 1
 70 80 l 1
 40 80 l 1
 40 70 l 1
 30 70 l 1
 30 0 l 1
0 60 m 1
 0 90 l 1
 10 90 l 1
 10 60 l 1
 0 60 l 1
EndSplineSet
EndChar

StartChar: uni7EBF
Encoding: 32447 32447 230
Width: 120
GlyphClass: 1
Flags: W
LayerCount: 2
Fore
SplineSet
70 40 m 1
 40 40 l 1
 40 50 l 1
 30 50 l 1
 30 40 l 1
 0 40 l 1
 0 60 l 1
 10 60 l 1
 10 70 l 1
 0 70 l 1
 0 90 l 1
 10 90 l 1
 10 100 l 1
 20 100 l 1
 20 120 l 1
 30 120 l 1
 30 100 l 1
 40 100 l 1
 40 80 l 1
 60 80 l 1
 60 120 l 1
 70 120 l 1
 70 90 l 1
 90 90 l 1
 90 80 l 1
 70 80 l 1
 70 60 l 1
 90 60 l 1
 90 50 l 1
 100 50 l 1
 100 40 l 1
 90 40 l 1
 90 50 l 1
 70 50 l 1
 70 40 l 1
 90 40 l 1
 90 30 l 1
 80 30 l 1
 80 20 l 1
 90 20 l 1
 90 10 l 1
 100 10 l 1
 100 30 l 1
 110 30 l 1
 110 0 l 1
 90 0 l 1
 90 10 l 1
 80 10 l 1
 80 20 l 1
 70 20 l 1
 70 10 l 1
 50 10 l 1
 50 0 l 1
 30 0 l 1
 30 10 l 1
 50 10 l 1
 50 20 l 1
 70 20 l 1
 70 40 l 1
100 90 m 1
 90 90 l 1
 90 110 l 1
 80 110 l 1
 80 120 l 1
 90 120 l 1
 90 110 l 1
 100 110 l 1
 100 90 l 1
10 80 m 1
 30 80 l 1
 30 70 l 1
 20 70 l 1
 20 60 l 1
 10 60 l 1
 10 50 l 1
 30 50 l 1
 30 60 l 1
 40 60 l 1
 40 50 l 1
 60 50 l 1
 60 70 l 1
 40 70 l 1
 40 80 l 1
 30 80 l 1
 30 100 l 1
 20 100 l 1
 20 90 l 1
 10 90 l 1
 10 80 l 1
110 60 m 1
 90 60 l 1
 90 70 l 1
 110 70 l 1
 110 60 l 1
0 10 m 1
 0 20 l 1
 20 20 l 1
 20 30 l 1
 40 30 l 1
 40 20 l 1
 20 20 l 1
 20 10 l 1
 0 10 l 1
EndSplineSet
EndChar

StartChar: uni5B66
Encoding: 23398 23398 231
Width: 120
GlyphClass: 1
Flags: W
LayerCount: 2
Fore
SplineSet
10 70 m 1
 0 70 l 1
 0 100 l 1
 20 100 l 1
 20 110 l 1
 10 110 l 1
 10 120 l 1
 20 120 l 1
 20 110 l 1
 30 110 l 1
 30 100 l 1
 50 100 l 1
 50 110 l 1
 40 110 l 1
 40 120 l 1
 50 120 l 1
 50 110 l 1
 60 110 l 1
 60 100 l 1
 80 100 l 1
 80 110 l 1
 90 110 l 1
 90 120 l 1
 100 120 l 1
 100 110 l 1
 90 110 l 1
 90 100 l 1
 110 100 l 1
 110 70 l 1
 100 70 l 1
 100 90 l 1
 10 90 l 1
 10 70 l 1
0 40 m 1
 0 50 l 1
 60 50 l 1
 60 60 l 1
 70 60 l 1
 70 70 l 1
 20 70 l 1
 20 80 l 1
 90 80 l 1
 90 70 l 1
 80 70 l 1
 80 60 l 1
 70 60 l 1
 70 50 l 1
 110 50 l 1
 110 40 l 1
 60 40 l 1
 60 10 l 1
 50 10 l 1
 50 40 l 1
 0 40 l 1
50 10 m 1
 50 0 l 1
 40 0 l 1
 40 10 l 1
 30 10 l 1
 30 20 l 1
 40 20 l 1
 40 10 l 1
 50 10 l 1
EndSplineSet
Substitution2: "'ss01' Style Set 1 lookup 6 subtable" uni5B66_uniFE00
Substitution2: "'aalt' Access All Alternates lookup 0 subtable" uni5B66_uniFE00
EndChar

StartChar: uni5C0F
Encoding: 23567 23567 232
Width: 120
GlyphClass: 1
Flags: W
LayerCount: 2
Fore
SplineSet
60 10 m 1
 50 10 l 1
 50 120 l 1
 60 120 l 1
 60 10 l 1
80 80 m 1
 70 80 l 1
 70 90 l 1
 80 90 l 1
 80 80 l 1
 90 80 l 1
 90 70 l 1
 100 70 l 1
 100 60 l 1
 110 60 l 1
 110 40 l 1
 100 40 l 1
 100 60 l 1
 90 60 l 1
 90 70 l 1
 80 70 l 1
 80 80 l 1
0 40 m 1
 0 50 l 1
 10 50 l 1
 10 60 l 1
 20 60 l 1
 20 70 l 1
 30 70 l 1
 30 90 l 1
 40 90 l 1
 40 70 l 1
 30 70 l 1
 30 60 l 1
 20 60 l 1
 20 50 l 1
 10 50 l 1
 10 40 l 1
 0 40 l 1
30 10 m 1
 30 20 l 1
 40 20 l 1
 40 10 l 1
 50 10 l 1
 50 0 l 1
 40 0 l 1
 40 10 l 1
 30 10 l 1
EndSplineSet
Substitution2: "'ss01' Style Set 1 lookup 6 subtable" uni5C0F_uniFE00
Substitution2: "'aalt' Access All Alternates lookup 0 subtable" uni5C0F_uniFE00
EndChar

StartChar: uni679C
Encoding: 26524 26524 233
Width: 120
GlyphClass: 1
Flags: W
LayerCount: 2
Fore
SplineSet
0 60 m 1
 50 60 l 1
 50 70 l 1
 10 70 l 1
 10 120 l 1
 100 120 l 1
 100 70 l 1
 60 70 l 1
 60 60 l 1
 110 60 l 1
 110 50 l 1
 70 50 l 1
 70 40 l 1
 80 40 l 1
 80 30 l 1
 90 30 l 1
 90 20 l 1
 110 20 l 1
 110 10 l 1
 90 10 l 1
 90 20 l 1
 80 20 l 1
 80 30 l 1
 70 30 l 1
 70 40 l 1
 60 40 l 1
 60 0 l 1
 50 0 l 1
 50 40 l 1
 40 40 l 1
 40 30 l 1
 30 30 l 1
 30 20 l 1
 20 20 l 1
 20 10 l 1
 0 10 l 1
 0 20 l 1
 20 20 l 1
 20 30 l 1
 30 30 l 1
 30 40 l 1
 40 40 l 1
 40 50 l 1
 0 50 l 1
 0 60 l 1
90 110 m 1
 60 110 l 1
 60 100 l 1
 90 100 l 1
 90 110 l 1
50 110 m 1
 20 110 l 1
 20 100 l 1
 50 100 l 1
 50 110 l 1
60 80 m 1
 90 80 l 1
 90 90 l 1
 60 90 l 1
 60 80 l 1
20 80 m 1
 50 80 l 1
 50 90 l 1
 20 90 l 1
 20 80 l 1
EndSplineSet
Substitution2: "'ss01' Style Set 1 lookup 6 subtable" uni679C_uniFE00
Substitution2: "'aalt' Access All Alternates lookup 0 subtable" uni679C_uniFE00
EndChar

StartChar: uni7ED3
Encoding: 32467 32467 234
Width: 120
GlyphClass: 1
Flags: W
LayerCount: 2
Fore
SplineSet
40 90 m 1
 40 80 l 1
 30 80 l 1
 30 90 l 1
 40 90 l 1
 40 100 l 1
 70 100 l 1
 70 120 l 1
 80 120 l 1
 80 100 l 1
 110 100 l 1
 110 90 l 1
 80 90 l 1
 80 70 l 1
 100 70 l 1
 100 60 l 1
 50 60 l 1
 50 70 l 1
 70 70 l 1
 70 90 l 1
 40 90 l 1
20 60 m 1
 20 70 l 1
 0 70 l 1
 0 90 l 1
 10 90 l 1
 10 100 l 1
 20 100 l 1
 20 120 l 1
 30 120 l 1
 30 100 l 1
 20 100 l 1
 20 90 l 1
 10 90 l 1
 10 80 l 1
 30 80 l 1
 30 60 l 1
 40 60 l 1
 40 50 l 1
 30 50 l 1
 30 60 l 1
 20 60 l 1
 20 50 l 1
 30 50 l 1
 30 40 l 1
 0 40 l 1
 0 50 l 1
 10 50 l 1
 10 60 l 1
 20 60 l 1
50 0 m 1
 50 50 l 1
 100 50 l 1
 100 0 l 1
 90 0 l 1
 90 10 l 1
 60 10 l 1
 60 0 l 1
 50 0 l 1
60 40 m 1
 60 20 l 1
 90 20 l 1
 90 40 l 1
 60 40 l 1
20 20 m 1
 20 10 l 1
 0 10 l 1
 0 20 l 1
 20 20 l 1
 20 30 l 1
 40 30 l 1
 40 20 l 1
 20 20 l 1
EndSplineSet
EndChar

StartChar: uni5206
Encoding: 20998 20998 235
Width: 120
GlyphClass: 1
Flags: W
LayerCount: 2
Fore
SplineSet
10 60 m 1
 0 60 l 1
 0 70 l 1
 10 70 l 1
 10 80 l 1
 20 80 l 1
 20 100 l 1
 30 100 l 1
 30 120 l 1
 40 120 l 1
 40 100 l 1
 30 100 l 1
 30 80 l 1
 80 80 l 1
 80 100 l 1
 70 100 l 1
 70 120 l 1
 80 120 l 1
 80 100 l 1
 90 100 l 1
 90 80 l 1
 100 80 l 1
 100 70 l 1
 110 70 l 1
 110 60 l 1
 100 60 l 1
 100 70 l 1
 90 70 l 1
 90 20 l 1
 80 20 l 1
 80 10 l 1
 70 10 l 1
 70 20 l 1
 80 20 l 1
 80 70 l 1
 50 70 l 1
 50 40 l 1
 40 40 l 1
 40 20 l 1
 30 20 l 1
 30 10 l 1
 20 10 l 1
 20 0 l 1
 10 0 l 1
 10 10 l 1
 20 10 l 1
 20 20 l 1
 30 20 l 1
 30 40 l 1
 40 40 l 1
 40 70 l 1
 10 70 l 1
 10 60 l 1
70 10 m 1
 70 0 l 1
 60 0 l 1
 60 10 l 1
 50 10 l 1
 50 20 l 1
 60 20 l 1
 60 10 l 1
 70 10 l 1
EndSplineSet
Substitution2: "'ss01' Style Set 1 lookup 6 subtable" uni5206_uniFE00
Substitution2: "'aalt' Access All Alternates lookup 0 subtable" uni5206_uniFE00
EndChar

StartChar: uni5F27
Encoding: 24359 24359 236
Width: 120
GlyphClass: 1
Flags: W
LayerCount: 2
Fore
SplineSet
0 90 m 1
 20 90 l 1
 20 110 l 1
 0 110 l 1
 0 120 l 1
 30 120 l 1
 30 80 l 1
 10 80 l 1
 10 60 l 1
 30 60 l 1
 30 10 l 1
 40 10 l 1
 40 0 l 1
 30 0 l 1
 30 10 l 1
 20 10 l 1
 20 0 l 1
 10 0 l 1
 10 10 l 1
 0 10 l 1
 0 20 l 1
 10 20 l 1
 10 10 l 1
 20 10 l 1
 20 50 l 1
 0 50 l 1
 0 90 l 1
70 110 m 1
 70 120 l 1
 100 120 l 1
 100 110 l 1
 90 110 l 1
 90 50 l 1
 100 50 l 1
 100 10 l 1
 110 10 l 1
 110 0 l 1
 100 0 l 1
 100 10 l 1
 90 10 l 1
 90 20 l 1
 70 20 l 1
 70 10 l 1
 60 10 l 1
 60 100 l 1
 50 100 l 1
 50 10 l 1
 40 10 l 1
 40 110 l 1
 70 110 l 1
70 110 m 1
 70 40 l 1
 80 40 l 1
 80 30 l 1
 90 30 l 1
 90 50 l 1
 80 50 l 1
 80 110 l 1
 70 110 l 1
EndSplineSet
Substitution2: "'ss01' Style Set 1 lookup 6 subtable" uni5F27_uniFE00
Substitution2: "'aalt' Access All Alternates lookup 0 subtable" uni5F27_uniFE00
EndChar

StartChar: uni767E
Encoding: 30334 30334 237
Width: 120
GlyphClass: 1
Flags: W
LayerCount: 2
Fore
SplineSet
40 110 m 1
 0 110 l 1
 0 120 l 1
 110 120 l 1
 110 110 l 1
 50 110 l 1
 50 100 l 1
 40 100 l 1
 40 90 l 1
 100 90 l 1
 100 0 l 1
 90 0 l 1
 90 10 l 1
 20 10 l 1
 20 0 l 1
 10 0 l 1
 10 90 l 1
 30 90 l 1
 30 100 l 1
 40 100 l 1
 40 110 l 1
90 80 m 1
 20 80 l 1
 20 60 l 1
 90 60 l 1
 90 80 l 1
20 50 m 1
 20 21 l 1
 90 21 l 1
 90 50 l 1
 20 50 l 1
EndSplineSet
EndChar

StartChar: uni65B9
Encoding: 26041 26041 238
Width: 120
GlyphClass: 1
Flags: W
LayerCount: 2
Fore
SplineSet
0 0 m 1
 0 10 l 1
 10 10 l 1
 10 20 l 1
 20 20 l 1
 20 40 l 1
 30 40 l 1
 30 90 l 1
 0 90 l 1
 0 100 l 1
 50 100 l 1
 50 110 l 1
 40 110 l 1
 40 120 l 1
 50 120 l 1
 50 110 l 1
 60 110 l 1
 60 100 l 1
 110 100 l 1
 110 90 l 1
 40 90 l 1
 40 70 l 1
 90 70 l 1
 90 10 l 1
 80 10 l 1
 80 60 l 1
 40 60 l 1
 40 40 l 1
 30 40 l 1
 30 20 l 1
 20 20 l 1
 20 10 l 1
 10 10 l 1
 10 0 l 1
 0 0 l 1
80 10 m 1
 80 0 l 1
 70 0 l 1
 70 10 l 1
 60 10 l 1
 60 20 l 1
 70 20 l 1
 70 10 l 1
 80 10 l 1
EndSplineSet
Substitution2: "'ss01' Style Set 1 lookup 6 subtable" uni65B9_uniFE00
Substitution2: "'aalt' Access All Alternates lookup 0 subtable" uni65B9_uniFE00
EndChar

StartChar: uni7EDF
Encoding: 32479 32479 239
Width: 120
GlyphClass: 1
Flags: W
LayerCount: 2
Fore
SplineSet
0 40 m 1
 0 50 l 1
 10 50 l 1
 10 60 l 1
 20 60 l 1
 20 70 l 1
 0 70 l 1
 0 90 l 1
 10 90 l 1
 10 100 l 1
 20 100 l 1
 20 120 l 1
 30 120 l 1
 30 100 l 1
 20 100 l 1
 20 90 l 1
 10 90 l 1
 10 80 l 1
 30 80 l 1
 30 90 l 1
 40 90 l 1
 40 100 l 1
 70 100 l 1
 70 110 l 1
 60 110 l 1
 60 120 l 1
 70 120 l 1
 70 110 l 1
 80 110 l 1
 80 100 l 1
 110 100 l 1
 110 90 l 1
 80 90 l 1
 80 80 l 1
 70 80 l 1
 70 70 l 1
 90 70 l 1
 90 80 l 1
 100 80 l 1
 100 70 l 1
 110 70 l 1
 110 50 l 1
 100 50 l 1
 100 60 l 1
 90 60 l 1
 90 10 l 1
 100 10 l 1
 100 30 l 1
 110 30 l 1
 110 0 l 1
 90 0 l 1
 90 10 l 1
 80 10 l 1
 80 60 l 1
 70 60 l 1
 70 30 l 1
 60 30 l 1
 60 10 l 1
 50 10 l 1
 50 0 l 1
 40 0 l 1
 40 10 l 1
 50 10 l 1
 50 30 l 1
 60 30 l 1
 60 60 l 1
 50 60 l 1
 50 70 l 1
 60 70 l 1
 60 80 l 1
 70 80 l 1
 70 90 l 1
 40 90 l 1
 40 70 l 1
 30 70 l 1
 30 60 l 1
 20 60 l 1
 20 50 l 1
 40 50 l 1
 40 40 l 1
 0 40 l 1
20 10 m 1
 0 10 l 1
 0 20 l 1
 20 20 l 1
 20 30 l 1
 40 30 l 1
 40 20 l 1
 20 20 l 1
 20 10 l 1
EndSplineSet
EndChar

StartChar: uni884C
Encoding: 34892 34892 240
Width: 120
GlyphClass: 1
Flags: W
LayerCount: 2
Fore
SplineSet
10 80 m 1
 0 80 l 1
 0 90 l 1
 10 90 l 1
 10 100 l 1
 20 100 l 1
 20 110 l 1
 30 110 l 1
 30 120 l 1
 40 120 l 1
 40 110 l 1
 30 110 l 1
 30 100 l 1
 20 100 l 1
 20 90 l 1
 10 90 l 1
 10 80 l 1
60 110 m 1
 100 110 l 1
 100 100 l 1
 60 100 l 1
 60 110 l 1
0 50 m 1
 10 50 l 1
 10 60 l 1
 20 60 l 1
 20 70 l 1
 30 70 l 1
 30 80 l 1
 40 80 l 1
 40 90 l 1
 50 90 l 1
 50 80 l 1
 40 80 l 1
 40 70 l 1
 30 70 l 1
 30 0 l 1
 20 0 l 1
 20 50 l 1
 10 50 l 1
 10 40 l 1
 0 40 l 1
 0 50 l 1
50 60 m 1
 50 70 l 1
 110 70 l 1
 110 60 l 1
 90 60 l 1
 90 10 l 1
 80 10 l 1
 80 60 l 1
 50 60 l 1
80 10 m 1
 80 0 l 1
 70 0 l 1
 70 10 l 1
 60 10 l 1
 60 20 l 1
 70 20 l 1
 70 10 l 1
 80 10 l 1
EndSplineSet
Substitution2: "'ss01' Style Set 1 lookup 6 subtable" uni884C_uniFE00
Substitution2: "'aalt' Access All Alternates lookup 0 subtable" uni884C_uniFE00
EndChar

StartChar: uni591A
Encoding: 22810 22810 241
Width: 120
GlyphClass: 1
Flags: W
LayerCount: 2
Fore
SplineSet
0 0 m 1
 0 10 l 1
 30 10 l 1
 30 20 l 1
 50 20 l 1
 50 30 l 1
 40 30 l 1
 40 40 l 1
 30 40 l 1
 30 30 l 1
 10 30 l 1
 10 40 l 1
 30 40 l 1
 30 50 l 1
 40 50 l 1
 40 60 l 1
 10 60 l 1
 10 70 l 1
 40 70 l 1
 40 80 l 1
 50 80 l 1
 50 90 l 1
 40 90 l 1
 40 100 l 1
 30 100 l 1
 30 90 l 1
 10 90 l 1
 10 100 l 1
 30 100 l 1
 30 110 l 1
 40 110 l 1
 40 120 l 1
 50 120 l 1
 50 110 l 1
 100 110 l 1
 100 100 l 1
 90 100 l 1
 90 90 l 1
 80 90 l 1
 80 80 l 1
 70 80 l 1
 70 90 l 1
 80 90 l 1
 80 100 l 1
 50 100 l 1
 50 90 l 1
 60 90 l 1
 60 80 l 1
 70 80 l 1
 70 70 l 1
 60 70 l 1
 60 60 l 1
 100 60 l 1
 100 50 l 1
 90 50 l 1
 90 40 l 1
 80 40 l 1
 80 30 l 1
 70 30 l 1
 70 40 l 1
 80 40 l 1
 80 50 l 1
 40 50 l 1
 40 40 l 1
 50 40 l 1
 50 30 l 1
 70 30 l 1
 70 20 l 1
 60 20 l 1
 60 10 l 1
 30 10 l 1
 30 0 l 1
 0 0 l 1
50 60 m 1
 50 70 l 1
 40 70 l 1
 40 60 l 1
 50 60 l 1
EndSplineSet
EndChar

StartChar: uni4F53
Encoding: 20307 20307 242
Width: 120
GlyphClass: 1
Flags: W
LayerCount: 2
Fore
SplineSet
0 80 m 1
 10 80 l 1
 10 100 l 1
 20 100 l 1
 20 120 l 1
 30 120 l 1
 30 100 l 1
 60 100 l 1
 60 120 l 1
 70 120 l 1
 70 100 l 1
 100 100 l 1
 100 90 l 1
 70 90 l 1
 70 80 l 1
 80 80 l 1
 80 70 l 1
 90 70 l 1
 90 50 l 1
 100 50 l 1
 100 40 l 1
 110 40 l 1
 110 30 l 1
 100 30 l 1
 100 40 l 1
 90 40 l 1
 90 30 l 1
 70 30 l 1
 70 0 l 1
 60 0 l 1
 60 30 l 1
 40 30 l 1
 40 40 l 1
 30 40 l 1
 30 30 l 1
 20 30 l 1
 20 0 l 1
 10 0 l 1
 10 70 l 1
 0 70 l 1
 0 80 l 1
20 40 m 1
 30 40 l 1
 30 50 l 1
 40 50 l 1
 40 40 l 1
 60 40 l 1
 60 70 l 1
 50 70 l 1
 50 80 l 1
 60 80 l 1
 60 90 l 1
 30 90 l 1
 30 100 l 1
 20 100 l 1
 20 40 l 1
70 40 m 1
 90 40 l 1
 90 50 l 1
 80 50 l 1
 80 70 l 1
 70 70 l 1
 70 40 l 1
40 70 m 1
 50 70 l 1
 50 50 l 1
 40 50 l 1
 40 70 l 1
EndSplineSet
Substitution2: "'ss01' Style Set 1 lookup 6 subtable" uni4F53_uniFE00
Substitution2: "'aalt' Access All Alternates lookup 0 subtable" uni4F53_uniFE00
EndChar

StartChar: uni8868
Encoding: 34920 34920 243
Width: 120
GlyphClass: 1
Flags: W
LayerCount: 2
Fore
SplineSet
30 50 m 1
 0 50 l 1
 0 60 l 1
 50 60 l 1
 50 70 l 1
 20 70 l 1
 20 80 l 1
 50 80 l 1
 50 90 l 1
 10 90 l 1
 10 100 l 1
 50 100 l 1
 50 120 l 1
 60 120 l 1
 60 100 l 1
 100 100 l 1
 100 90 l 1
 60 90 l 1
 60 80 l 1
 90 80 l 1
 90 70 l 1
 60 70 l 1
 60 60 l 1
 110 60 l 1
 110 50 l 1
 100 50 l 1
 100 40 l 1
 90 40 l 1
 90 30 l 1
 80 30 l 1
 80 40 l 1
 90 40 l 1
 90 50 l 1
 60 50 l 1
 60 40 l 1
 70 40 l 1
 70 30 l 1
 80 30 l 1
 80 20 l 1
 90 20 l 1
 90 10 l 1
 110 10 l 1
 110 0 l 1
 90 0 l 1
 90 10 l 1
 80 10 l 1
 80 20 l 1
 70 20 l 1
 70 30 l 1
 60 30 l 1
 60 40 l 1
 50 40 l 1
 50 50 l 1
 40 50 l 1
 40 10 l 1
 50 10 l 1
 50 0 l 1
 30 0 l 1
 30 30 l 1
 20 30 l 1
 20 20 l 1
 10 20 l 1
 10 10 l 1
 0 10 l 1
 0 20 l 1
 10 20 l 1
 10 30 l 1
 20 30 l 1
 20 40 l 1
 30 40 l 1
 30 50 l 1
60 10 m 1
 50 10 l 1
 50 20 l 1
 60 20 l 1
 60 10 l 1
EndSplineSet
Substitution2: "'ss01' Style Set 1 lookup 6 subtable" uni8868_uniFE00
Substitution2: "'aalt' Access All Alternates lookup 0 subtable" uni8868_uniFE00
EndChar

StartChar: uni70B9
Encoding: 28857 28857 244
Width: 120
GlyphClass: 1
Flags: W
LayerCount: 2
Fore
SplineSet
20 40 m 1
 20 80 l 1
 50 80 l 1
 50 120 l 1
 60 120 l 1
 60 110 l 1
 100 110 l 1
 100 100 l 1
 60 100 l 1
 60 80 l 1
 90 80 l 1
 90 40 l 1
 20 40 l 1
80 70 m 1
 30 70 l 1
 30 50 l 1
 80 50 l 1
 80 70 l 1
60 30 m 1
 70 30 l 1
 70 20 l 1
 80 20 l 1
 80 0 l 1
 70 0 l 1
 70 20 l 1
 60 20 l 1
 60 30 l 1
90 30 m 1
 100 30 l 1
 100 20 l 1
 110 20 l 1
 110 0 l 1
 100 0 l 1
 100 20 l 1
 90 20 l 1
 90 30 l 1
10 0 m 1
 0 0 l 1
 0 10 l 1
 10 10 l 1
 10 30 l 1
 20 30 l 1
 20 10 l 1
 10 10 l 1
 10 0 l 1
30 20 m 1
 30 30 l 1
 40 30 l 1
 40 20 l 1
 50 20 l 1
 50 0 l 1
 40 0 l 1
 40 20 l 1
 30 20 l 1
EndSplineSet
Substitution2: "'ss01' Style Set 1 lookup 6 subtable" uni70B9_uniFE00
Substitution2: "'aalt' Access All Alternates lookup 0 subtable" uni70B9_uniFE00
EndChar

StartChar: uni5B57
Encoding: 23383 23383 245
Width: 120
GlyphClass: 1
Flags: W
LayerCount: 2
Fore
SplineSet
10 80 m 1
 0 80 l 1
 0 100 l 1
 50 100 l 1
 50 110 l 1
 40 110 l 1
 40 120 l 1
 50 120 l 1
 50 110 l 1
 60 110 l 1
 60 100 l 1
 110 100 l 1
 110 80 l 1
 100 80 l 1
 100 90 l 1
 10 90 l 1
 10 80 l 1
0 40 m 1
 0 50 l 1
 60 50 l 1
 60 60 l 1
 70 60 l 1
 70 70 l 1
 20 70 l 1
 20 80 l 1
 90 80 l 1
 90 70 l 1
 80 70 l 1
 80 60 l 1
 70 60 l 1
 70 50 l 1
 110 50 l 1
 110 40 l 1
 60 40 l 1
 60 10 l 1
 50 10 l 1
 50 40 l 1
 0 40 l 1
50 10 m 1
 50 0 l 1
 40 0 l 1
 40 10 l 1
 30 10 l 1
 30 20 l 1
 40 20 l 1
 40 10 l 1
 50 10 l 1
EndSplineSet
Substitution2: "'ss01' Style Set 1 lookup 6 subtable" uni5B57_uniFE00
Substitution2: "'aalt' Access All Alternates lookup 0 subtable" uni5B57_uniFE00
EndChar

StartChar: uni9694
Encoding: 38548 38548 246
Width: 120
GlyphClass: 1
Flags: W
LayerCount: 2
Fore
SplineSet
90 20 m 1
 90 10 l 1
 100 10 l 1
 100 0 l 1
 90 0 l 1
 90 10 l 1
 80 10 l 1
 80 0 l 1
 70 0 l 1
 70 20 l 1
 50 20 l 1
 50 0 l 1
 40 0 l 1
 40 30 l 1
 30 30 l 1
 30 20 l 1
 20 20 l 1
 20 30 l 1
 10 30 l 1
 10 0 l 1
 0 0 l 1
 0 120 l 1
 110 120 l 1
 110 110 l 1
 40 110 l 1
 40 90 l 1
 30 90 l 1
 30 70 l 1
 40 70 l 1
 40 60 l 1
 110 60 l 1
 110 10 l 1
 100 10 l 1
 100 20 l 1
 90 20 l 1
10 40 m 1
 20 40 l 1
 20 30 l 1
 30 30 l 1
 30 70 l 1
 20 70 l 1
 20 90 l 1
 30 90 l 1
 30 110 l 1
 10 110 l 1
 10 40 l 1
50 70 m 1
 50 100 l 1
 100 100 l 1
 100 70 l 1
 50 70 l 1
60 80 m 1
 90 80 l 1
 90 90 l 1
 60 90 l 1
 60 80 l 1
50 30 m 1
 70 30 l 1
 70 40 l 1
 80 40 l 1
 80 30 l 1
 100 30 l 1
 100 50 l 1
 90 50 l 1
 90 40 l 1
 80 40 l 1
 80 50 l 1
 70 50 l 1
 70 40 l 1
 60 40 l 1
 60 50 l 1
 50 50 l 1
 50 30 l 1
EndSplineSet
EndChar

StartChar: uni8A00
Encoding: 35328 35328 247
Width: 120
GlyphClass: 1
Flags: W
LayerCount: 2
Fore
SplineSet
0 100 m 1
 50 100 l 1
 50 110 l 1
 40 110 l 1
 40 120 l 1
 50 120 l 1
 50 110 l 1
 60 110 l 1
 60 100 l 1
 110 100 l 1
 110 90 l 1
 0 90 l 1
 0 100 l 1
100 70 m 1
 10 70 l 1
 10 80 l 1
 100 80 l 1
 100 70 l 1
100 50 m 1
 10 50 l 1
 10 60 l 1
 100 60 l 1
 100 50 l 1
10 40 m 1
 100 40 l 1
 100 0 l 1
 10 0 l 1
 10 40 l 1
20 30 m 1
 20 10 l 1
 90 10 l 1
 90 30 l 1
 20 30 l 1
EndSplineSet
Substitution2: "'ss01' Style Set 1 lookup 6 subtable" uni8A00_uniFE00
Substitution2: "'aalt' Access All Alternates lookup 0 subtable" uni8A00_uniFE00
EndChar

StartChar: uni8BED
Encoding: 35821 35821 248
Width: 120
GlyphClass: 1
Flags: W
LayerCount: 2
Fore
SplineSet
30 120 m 1
 110 120 l 1
 110 110 l 1
 70 110 l 1
 70 100 l 1
 90 100 l 1
 90 70 l 1
 110 70 l 1
 110 60 l 1
 30 60 l 1
 30 70 l 1
 50 70 l 1
 50 90 l 1
 40 90 l 1
 40 100 l 1
 60 100 l 1
 60 110 l 1
 30 110 l 1
 30 120 l 1
0 120 m 1
 10 120 l 1
 10 110 l 1
 20 110 l 1
 20 90 l 1
 10 90 l 1
 10 110 l 1
 0 110 l 1
 0 120 l 1
80 70 m 1
 80 90 l 1
 60 90 l 1
 60 70 l 1
 80 70 l 1
20 80 m 1
 20 20 l 1
 30 20 l 1
 30 30 l 1
 40 30 l 1
 40 50 l 1
 100 50 l 1
 100 0 l 1
 90 0 l 1
 90 10 l 1
 50 10 l 1
 50 0 l 1
 40 0 l 1
 40 20 l 1
 30 20 l 1
 30 10 l 1
 20 10 l 1
 20 0 l 1
 10 0 l 1
 10 70 l 1
 0 70 l 1
 0 80 l 1
 20 80 l 1
90 40 m 1
 50 40 l 1
 50 20 l 1
 90 20 l 1
 90 40 l 1
EndSplineSet
EndChar

StartChar: uni5BF9
Encoding: 23545 23545 249
Width: 120
GlyphClass: 1
Flags: W
LayerCount: 2
Fore
SplineSet
40 80 m 1
 40 60 l 1
 30 60 l 1
 30 80 l 1
 40 80 l 1
 40 100 l 1
 0 100 l 1
 0 110 l 1
 50 110 l 1
 50 90 l 1
 90 90 l 1
 90 120 l 1
 100 120 l 1
 100 90 l 1
 110 90 l 1
 110 80 l 1
 100 80 l 1
 100 10 l 1
 90 10 l 1
 90 80 l 1
 40 80 l 1
0 10 m 1
 0 20 l 1
 10 20 l 1
 10 40 l 1
 20 40 l 1
 20 60 l 1
 10 60 l 1
 10 70 l 1
 0 70 l 1
 0 80 l 1
 10 80 l 1
 10 70 l 1
 20 70 l 1
 20 60 l 1
 30 60 l 1
 30 50 l 1
 40 50 l 1
 40 40 l 1
 50 40 l 1
 50 20 l 1
 40 20 l 1
 40 40 l 1
 20 40 l 1
 20 20 l 1
 10 20 l 1
 10 10 l 1
 0 10 l 1
60 60 m 1
 60 70 l 1
 70 70 l 1
 70 60 l 1
 79 60 l 1
 79 40 l 1
 70 40 l 1
 70 60 l 1
 60 60 l 1
90 10 m 1
 90 0 l 1
 80 0 l 1
 80 10 l 1
 70 10 l 1
 70 20 l 1
 80 20 l 1
 80 10 l 1
 90 10 l 1
EndSplineSet
EndChar

StartChar: uni6BD4
Encoding: 27604 27604 250
Width: 120
GlyphClass: 1
Flags: W
LayerCount: 2
Fore
SplineSet
80 10 m 1
 70 10 l 1
 70 120 l 1
 80 120 l 1
 80 70 l 1
 90 70 l 1
 90 60 l 1
 80 60 l 1
 80 10 l 1
 110 10 l 1
 110 40 l 1
 120 40 l 1
 120 0 l 1
 80 0 l 1
 80 10 l 1
20 110 m 1
 30 110 l 1
 30 70 l 1
 60 70 l 1
 60 60 l 1
 30 60 l 1
 30 20 l 1
 40 20 l 1
 40 10 l 1
 30 10 l 1
 30 0 l 1
 20 0 l 1
 20 110 l 1
110 100 m 1
 120 100 l 1
 120 90 l 1
 110 90 l 1
 110 100 l 1
100 90 m 1
 110 90 l 1
 110 80 l 1
 100 80 l 1
 100 90 l 1
90 80 m 1
 100 80 l 1
 100 70 l 1
 90 70 l 1
 90 80 l 1
50 40 m 1
 60 40 l 1
 60 30 l 1
 50 30 l 1
 50 40 l 1
40 30 m 1
 50 30 l 1
 50 20 l 1
 40 20 l 1
 40 30 l 1
EndSplineSet
Substitution2: "'ss01' Style Set 1 lookup 6 subtable" uni6BD4_uniFE00
Substitution2: "'aalt' Access All Alternates lookup 0 subtable" uni6BD4_uniFE00
EndChar

StartChar: uni6587
Encoding: 25991 25991 251
Width: 120
GlyphClass: 1
Flags: W
LayerCount: 2
Fore
SplineSet
0 0 m 1
 0 10 l 1
 20 10 l 1
 20 20 l 1
 40 20 l 1
 40 30 l 1
 50 30 l 1
 50 40 l 1
 40 40 l 1
 40 60 l 1
 30 60 l 1
 30 90 l 1
 0 90 l 1
 0 100 l 1
 50 100 l 1
 50 110 l 1
 40 110 l 1
 40 120 l 1
 50 120 l 1
 50 110 l 1
 60 110 l 1
 60 100 l 1
 110 100 l 1
 110 90 l 1
 80 90 l 1
 80 60 l 1
 70 60 l 1
 70 40 l 1
 60 40 l 1
 60 60 l 1
 70 60 l 1
 70 90 l 1
 40 90 l 1
 40 60 l 1
 50 60 l 1
 50 40 l 1
 60 40 l 1
 60 30 l 1
 70 30 l 1
 70 20 l 1
 90 20 l 1
 90 10 l 1
 110 10 l 1
 110 0 l 1
 90 0 l 1
 90 10 l 1
 70 10 l 1
 70 20 l 1
 60 20 l 1
 60 30 l 1
 50 30 l 1
 50 20 l 1
 40 20 l 1
 40 10 l 1
 20 10 l 1
 20 0 l 1
 0 0 l 1
EndSplineSet
Substitution2: "'ss01' Style Set 1 lookup 6 subtable" uni6587_uniFE00
Substitution2: "'aalt' Access All Alternates lookup 0 subtable" uni6587_uniFE00
EndChar

StartChar: uni4E2D
Encoding: 20013 20013 252
Width: 120
GlyphClass: 1
Flags: W
LayerCount: 2
Fore
SplineSet
50 40 m 1
 0 40 l 1
 0 90 l 1
 50 90 l 1
 50 120 l 1
 60 120 l 1
 60 90 l 1
 110 90 l 1
 110 40 l 1
 60 40 l 1
 60 0 l 1
 50 0 l 1
 50 40 l 1
60 50 m 1
 100 50 l 1
 100 80 l 1
 60 80 l 1
 60 50 l 1
10 80 m 1
 10 50 l 1
 50 50 l 1
 50 80 l 1
 10 80 l 1
EndSplineSet
Substitution2: "'ss01' Style Set 1 lookup 6 subtable" uni4E2D_uniFE00
Substitution2: "'aalt' Access All Alternates lookup 0 subtable" uni4E2D_uniFE00
EndChar

StartChar: uni89C4
Encoding: 35268 35268 253
Width: 120
GlyphClass: 1
Flags: W
LayerCount: 2
Fore
SplineSet
0 0 m 1
 0 10 l 1
 10 10 l 1
 10 30 l 1
 20 30 l 1
 20 50 l 1
 0 50 l 1
 0 60 l 1
 20 60 l 1
 20 80 l 1
 0 80 l 1
 0 90 l 1
 20 90 l 1
 20 120 l 1
 30 120 l 1
 30 90 l 1
 50 90 l 1
 50 120 l 1
 100 120 l 1
 100 40 l 1
 90 40 l 1
 90 110 l 1
 60 110 l 1
 60 40 l 1
 70 40 l 1
 70 100 l 1
 80 100 l 1
 80 40 l 1
 90 40 l 1
 90 10 l 1
 100 10 l 1
 100 30 l 1
 110 30 l 1
 110 0 l 1
 90 0 l 1
 90 10 l 1
 80 10 l 1
 80 40 l 1
 70 40 l 1
 70 20 l 1
 60 20 l 1
 60 40 l 1
 50 40 l 1
 50 50 l 1
 30 50 l 1
 30 30 l 1
 40 30 l 1
 40 20 l 1
 60 20 l 1
 60 10 l 1
 50 10 l 1
 50 0 l 1
 30 0 l 1
 30 10 l 1
 40 10 l 1
 40 20 l 1
 30 20 l 1
 30 30 l 1
 20 30 l 1
 20 10 l 1
 10 10 l 1
 10 0 l 1
 0 0 l 1
30 80 m 1
 30 60 l 1
 50 60 l 1
 50 80 l 1
 30 80 l 1
EndSplineSet
EndChar

StartChar: uni5E38
Encoding: 24120 24120 254
Width: 120
GlyphClass: 1
Flags: W
LayerCount: 2
Fore
SplineSet
0 100 m 1
 30 100 l 1
 30 110 l 1
 20 110 l 1
 20 120 l 1
 30 120 l 1
 30 110 l 1
 40 110 l 1
 40 100 l 1
 50 100 l 1
 50 120 l 1
 60 120 l 1
 60 100 l 1
 70 100 l 1
 70 110 l 1
 80 110 l 1
 80 120 l 1
 90 120 l 1
 90 110 l 1
 80 110 l 1
 80 100 l 1
 110 100 l 1
 110 80 l 1
 100 80 l 1
 100 90 l 1
 10 90 l 1
 10 80 l 1
 0 80 l 1
 0 100 l 1
20 10 m 1
 10 10 l 1
 10 40 l 1
 50 40 l 1
 50 50 l 1
 20 50 l 1
 20 80 l 1
 90 80 l 1
 90 50 l 1
 60 50 l 1
 60 40 l 1
 100 40 l 1
 100 10 l 1
 80 10 l 1
 80 20 l 1
 90 20 l 1
 90 30 l 1
 60 30 l 1
 60 0 l 1
 50 0 l 1
 50 30 l 1
 20 30 l 1
 20 10 l 1
80 70 m 1
 30 70 l 1
 30 60 l 1
 80 60 l 1
 80 70 l 1
EndSplineSet
Substitution2: "'ss01' Style Set 1 lookup 6 subtable" uni5E38_uniFE00
Substitution2: "'aalt' Access All Alternates lookup 0 subtable" uni5E38_uniFE00
EndChar

StartChar: uni79D1
Encoding: 31185 31185 255
Width: 120
GlyphClass: 1
Flags: W
LayerCount: 2
Fore
SplineSet
0 70 m 1
 0 80 l 1
 20 80 l 1
 20 100 l 1
 0 100 l 1
 0 110 l 1
 20 110 l 1
 20 120 l 1
 40 120 l 1
 40 110 l 1
 30 110 l 1
 30 80 l 1
 40 80 l 1
 40 70 l 1
 30 70 l 1
 30 60 l 1
 40 60 l 1
 40 50 l 1
 80 50 l 1
 80 120 l 1
 90 120 l 1
 90 60 l 1
 110 60 l 1
 110 50 l 1
 90 50 l 1
 90 0 l 1
 80 0 l 1
 80 40 l 1
 50 40 l 1
 50 30 l 1
 40 30 l 1
 40 50 l 1
 30 50 l 1
 30 0 l 1
 20 0 l 1
 20 40 l 1
 10 40 l 1
 10 30 l 1
 0 30 l 1
 0 40 l 1
 10 40 l 1
 10 60 l 1
 20 60 l 1
 20 70 l 1
 0 70 l 1
60 100 m 1
 50 100 l 1
 50 110 l 1
 60 110 l 1
 60 100 l 1
 70 100 l 1
 70 90 l 1
 60 90 l 1
 60 100 l 1
50 70 m 1
 50 80 l 1
 60 80 l 1
 60 70 l 1
 70 70 l 1
 70 60 l 1
 60 60 l 1
 60 70 l 1
 50 70 l 1
EndSplineSet
Substitution2: "'ss01' Style Set 1 lookup 6 subtable" uni79D1_uniFE00
Substitution2: "'aalt' Access All Alternates lookup 0 subtable" uni79D1_uniFE00
EndChar

StartChar: uni5173
Encoding: 20851 20851 256
Width: 120
GlyphClass: 1
Flags: W
LayerCount: 2
Fore
SplineSet
0 60 m 1
 50 60 l 1
 50 90 l 1
 10 90 l 1
 10 100 l 1
 30 100 l 1
 30 110 l 1
 20 110 l 1
 20 120 l 1
 30 120 l 1
 30 110 l 1
 40 110 l 1
 40 100 l 1
 70 100 l 1
 70 110 l 1
 80 110 l 1
 80 120 l 1
 90 120 l 1
 90 110 l 1
 80 110 l 1
 80 100 l 1
 100 100 l 1
 100 90 l 1
 60 90 l 1
 60 60 l 1
 110 60 l 1
 110 50 l 1
 60 50 l 1
 60 40 l 1
 70 40 l 1
 70 30 l 1
 80 30 l 1
 80 20 l 1
 90 20 l 1
 90 10 l 1
 110 10 l 1
 110 0 l 1
 90 0 l 1
 90 10 l 1
 80 10 l 1
 80 20 l 1
 70 20 l 1
 70 30 l 1
 60 30 l 1
 60 40 l 1
 50 40 l 1
 50 30 l 1
 40 30 l 1
 40 20 l 1
 30 20 l 1
 30 10 l 1
 20 10 l 1
 20 0 l 1
 0 0 l 1
 0 10 l 1
 20 10 l 1
 20 20 l 1
 30 20 l 1
 30 30 l 1
 40 30 l 1
 40 40 l 1
 50 40 l 1
 50 50 l 1
 0 50 l 1
 0 60 l 1
EndSplineSet
EndChar

StartChar: uni5F00
Encoding: 24320 24320 257
Width: 120
GlyphClass: 1
Flags: W
LayerCount: 2
Fore
SplineSet
0 0 m 1
 0 10 l 1
 10 10 l 1
 10 20 l 1
 20 20 l 1
 20 40 l 1
 30 40 l 1
 30 60 l 1
 0 60 l 1
 0 70 l 1
 30 70 l 1
 30 110 l 1
 10 110 l 1
 10 120 l 1
 100 120 l 1
 100 110 l 1
 80 110 l 1
 80 70 l 1
 110 70 l 1
 110 60 l 1
 80 60 l 1
 80 0 l 1
 70 0 l 1
 70 60 l 1
 40 60 l 1
 40 40 l 1
 30 40 l 1
 30 20 l 1
 20 20 l 1
 20 10 l 1
 10 10 l 1
 10 0 l 1
 0 0 l 1
70 70 m 1
 70 110 l 1
 40 110 l 1
 40 70 l 1
 70 70 l 1
EndSplineSet
EndChar

StartChar: uni5047
Encoding: 20551 20551 258
Width: 120
GlyphClass: 1
Flags: W
LayerCount: 2
Fore
SplineSet
80 40 m 1
 70 40 l 1
 70 30 l 1
 50 30 l 1
 50 0 l 1
 40 0 l 1
 40 120 l 1
 70 120 l 1
 70 80 l 1
 50 80 l 1
 50 70 l 1
 110 70 l 1
 110 40 l 1
 100 40 l 1
 100 60 l 1
 80 60 l 1
 80 40 l 1
 100 40 l 1
 100 30 l 1
 90 30 l 1
 90 20 l 1
 100 20 l 1
 100 10 l 1
 111 10 l 1
 111 -1 l 1
 100 -1 l 1
 100 10 l 1
 90 10 l 1
 90 20 l 1
 80 20 l 1
 80 10 l 1
 70 10 l 1
 70 0 l 1
 60 0 l 1
 60 10 l 1
 70 10 l 1
 70 20 l 1
 80 20 l 1
 80 40 l 1
0 70 m 1
 0 80 l 1
 10 80 l 1
 10 100 l 1
 20 100 l 1
 20 120 l 1
 30 120 l 1
 30 100 l 1
 20 100 l 1
 20 0 l 1
 10 0 l 1
 10 70 l 1
 0 70 l 1
80 110 m 1
 80 120 l 1
 110 120 l 1
 110 80 l 1
 80 80 l 1
 80 90 l 1
 100 90 l 1
 100 110 l 1
 80 110 l 1
50 90 m 1
 61 90 l 1
 61 110 l 1
 50 110 l 1
 50 90 l 1
50 40 m 1
 70 40 l 1
 70 60 l 1
 50 60 l 1
 50 40 l 1
EndSplineSet
EndChar

StartChar: uni5E26
Encoding: 24102 24102 259
Width: 120
GlyphClass: 1
Flags: W
LayerCount: 2
Fore
SplineSet
90 100 m 1
 90 90 l 1
 80 90 l 1
 80 100 l 1
 60 100 l 1
 60 90 l 1
 50 90 l 1
 50 100 l 1
 30 100 l 1
 30 90 l 1
 20 90 l 1
 20 100 l 1
 0 100 l 1
 0 110 l 1
 20 110 l 1
 20 120 l 1
 30 120 l 1
 30 110 l 1
 50 110 l 1
 50 120 l 1
 60 120 l 1
 60 110 l 1
 80 110 l 1
 80 120 l 1
 90 120 l 1
 90 110 l 1
 110 110 l 1
 110 100 l 1
 90 100 l 1
0 50 m 1
 0 80 l 1
 110 80 l 1
 110 50 l 1
 100 50 l 1
 100 70 l 1
 60 70 l 1
 60 60 l 1
 90 60 l 1
 90 20 l 1
 70 20 l 1
 70 30 l 1
 80 30 l 1
 80 50 l 1
 60 50 l 1
 60 0 l 1
 50 0 l 1
 50 50 l 1
 30 50 l 1
 30 20 l 1
 20 20 l 1
 20 60 l 1
 50 60 l 1
 50 70 l 1
 10 70 l 1
 10 50 l 1
 0 50 l 1
EndSplineSet
EndChar

StartChar: uni9017
Encoding: 36887 36887 260
Width: 120
GlyphClass: 1
Flags: W
LayerCount: 2
Fore
SplineSet
10 110 m 1
 10 120 l 1
 20 120 l 1
 20 110 l 1
 30 110 l 1
 30 90 l 1
 20 90 l 1
 20 110 l 1
 10 110 l 1
40 100 m 1
 40 110 l 1
 110 110 l 1
 110 100 l 1
 40 100 l 1
60 40 m 1
 50 40 l 1
 50 90 l 1
 100 90 l 1
 100 40 l 1
 90 40 l 1
 90 30 l 1
 110 30 l 1
 110 20 l 1
 40 20 l 1
 40 30 l 1
 60 30 l 1
 60 40 l 1
0 80 m 1
 30 80 l 1
 30 20 l 1
 40 20 l 1
 40 10 l 1
 110 10 l 1
 110 0 l 1
 40 0 l 1
 40 10 l 1
 30 10 l 1
 30 20 l 1
 20 20 l 1
 20 10 l 1
 10 10 l 1
 10 0 l 1
 0 0 l 1
 0 10 l 1
 10 10 l 1
 10 20 l 1
 20 20 l 1
 20 70 l 1
 0 70 l 1
 0 80 l 1
90 80 m 1
 60 80 l 1
 60 60 l 1
 90 60 l 1
 90 80 l 1
60 40 m 1
 70 40 l 1
 70 30 l 1
 80 30 l 1
 80 40 l 1
 90 40 l 1
 90 50 l 1
 60 50 l 1
 60 40 l 1
EndSplineSet
EndChar

StartChar: uni53E5
Encoding: 21477 21477 261
Width: 120
GlyphClass: 1
Flags: W
LayerCount: 2
Fore
SplineSet
0 80 m 1
 10 80 l 1
 10 90 l 1
 20 90 l 1
 20 120 l 1
 30 120 l 1
 30 110 l 1
 110 110 l 1
 110 20 l 1
 100 20 l 1
 100 10 l 1
 90 10 l 1
 90 20 l 1
 100 20 l 1
 100 100 l 1
 30 100 l 1
 30 90 l 1
 20 90 l 1
 20 80 l 1
 80 80 l 1
 80 30 l 1
 20 30 l 1
 20 80 l 1
 10 80 l 1
 10 70 l 1
 0 70 l 1
 0 80 l 1
70 40 m 1
 70 70 l 1
 30 70 l 1
 30 40 l 1
 70 40 l 1
90 10 m 1
 90 0 l 1
 80 0 l 1
 80 10 l 1
 70 10 l 1
 70 20 l 1
 80 20 l 1
 80 10 l 1
 90 10 l 1
EndSplineSet
EndChar

StartChar: uni901A
Encoding: 36890 36890 262
Width: 120
GlyphClass: 1
Flags: W
LayerCount: 2
Fore
SplineSet
40 10 m 1
 90 10 l 1
 90 20 l 1
 70 20 l 1
 70 40 l 1
 50 40 l 1
 50 20 l 1
 40 20 l 1
 40 90 l 1
 70 90 l 1
 70 100 l 1
 60 100 l 1
 60 110 l 1
 40 110 l 1
 40 120 l 1
 100 120 l 1
 100 110 l 1
 90 110 l 1
 90 100 l 1
 80 100 l 1
 80 110 l 1
 70 110 l 1
 70 100 l 1
 80 100 l 1
 80 90 l 1
 110 90 l 1
 110 20 l 1
 100 20 l 1
 100 10 l 1
 110 10 l 1
 110 0 l 1
 40 0 l 1
 40 10 l 1
 30 10 l 1
 30 20 l 1
 20 20 l 1
 20 10 l 1
 10 10 l 1
 10 0 l 1
 0 0 l 1
 0 10 l 1
 10 10 l 1
 10 20 l 1
 20 20 l 1
 20 70 l 1
 0 70 l 1
 0 80 l 1
 30 80 l 1
 30 20 l 1
 40 20 l 1
 40 10 l 1
10 110 m 1
 10 120 l 1
 20 120 l 1
 20 110 l 1
 30 110 l 1
 30 90 l 1
 20 90 l 1
 20 110 l 1
 10 110 l 1
50 70 m 1
 70 70 l 1
 70 80 l 1
 50 80 l 1
 50 70 l 1
80 80 m 1
 80 70 l 1
 100 70 l 1
 100 80 l 1
 80 80 l 1
50 50 m 1
 70 50 l 1
 70 60 l 1
 50 60 l 1
 50 50 l 1
80 60 m 1
 80 50 l 1
 100 50 l 1
 100 60 l 1
 80 60 l 1
80 30 m 1
 90 30 l 1
 90 20 l 1
 100 20 l 1
 100 40 l 1
 80 40 l 1
 80 30 l 1
EndSplineSet
EndChar

StartChar: uni666E
Encoding: 26222 26222 263
Width: 120
GlyphClass: 1
Flags: W
LayerCount: 2
Fore
SplineSet
110 60 m 1
 0 60 l 1
 0 70 l 1
 20 70 l 1
 20 80 l 1
 10 80 l 1
 10 90 l 1
 20 90 l 1
 20 80 l 1
 30 80 l 1
 30 70 l 1
 40 70 l 1
 40 100 l 1
 10 100 l 1
 10 110 l 1
 30 110 l 1
 30 120 l 1
 40 120 l 1
 40 110 l 1
 70 110 l 1
 70 120 l 1
 80 120 l 1
 80 110 l 1
 100 110 l 1
 100 100 l 1
 70 100 l 1
 70 70 l 1
 80 70 l 1
 80 80 l 1
 90 80 l 1
 90 90 l 1
 100 90 l 1
 100 80 l 1
 90 80 l 1
 90 70 l 1
 110 70 l 1
 110 60 l 1
50 70 m 1
 60 70 l 1
 60 100 l 1
 50 100 l 1
 50 70 l 1
20 50 m 1
 90 50 l 1
 90 0 l 1
 20 0 l 1
 20 50 l 1
30 40 m 1
 30 30 l 1
 80 30 l 1
 80 40 l 1
 30 40 l 1
80 10 m 1
 80 20 l 1
 30 20 l 1
 30 10 l 1
 80 10 l 1
EndSplineSet
Substitution2: "'ss01' Style Set 1 lookup 6 subtable" uni666E_uniFE00
Substitution2: "'aalt' Access All Alternates lookup 0 subtable" uni666E_uniFE00
EndChar

StartChar: uni9519
Encoding: 38169 38169 264
Width: 120
GlyphClass: 1
Flags: W
LayerCount: 2
Fore
SplineSet
0 40 m 1
 0 50 l 1
 20 50 l 1
 20 70 l 1
 0 70 l 1
 0 80 l 1
 10 80 l 1
 10 90 l 1
 20 90 l 1
 20 120 l 1
 30 120 l 1
 30 100 l 1
 60 100 l 1
 60 120 l 1
 70 120 l 1
 70 100 l 1
 80 100 l 1
 80 120 l 1
 90 120 l 1
 90 100 l 1
 110 100 l 1
 110 90 l 1
 90 90 l 1
 90 70 l 1
 110 70 l 1
 110 60 l 1
 40 60 l 1
 40 70 l 1
 30 70 l 1
 30 50 l 1
 100 50 l 1
 100 0 l 1
 50 0 l 1
 50 20 l 1
 40 20 l 1
 40 10 l 1
 30 10 l 1
 30 0 l 1
 20 0 l 1
 20 40 l 1
 0 40 l 1
20 80 m 1
 40 80 l 1
 40 70 l 1
 60 70 l 1
 60 90 l 1
 20 90 l 1
 20 80 l 1
70 90 m 1
 70 70 l 1
 80 70 l 1
 80 90 l 1
 70 90 l 1
60 30 m 1
 90 30 l 1
 90 40 l 1
 60 40 l 1
 60 30 l 1
30 40 m 1
 30 20 l 1
 40 20 l 1
 40 30 l 1
 50 30 l 1
 50 40 l 1
 30 40 l 1
90 20 m 1
 60 20 l 1
 60 10 l 1
 90 10 l 1
 90 20 l 1
EndSplineSet
EndChar

StartChar: uni8BEF
Encoding: 35823 35823 265
Width: 120
GlyphClass: 1
Flags: W
LayerCount: 2
Fore
SplineSet
50 120 m 1
 100 120 l 1
 100 80 l 1
 50 80 l 1
 50 120 l 1
10 120 m 1
 20 120 l 1
 20 110 l 1
 30 110 l 1
 30 90 l 1
 20 90 l 1
 20 110 l 1
 10 110 l 1
 10 120 l 1
60 110 m 1
 60 90 l 1
 90 90 l 1
 90 110 l 1
 60 110 l 1
50 20 m 1
 60 20 l 1
 60 10 l 1
 50 10 l 1
 50 20 l 1
 40 20 l 1
 40 10 l 1
 50 10 l 1
 50 0 l 1
 40 0 l 1
 40 10 l 1
 30 10 l 1
 30 0 l 1
 20 0 l 1
 20 70 l 1
 0 70 l 1
 0 80 l 1
 30 80 l 1
 30 20 l 1
 40 20 l 1
 40 30 l 1
 50 30 l 1
 50 20 l 1
70 30 m 1
 70 20 l 1
 60 20 l 1
 60 30 l 1
 70 30 l 1
 70 40 l 1
 40 40 l 1
 40 50 l 1
 70 50 l 1
 70 60 l 1
 50 60 l 1
 50 70 l 1
 100 70 l 1
 100 60 l 1
 80 60 l 1
 80 50 l 1
 110 50 l 1
 110 40 l 1
 80 40 l 1
 80 30 l 1
 90 30 l 1
 90 20 l 1
 100 20 l 1
 100 10 l 1
 110 10 l 1
 110 0 l 1
 100 0 l 1
 100 10 l 1
 90 10 l 1
 90 20 l 1
 80 20 l 1
 80 30 l 1
 70 30 l 1
EndSplineSet
EndChar

StartChar: uni6CD5
Encoding: 27861 27861 266
Width: 120
GlyphClass: 1
Flags: W
LayerCount: 2
Fore
SplineSet
10 30 m 1
 0 30 l 1
 0 40 l 1
 20 40 l 1
 20 60 l 1
 30 60 l 1
 30 70 l 1
 60 70 l 1
 60 90 l 1
 40 90 l 1
 40 100 l 1
 60 100 l 1
 60 120 l 1
 70 120 l 1
 70 100 l 1
 100 100 l 1
 100 90 l 1
 70 90 l 1
 70 70 l 1
 110 70 l 1
 110 60 l 1
 70 60 l 1
 70 40 l 1
 60 40 l 1
 60 30 l 1
 50 30 l 1
 50 20 l 1
 70 20 l 1
 70 30 l 1
 90 30 l 1
 90 40 l 1
 80 40 l 1
 80 50 l 1
 90 50 l 1
 90 40 l 1
 100 40 l 1
 100 30 l 1
 110 30 l 1
 110 10 l 1
 100 10 l 1
 100 20 l 1
 70 20 l 1
 70 10 l 1
 30 10 l 1
 30 20 l 1
 40 20 l 1
 40 30 l 1
 50 30 l 1
 50 40 l 1
 60 40 l 1
 60 60 l 1
 30 60 l 1
 30 40 l 1
 20 40 l 1
 20 0 l 1
 10 0 l 1
 10 30 l 1
10 120 m 1
 20 120 l 1
 20 110 l 1
 30 110 l 1
 30 100 l 1
 20 100 l 1
 20 110 l 1
 10 110 l 1
 10 120 l 1
0 90 m 1
 10 90 l 1
 10 80 l 1
 20 80 l 1
 20 70 l 1
 10 70 l 1
 10 80 l 1
 0 80 l 1
 0 90 l 1
EndSplineSet
Substitution2: "'ss01' Style Set 1 lookup 6 subtable" uni6CD5_uniFE00
Substitution2: "'aalt' Access All Alternates lookup 0 subtable" uni6CD5_uniFE00
EndChar

StartChar: uni56DE
Encoding: 22238 22238 267
Width: 120
GlyphClass: 1
Flags: W
LayerCount: 2
Fore
SplineSet
20 0 m 1
 20 120 l 1
 120 120 l 1
 120 0 l 1
 110 0 l 1
 110 10 l 1
 30 10 l 1
 30 0 l 1
 20 0 l 1
30 20 m 1
 110 20 l 1
 110 110 l 1
 30 110 l 1
 30 20 l 1
40 90 m 1
 100 90 l 1
 100 40 l 1
 40 40 l 1
 40 90 l 1
50 50 m 1
 90 50 l 1
 90 80 l 1
 50 80 l 1
 50 50 l 1
EndSplineSet
Substitution2: "'ss01' Style Set 1 lookup 6 subtable" uni56DE_uniFE00
Substitution2: "'aalt' Access All Alternates lookup 0 subtable" uni56DE_uniFE00
EndChar

StartChar: uni8FD4
Encoding: 36820 36820 268
Width: 120
GlyphClass: 1
Flags: W
LayerCount: 2
Fore
SplineSet
50 20 m 1
 50 30 l 1
 60 30 l 1
 60 40 l 1
 70 40 l 1
 70 50 l 1
 60 50 l 1
 60 60 l 1
 70 60 l 1
 70 50 l 1
 80 50 l 1
 80 60 l 1
 90 60 l 1
 90 80 l 1
 50 80 l 1
 50 70 l 1
 60 70 l 1
 60 60 l 1
 50 60 l 1
 50 40 l 1
 40 40 l 1
 40 110 l 1
 70 110 l 1
 70 120 l 1
 100 120 l 1
 100 110 l 1
 70 110 l 1
 70 100 l 1
 50 100 l 1
 50 90 l 1
 100 90 l 1
 100 60 l 1
 90 60 l 1
 90 50 l 1
 80 50 l 1
 80 40 l 1
 90 40 l 1
 90 30 l 1
 100 30 l 1
 100 20 l 1
 90 20 l 1
 90 30 l 1
 80 30 l 1
 80 40 l 1
 70 40 l 1
 70 30 l 1
 60 30 l 1
 60 20 l 1
 50 20 l 1
10 120 m 1
 20 120 l 1
 20 110 l 1
 30 110 l 1
 30 90 l 1
 20 90 l 1
 20 110 l 1
 10 110 l 1
 10 120 l 1
0 10 m 1
 10 10 l 1
 10 20 l 1
 20 20 l 1
 20 70 l 1
 0 70 l 1
 0 80 l 1
 30 80 l 1
 30 40 l 1
 40 40 l 1
 40 30 l 1
 30 30 l 1
 30 20 l 1
 50 20 l 1
 50 10 l 1
 110 10 l 1
 110 0 l 1
 50 0 l 1
 50 10 l 1
 30 10 l 1
 30 20 l 1
 20 20 l 1
 20 10 l 1
 10 10 l 1
 10 0 l 1
 0 0 l 1
 0 10 l 1
EndSplineSet
EndChar

StartChar: uni53D6
Encoding: 21462 21462 269
Width: 120
GlyphClass: 1
Flags: W
LayerCount: 2
Fore
SplineSet
0 120 m 1
 60 120 l 1
 60 110 l 1
 100 110 l 1
 100 50 l 1
 90 50 l 1
 90 100 l 1
 60 100 l 1
 60 110 l 1
 50 110 l 1
 50 40 l 1
 60 40 l 1
 60 30 l 1
 50 30 l 1
 50 10 l 1
 60 10 l 1
 60 0 l 1
 40 0 l 1
 40 30 l 1
 30 30 l 1
 30 20 l 1
 0 20 l 1
 0 30 l 1
 10 30 l 1
 10 110 l 1
 0 110 l 1
 0 120 l 1
20 110 m 1
 20 90 l 1
 40 90 l 1
 40 110 l 1
 20 110 l 1
60 90 m 1
 70 90 l 1
 70 60 l 1
 60 60 l 1
 60 90 l 1
20 60 m 1
 40 60 l 1
 40 80 l 1
 20 80 l 1
 20 60 l 1
60 10 m 1
 60 20 l 1
 70 20 l 1
 70 30 l 1
 80 30 l 1
 80 40 l 1
 70 40 l 1
 70 60 l 1
 80 60 l 1
 80 50 l 1
 90 50 l 1
 90 20 l 1
 100 20 l 1
 100 10 l 1
 110 10 l 1
 110 0 l 1
 100 0 l 1
 100 10 l 1
 90 10 l 1
 90 20 l 1
 70 20 l 1
 70 10 l 1
 60 10 l 1
20 30 m 1
 30 30 l 1
 30 40 l 1
 40 40 l 1
 40 50 l 1
 20 50 l 1
 20 30 l 1
EndSplineSet
Substitution2: "'ss01' Style Set 1 lookup 6 subtable" uni53D6_uniFE00
Substitution2: "'aalt' Access All Alternates lookup 0 subtable" uni53D6_uniFE00
EndChar

StartChar: uni6D88
Encoding: 28040 28040 270
Width: 120
GlyphClass: 1
Flags: W
LayerCount: 2
Fore
SplineSet
40 110 m 1
 50 110 l 1
 50 100 l 1
 60 100 l 1
 60 90 l 1
 70 90 l 1
 70 120 l 1
 80 120 l 1
 80 90 l 1
 90 90 l 1
 90 100 l 1
 100 100 l 1
 100 110 l 1
 110 110 l 1
 110 100 l 1
 100 100 l 1
 100 90 l 1
 110 90 l 1
 110 10 l 1
 100 10 l 1
 100 30 l 1
 50 30 l 1
 50 0 l 1
 40 0 l 1
 40 90 l 1
 50 90 l 1
 50 100 l 1
 40 100 l 1
 40 110 l 1
10 110 m 1
 10 120 l 1
 20 120 l 1
 20 110 l 1
 30 110 l 1
 30 100 l 1
 20 100 l 1
 20 110 l 1
 10 110 l 1
0 40 m 1
 20 40 l 1
 20 70 l 1
 10 70 l 1
 10 80 l 1
 0 80 l 1
 0 90 l 1
 10 90 l 1
 10 80 l 1
 20 80 l 1
 20 70 l 1
 30 70 l 1
 30 40 l 1
 20 40 l 1
 20 0 l 1
 10 0 l 1
 10 30 l 1
 0 30 l 1
 0 40 l 1
50 70 m 1
 100 70 l 1
 100 80 l 1
 50 80 l 1
 50 70 l 1
100 60 m 1
 50 60 l 1
 50 40 l 1
 100 40 l 1
 100 60 l 1
100 10 m 1
 100 0 l 1
 90 0 l 1
 90 10 l 1
 80 10 l 1
 80 20 l 1
 90 20 l 1
 90 10 l 1
 100 10 l 1
EndSplineSet
EndChar

StartChar: uni77E9
Encoding: 30697 30697 271
Width: 120
GlyphClass: 1
Flags: W
LayerCount: 2
Fore
SplineSet
30 30 m 1
 20 30 l 1
 20 10 l 1
 10 10 l 1
 10 0 l 1
 0 0 l 1
 0 10 l 1
 10 10 l 1
 10 30 l 1
 20 30 l 1
 20 50 l 1
 0 50 l 1
 0 60 l 1
 20 60 l 1
 20 80 l 1
 10 80 l 1
 10 70 l 1
 0 70 l 1
 0 80 l 1
 10 80 l 1
 10 120 l 1
 20 120 l 1
 20 100 l 1
 50 100 l 1
 50 110 l 1
 110 110 l 1
 110 100 l 1
 60 100 l 1
 60 80 l 1
 100 80 l 1
 100 30 l 1
 60 30 l 1
 60 10 l 1
 110 10 l 1
 110 0 l 1
 50 0 l 1
 50 10 l 1
 40 10 l 1
 40 20 l 1
 30 20 l 1
 30 30 l 1
30 60 m 1
 50 60 l 1
 50 90 l 1
 30 90 l 1
 30 60 l 1
60 40 m 1
 90 40 l 1
 90 70 l 1
 60 70 l 1
 60 40 l 1
30 30 m 1
 40 30 l 1
 40 20 l 1
 50 20 l 1
 50 50 l 1
 30 50 l 1
 30 30 l 1
EndSplineSet
EndChar

StartChar: uni9635
Encoding: 38453 38453 272
Width: 120
GlyphClass: 1
Flags: W
LayerCount: 2
Fore
SplineSet
0 0 m 1
 0 120 l 1
 40 120 l 1
 40 100 l 1
 60 100 l 1
 60 120 l 1
 70 120 l 1
 70 100 l 1
 110 100 l 1
 110 90 l 1
 60 90 l 1
 60 70 l 1
 50 70 l 1
 50 60 l 1
 70 60 l 1
 70 80 l 1
 80 80 l 1
 80 60 l 1
 100 60 l 1
 100 50 l 1
 80 50 l 1
 80 30 l 1
 110 30 l 1
 110 20 l 1
 80 20 l 1
 80 0 l 1
 70 0 l 1
 70 20 l 1
 40 20 l 1
 40 30 l 1
 30 30 l 1
 30 20 l 1
 20 20 l 1
 20 30 l 1
 10 30 l 1
 10 0 l 1
 0 0 l 1
20 90 m 1
 30 90 l 1
 30 70 l 1
 50 70 l 1
 50 90 l 1
 30 90 l 1
 30 110 l 1
 10 110 l 1
 10 40 l 1
 20 40 l 1
 20 30 l 1
 30 30 l 1
 30 70 l 1
 20 70 l 1
 20 90 l 1
40 30 m 1
 70 30 l 1
 70 50 l 1
 40 50 l 1
 40 30 l 1
EndSplineSet
EndChar

StartChar: uni57FA
Encoding: 22522 22522 273
Width: 120
GlyphClass: 1
Flags: W
LayerCount: 2
Fore
SplineSet
0 60 m 1
 30 60 l 1
 30 100 l 1
 10 100 l 1
 10 110 l 1
 30 110 l 1
 30 120 l 1
 40 120 l 1
 40 110 l 1
 70 110 l 1
 70 120 l 1
 80 120 l 1
 80 110 l 1
 100 110 l 1
 100 100 l 1
 80 100 l 1
 80 60 l 1
 110 60 l 1
 110 50 l 1
 80 50 l 1
 80 40 l 1
 90 40 l 1
 90 30 l 1
 110 30 l 1
 110 20 l 1
 90 20 l 1
 90 30 l 1
 80 30 l 1
 80 20 l 1
 60 20 l 1
 60 10 l 1
 110 10 l 1
 110 0 l 1
 0 0 l 1
 0 10 l 1
 50 10 l 1
 50 20 l 1
 30 20 l 1
 30 30 l 1
 20 30 l 1
 20 20 l 1
 0 20 l 1
 0 30 l 1
 20 30 l 1
 20 40 l 1
 30 40 l 1
 30 50 l 1
 0 50 l 1
 0 60 l 1
70 100 m 1
 60 100 l 1
 60 90 l 1
 70 90 l 1
 70 100 l 1
50 60 m 1
 50 70 l 1
 60 70 l 1
 60 60 l 1
 70 60 l 1
 70 80 l 1
 60 80 l 1
 60 90 l 1
 50 90 l 1
 50 100 l 1
 40 100 l 1
 40 80 l 1
 50 80 l 1
 50 70 l 1
 40 70 l 1
 40 60 l 1
 50 60 l 1
70 50 m 1
 40 50 l 1
 40 40 l 1
 30 40 l 1
 30 30 l 1
 50 30 l 1
 50 40 l 1
 60 40 l 1
 60 30 l 1
 80 30 l 1
 80 40 l 1
 70 40 l 1
 70 50 l 1
EndSplineSet
Substitution2: "'ss01' Style Set 1 lookup 6 subtable" uni57FA_uniFE00
Substitution2: "'aalt' Access All Alternates lookup 0 subtable" uni57FA_uniFE00
EndChar

StartChar: uni5411
Encoding: 21521 21521 274
Width: 120
GlyphClass: 1
Flags: W
LayerCount: 2
Fore
SplineSet
30 0 m 1
 20 0 l 1
 20 100 l 1
 40 100 l 1
 40 110 l 1
 50 110 l 1
 50 120 l 1
 60 120 l 1
 60 110 l 1
 50 110 l 1
 50 100 l 1
 120 100 l 1
 120 10 l 1
 110 10 l 1
 110 90 l 1
 30 90 l 1
 30 0 l 1
90 80 m 1
 90 30 l 1
 50 30 l 1
 50 80 l 1
 90 80 l 1
60 40 m 1
 80 40 l 1
 80 70 l 1
 60 70 l 1
 60 40 l 1
110 10 m 1
 110 0 l 1
 100 0 l 1
 100 10 l 1
 90 10 l 1
 90 20 l 1
 100 20 l 1
 100 10 l 1
 110 10 l 1
EndSplineSet
Substitution2: "'ss01' Style Set 1 lookup 6 subtable" uni5411_uniFE00
Substitution2: "'aalt' Access All Alternates lookup 0 subtable" uni5411_uniFE00
EndChar

StartChar: uni91CF
Encoding: 37327 37327 275
Width: 120
GlyphClass: 1
Flags: W
LayerCount: 2
Fore
SplineSet
20 120 m 1
 90 120 l 1
 90 80 l 1
 20 80 l 1
 20 120 l 1
30 110 m 1
 30 90 l 1
 50 90 l 1
 50 100 l 1
 60 100 l 1
 60 90 l 1
 80 90 l 1
 80 110 l 1
 50 110 l 1
 50 100 l 1
 40 100 l 1
 40 110 l 1
 30 110 l 1
0 70 m 1
 110 70 l 1
 110 60 l 1
 90 60 l 1
 90 30 l 1
 100 30 l 1
 100 20 l 1
 60 20 l 1
 60 10 l 1
 110 10 l 1
 110 0 l 1
 0 0 l 1
 0 10 l 1
 50 10 l 1
 50 20 l 1
 10 20 l 1
 10 30 l 1
 20 30 l 1
 20 60 l 1
 0 60 l 1
 0 70 l 1
30 60 m 1
 30 50 l 1
 50 50 l 1
 50 60 l 1
 30 60 l 1
80 60 m 1
 60 60 l 1
 60 50 l 1
 80 50 l 1
 80 60 l 1
60 30 m 1
 80 30 l 1
 80 40 l 1
 60 40 l 1
 60 30 l 1
50 40 m 1
 30 40 l 1
 30 30 l 1
 50 30 l 1
 50 40 l 1
EndSplineSet
Substitution2: "'ss01' Style Set 1 lookup 6 subtable" uni91CF_uniFE00
Substitution2: "'aalt' Access All Alternates lookup 0 subtable" uni91CF_uniFE00
EndChar

StartChar: uni7B49
Encoding: 31561 31561 276
Width: 120
GlyphClass: 1
Flags: W
LayerCount: 2
Fore
SplineSet
0 80 m 1
 0 90 l 1
 10 90 l 1
 10 100 l 1
 20 100 l 1
 20 120 l 1
 30 120 l 1
 30 110 l 1
 50 110 l 1
 50 100 l 1
 60 100 l 1
 60 110 l 1
 70 110 l 1
 70 120 l 1
 80 120 l 1
 80 110 l 1
 110 110 l 1
 110 100 l 1
 80 100 l 1
 80 90 l 1
 90 90 l 1
 90 80 l 1
 100 80 l 1
 100 70 l 1
 60 70 l 1
 60 60 l 1
 110 60 l 1
 110 50 l 1
 90 50 l 1
 90 40 l 1
 110 40 l 1
 110 30 l 1
 90 30 l 1
 90 10 l 1
 80 10 l 1
 80 30 l 1
 40 30 l 1
 40 20 l 1
 50 20 l 1
 50 10 l 1
 40 10 l 1
 40 20 l 1
 30 20 l 1
 30 30 l 1
 10 30 l 1
 10 40 l 1
 80 40 l 1
 80 50 l 1
 0 50 l 1
 0 60 l 1
 50 60 l 1
 50 70 l 1
 20 70 l 1
 20 80 l 1
 40 80 l 1
 40 90 l 1
 30 90 l 1
 30 100 l 1
 20 100 l 1
 20 90 l 1
 10 90 l 1
 10 80 l 1
 0 80 l 1
40 90 m 1
 50 90 l 1
 50 80 l 1
 80 80 l 1
 80 90 l 1
 70 90 l 1
 70 100 l 1
 60 100 l 1
 60 90 l 1
 50 90 l 1
 50 100 l 1
 40 100 l 1
 40 90 l 1
80 10 m 1
 80 0 l 1
 70 0 l 1
 70 10 l 1
 60 10 l 1
 60 20 l 1
 70 20 l 1
 70 10 l 1
 80 10 l 1
EndSplineSet
Substitution2: "'ss01' Style Set 1 lookup 6 subtable" uni7B49_uniFE00
Substitution2: "'aalt' Access All Alternates lookup 0 subtable" uni7B49_uniFE00
EndChar

StartChar: uni4F8B
Encoding: 20363 20363 277
Width: 120
GlyphClass: 1
Flags: W
LayerCount: 2
Fore
SplineSet
20 50 m 1
 20 10 l 1
 30 10 l 1
 30 0 l 1
 10 0 l 1
 10 70 l 1
 0 70 l 1
 0 80 l 1
 10 80 l 1
 10 100 l 1
 20 100 l 1
 20 120 l 1
 30 120 l 1
 30 110 l 1
 80 110 l 1
 80 100 l 1
 90 100 l 1
 90 30 l 1
 80 30 l 1
 80 100 l 1
 50 100 l 1
 50 80 l 1
 70 80 l 1
 70 50 l 1
 60 50 l 1
 60 30 l 1
 50 30 l 1
 50 20 l 1
 40 20 l 1
 40 10 l 1
 30 10 l 1
 30 20 l 1
 40 20 l 1
 40 30 l 1
 50 30 l 1
 50 40 l 1
 40 40 l 1
 40 50 l 1
 60 50 l 1
 60 70 l 1
 40 70 l 1
 40 50 l 1
 20 50 l 1
110 10 m 1
 100 10 l 1
 100 120 l 1
 110 120 l 1
 110 10 l 1
20 60 m 1
 30 60 l 1
 30 80 l 1
 40 80 l 1
 40 100 l 1
 20 100 l 1
 20 60 l 1
80 20 m 1
 90 20 l 1
 90 10 l 1
 100 10 l 1
 100 0 l 1
 90 0 l 1
 90 10 l 1
 80 10 l 1
 80 20 l 1
EndSplineSet
EndChar

StartChar: uni7535
Encoding: 30005 30005 278
Width: 120
GlyphClass: 1
Flags: W
LayerCount: 2
Fore
SplineSet
60 30 m 1
 20 30 l 1
 20 100 l 1
 60 100 l 1
 60 120 l 1
 70 120 l 1
 70 100 l 1
 110 100 l 1
 110 30 l 1
 120 30 l 1
 120 0 l 1
 70 0 l 1
 70 10 l 1
 60 10 l 1
 60 30 l 1
100 90 m 1
 70 90 l 1
 70 70 l 1
 100 70 l 1
 100 90 l 1
60 90 m 1
 30 90 l 1
 30 70 l 1
 60 70 l 1
 60 90 l 1
70 60 m 1
 70 40 l 1
 100 40 l 1
 100 60 l 1
 70 60 l 1
30 40 m 1
 60 40 l 1
 60 60 l 1
 30 60 l 1
 30 40 l 1
70 10 m 1
 110 10 l 1
 110 30 l 1
 70 30 l 1
 70 10 l 1
EndSplineSet
EndChar

StartChar: uni78C1
Encoding: 30913 30913 279
Width: 120
GlyphClass: 1
Flags: W
LayerCount: 2
Fore
SplineSet
50 30 m 1
 50 10 l 1
 60 10 l 1
 60 20 l 1
 70 20 l 1
 70 0 l 1
 40 0 l 1
 40 20 l 1
 20 20 l 1
 20 10 l 1
 10 10 l 1
 10 60 l 1
 0 60 l 1
 0 70 l 1
 10 70 l 1
 10 100 l 1
 0 100 l 1
 0 110 l 1
 40 110 l 1
 40 100 l 1
 60 100 l 1
 60 110 l 1
 50 110 l 1
 50 120 l 1
 60 120 l 1
 60 110 l 1
 70 110 l 1
 70 100 l 1
 80 100 l 1
 80 110 l 1
 90 110 l 1
 90 120 l 1
 100 120 l 1
 100 110 l 1
 90 110 l 1
 90 100 l 1
 110 100 l 1
 110 90 l 1
 100 90 l 1
 100 70 l 1
 90 70 l 1
 90 50 l 1
 100 50 l 1
 100 60 l 1
 110 60 l 1
 110 40 l 1
 100 40 l 1
 100 30 l 1
 90 30 l 1
 90 10 l 1
 100 10 l 1
 100 20 l 1
 110 20 l 1
 110 0 l 1
 80 0 l 1
 80 30 l 1
 90 30 l 1
 90 40 l 1
 80 40 l 1
 80 70 l 1
 90 70 l 1
 90 90 l 1
 60 90 l 1
 60 70 l 1
 50 70 l 1
 50 90 l 1
 40 90 l 1
 40 100 l 1
 20 100 l 1
 20 80 l 1
 40 80 l 1
 40 70 l 1
 50 70 l 1
 50 50 l 1
 60 50 l 1
 60 60 l 1
 70 60 l 1
 70 40 l 1
 60 40 l 1
 60 30 l 1
 50 30 l 1
 50 40 l 1
 40 40 l 1
 40 30 l 1
 50 30 l 1
20 30 m 1
 30 30 l 1
 30 70 l 1
 20 70 l 1
 20 30 l 1
EndSplineSet
Substitution2: "'ss01' Style Set 1 lookup 6 subtable" uni78C1_uniFE00
Substitution2: "'aalt' Access All Alternates lookup 0 subtable" uni78C1_uniFE00
EndChar

StartChar: uni91C7
Encoding: 37319 37319 280
Width: 120
GlyphClass: 1
Flags: W
LayerCount: 2
Fore
SplineSet
0 60 m 1
 0 70 l 1
 20 70 l 1
 20 90 l 1
 10 90 l 1
 10 110 l 1
 60 110 l 1
 60 120 l 1
 100 120 l 1
 100 100 l 1
 90 100 l 1
 90 90 l 1
 80 90 l 1
 80 80 l 1
 70 80 l 1
 70 90 l 1
 80 90 l 1
 80 100 l 1
 90 100 l 1
 90 110 l 1
 60 110 l 1
 60 100 l 1
 50 100 l 1
 50 90 l 1
 60 90 l 1
 60 70 l 1
 110 70 l 1
 110 60 l 1
 60 60 l 1
 60 50 l 1
 70 50 l 1
 70 40 l 1
 80 40 l 1
 80 30 l 1
 90 30 l 1
 90 20 l 1
 110 20 l 1
 110 10 l 1
 90 10 l 1
 90 20 l 1
 80 20 l 1
 80 30 l 1
 70 30 l 1
 70 40 l 1
 60 40 l 1
 60 0 l 1
 50 0 l 1
 50 40 l 1
 40 40 l 1
 40 30 l 1
 30 30 l 1
 30 20 l 1
 20 20 l 1
 20 10 l 1
 0 10 l 1
 0 20 l 1
 20 20 l 1
 20 30 l 1
 30 30 l 1
 30 40 l 1
 40 40 l 1
 40 50 l 1
 50 50 l 1
 50 60 l 1
 0 60 l 1
40 100 m 1
 20 100 l 1
 20 90 l 1
 30 90 l 1
 30 70 l 1
 50 70 l 1
 50 90 l 1
 40 90 l 1
 40 100 l 1
EndSplineSet
EndChar

StartChar: uni7528
Encoding: 29992 29992 281
Width: 120
GlyphClass: 1
Flags: W
LayerCount: 2
Fore
SplineSet
0 10 m 1
 10 10 l 1
 10 120 l 1
 100 120 l 1
 100 10 l 1
 90 10 l 1
 90 50 l 1
 60 50 l 1
 60 10 l 1
 50 10 l 1
 50 50 l 1
 20 50 l 1
 20 10 l 1
 10 10 l 1
 10 0 l 1
 0 0 l 1
 0 10 l 1
60 110 m 1
 60 90 l 1
 90 90 l 1
 90 110 l 1
 60 110 l 1
50 110 m 1
 20 110 l 1
 20 90 l 1
 50 90 l 1
 50 110 l 1
60 60 m 1
 90 60 l 1
 90 80 l 1
 60 80 l 1
 60 60 l 1
20 60 m 1
 50 60 l 1
 50 80 l 1
 20 80 l 1
 20 60 l 1
70 10 m 1
 70 20 l 1
 80 20 l 1
 80 10 l 1
 90 10 l 1
 90 0 l 1
 80 0 l 1
 80 10 l 1
 70 10 l 1
EndSplineSet
Substitution2: "'ss01' Style Set 1 lookup 6 subtable" uni7528_uniFE00
Substitution2: "'aalt' Access All Alternates lookup 0 subtable" uni7528_uniFE00
EndChar

StartChar: uni539F
Encoding: 21407 21407 282
Width: 120
GlyphClass: 1
Flags: W
LayerCount: 2
Fore
SplineSet
0 30 m 1
 10 30 l 1
 10 120 l 1
 110 120 l 1
 110 110 l 1
 70 110 l 1
 70 100 l 1
 100 100 l 1
 100 50 l 1
 70 50 l 1
 70 10 l 1
 60 10 l 1
 60 50 l 1
 30 50 l 1
 30 100 l 1
 60 100 l 1
 60 110 l 1
 20 110 l 1
 20 30 l 1
 10 30 l 1
 10 10 l 1
 0 10 l 1
 0 30 l 1
90 90 m 1
 40 90 l 1
 40 80 l 1
 90 80 l 1
 90 90 l 1
40 60 m 1
 90 60 l 1
 90 70 l 1
 40 70 l 1
 40 60 l 1
20 10 m 1
 20 20 l 1
 30 20 l 1
 30 30 l 1
 40 30 l 1
 40 40 l 1
 50 40 l 1
 50 30 l 1
 40 30 l 1
 40 20 l 1
 50 20 l 1
 50 10 l 1
 60 10 l 1
 60 0 l 1
 50 0 l 1
 50 10 l 1
 40 10 l 1
 40 20 l 1
 30 20 l 1
 30 10 l 1
 20 10 l 1
80 40 m 1
 90 40 l 1
 90 30 l 1
 100 30 l 1
 100 20 l 1
 110 20 l 1
 110 10 l 1
 100 10 l 1
 100 20 l 1
 90 20 l 1
 90 30 l 1
 80 30 l 1
 80 40 l 1
EndSplineSet
Substitution2: "'ss01' Style Set 1 lookup 6 subtable" uni539F_uniFE00
Substitution2: "'aalt' Access All Alternates lookup 0 subtable" uni539F_uniFE00
EndChar

StartChar: uni5B50
Encoding: 23376 23376 283
Width: 120
GlyphClass: 1
Flags: W
LayerCount: 2
Fore
SplineSet
50 60 m 1
 0 60 l 1
 0 70 l 1
 50 70 l 1
 50 80 l 1
 60 80 l 1
 60 90 l 1
 70 90 l 1
 70 100 l 1
 80 100 l 1
 80 110 l 1
 10 110 l 1
 10 120 l 1
 100 120 l 1
 100 110 l 1
 90 110 l 1
 90 100 l 1
 80 100 l 1
 80 90 l 1
 70 90 l 1
 70 80 l 1
 60 80 l 1
 60 70 l 1
 110 70 l 1
 110 60 l 1
 60 60 l 1
 60 10 l 1
 50 10 l 1
 50 60 l 1
50 10 m 1
 50 0 l 1
 40 0 l 1
 40 10 l 1
 30 10 l 1
 30 20 l 1
 40 20 l 1
 40 10 l 1
 50 10 l 1
EndSplineSet
Substitution2: "'ss01' Style Set 1 lookup 6 subtable" uni5B50_uniFE00
Substitution2: "'aalt' Access All Alternates lookup 0 subtable" uni5B50_uniFE00
EndChar

StartChar: uni6838
Encoding: 26680 26680 284
Width: 120
GlyphClass: 1
Flags: W
LayerCount: 2
Fore
SplineSet
0 40 m 1
 0 50 l 1
 10 50 l 1
 10 70 l 1
 20 70 l 1
 20 80 l 1
 0 80 l 1
 0 90 l 1
 20 90 l 1
 20 120 l 1
 30 120 l 1
 30 90 l 1
 40 90 l 1
 40 100 l 1
 70 100 l 1
 70 110 l 1
 60 110 l 1
 60 120 l 1
 70 120 l 1
 70 110 l 1
 80 110 l 1
 80 100 l 1
 110 100 l 1
 110 90 l 1
 80 90 l 1
 80 80 l 1
 70 80 l 1
 70 70 l 1
 60 70 l 1
 60 60 l 1
 80 60 l 1
 80 50 l 1
 70 50 l 1
 70 40 l 1
 60 40 l 1
 60 30 l 1
 50 30 l 1
 50 20 l 1
 40 20 l 1
 40 30 l 1
 50 30 l 1
 50 40 l 1
 60 40 l 1
 60 50 l 1
 50 50 l 1
 50 70 l 1
 60 70 l 1
 60 80 l 1
 70 80 l 1
 70 90 l 1
 40 90 l 1
 40 80 l 1
 30 80 l 1
 30 60 l 1
 40 60 l 1
 40 50 l 1
 30 50 l 1
 30 0 l 1
 20 0 l 1
 20 50 l 1
 10 50 l 1
 10 40 l 1
 0 40 l 1
90 60 m 1
 80 60 l 1
 80 70 l 1
 90 70 l 1
 90 80 l 1
 100 80 l 1
 100 70 l 1
 90 70 l 1
 90 60 l 1
40 10 m 1
 60 10 l 1
 60 20 l 1
 70 20 l 1
 70 30 l 1
 80 30 l 1
 80 40 l 1
 90 40 l 1
 90 50 l 1
 100 50 l 1
 100 40 l 1
 90 40 l 1
 90 20 l 1
 100 20 l 1
 100 10 l 1
 110 10 l 1
 110 0 l 1
 100 0 l 1
 100 10 l 1
 90 10 l 1
 90 20 l 1
 70 20 l 1
 70 10 l 1
 60 10 l 1
 60 0 l 1
 40 0 l 1
 40 10 l 1
EndSplineSet
EndChar

StartChar: uni7269
Encoding: 29289 29289 285
Width: 120
GlyphClass: 1
Flags: W
LayerCount: 2
Fore
SplineSet
10 30 m 1
 0 30 l 1
 0 40 l 1
 10 40 l 1
 10 50 l 1
 20 50 l 1
 20 80 l 1
 10 80 l 1
 10 60 l 1
 0 60 l 1
 0 110 l 1
 10 110 l 1
 10 90 l 1
 20 90 l 1
 20 120 l 1
 30 120 l 1
 30 90 l 1
 40 90 l 1
 40 80 l 1
 50 80 l 1
 50 100 l 1
 60 100 l 1
 60 120 l 1
 70 120 l 1
 70 100 l 1
 110 100 l 1
 110 10 l 1
 100 10 l 1
 100 90 l 1
 90 90 l 1
 90 50 l 1
 80 50 l 1
 80 30 l 1
 70 30 l 1
 70 10 l 1
 60 10 l 1
 60 0 l 1
 50 0 l 1
 50 10 l 1
 60 10 l 1
 60 30 l 1
 70 30 l 1
 70 50 l 1
 80 50 l 1
 80 90 l 1
 70 90 l 1
 70 60 l 1
 60 60 l 1
 60 40 l 1
 50 40 l 1
 50 30 l 1
 40 30 l 1
 40 40 l 1
 50 40 l 1
 50 60 l 1
 60 60 l 1
 60 80 l 1
 50 80 l 1
 50 70 l 1
 40 70 l 1
 40 80 l 1
 30 80 l 1
 30 60 l 1
 40 60 l 1
 40 50 l 1
 30 50 l 1
 30 0 l 1
 20 0 l 1
 20 40 l 1
 10 40 l 1
 10 30 l 1
100 10 m 1
 100 0 l 1
 90 0 l 1
 90 10 l 1
 80 10 l 1
 80 20 l 1
 90 20 l 1
 90 10 l 1
 100 10 l 1
EndSplineSet
Substitution2: "'ss01' Style Set 1 lookup 6 subtable" uni7269_uniFE00
Substitution2: "'aalt' Access All Alternates lookup 0 subtable" uni7269_uniFE00
EndChar

StartChar: uni7406
Encoding: 29702 29702 286
Width: 120
GlyphClass: 1
Flags: W
LayerCount: 2
Fore
SplineSet
0 100 m 1
 0 110 l 1
 40 110 l 1
 40 120 l 1
 110 120 l 1
 110 50 l 1
 80 50 l 1
 80 40 l 1
 110 40 l 1
 110 30 l 1
 80 30 l 1
 80 10 l 1
 110 10 l 1
 110 0 l 1
 30 0 l 1
 30 10 l 1
 70 10 l 1
 70 30 l 1
 40 30 l 1
 40 20 l 1
 20 20 l 1
 20 10 l 1
 0 10 l 1
 0 20 l 1
 10 20 l 1
 10 60 l 1
 0 60 l 1
 0 70 l 1
 10 70 l 1
 10 100 l 1
 0 100 l 1
50 110 m 1
 50 90 l 1
 70 90 l 1
 70 110 l 1
 50 110 l 1
80 90 m 1
 100 90 l 1
 100 110 l 1
 80 110 l 1
 80 90 l 1
20 70 m 1
 40 70 l 1
 40 100 l 1
 20 100 l 1
 20 70 l 1
100 60 m 1
 100 80 l 1
 80 80 l 1
 80 60 l 1
 100 60 l 1
70 60 m 1
 70 80 l 1
 50 80 l 1
 50 60 l 1
 70 60 l 1
40 60 m 1
 20 60 l 1
 20 30 l 1
 40 30 l 1
 40 40 l 1
 70 40 l 1
 70 50 l 1
 40 50 l 1
 40 60 l 1
EndSplineSet
Substitution2: "'ss01' Style Set 1 lookup 6 subtable" uni7406_uniFE00
Substitution2: "'aalt' Access All Alternates lookup 0 subtable" uni7406_uniFE00
EndChar

StartChar: uni4E0D
Encoding: 19981 19981 287
Width: 120
GlyphClass: 1
Flags: W
LayerCount: 2
Fore
SplineSet
0 50 m 1
 20 50 l 1
 20 60 l 1
 30 60 l 1
 30 70 l 1
 40 70 l 1
 40 80 l 1
 50 80 l 1
 50 100 l 1
 60 100 l 1
 60 110 l 1
 0 110 l 1
 0 120 l 1
 110 120 l 1
 110 110 l 1
 70 110 l 1
 70 100 l 1
 60 100 l 1
 60 0 l 1
 50 0 l 1
 50 70 l 1
 40 70 l 1
 40 60 l 1
 30 60 l 1
 30 50 l 1
 20 50 l 1
 20 40 l 1
 0 40 l 1
 0 50 l 1
80 70 m 1
 70 70 l 1
 70 80 l 1
 80 80 l 1
 80 70 l 1
 90 70 l 1
 90 60 l 1
 100 60 l 1
 100 50 l 1
 110 50 l 1
 110 40 l 1
 100 40 l 1
 100 50 l 1
 90 50 l 1
 90 60 l 1
 80 60 l 1
 80 70 l 1
EndSplineSet
Substitution2: "'ss01' Style Set 1 lookup 6 subtable" uni4E0D_uniFE00
Substitution2: "'aalt' Access All Alternates lookup 0 subtable" uni4E0D_uniFE00
EndChar

StartChar: uni4E0E
Encoding: 19982 19982 288
Width: 120
GlyphClass: 1
Flags: W
LayerCount: 2
Fore
SplineSet
30 60 m 1
 30 90 l 1
 40 90 l 1
 40 120 l 1
 50 120 l 1
 50 100 l 1
 120 100 l 1
 120 90 l 1
 40 90 l 1
 40 70 l 1
 120 70 l 1
 120 20 l 1
 110 20 l 1
 110 10 l 1
 100 10 l 1
 100 20 l 1
 110 20 l 1
 110 60 l 1
 30 60 l 1
20 30 m 1
 20 40 l 1
 100 40 l 1
 100 30 l 1
 20 30 l 1
100 10 m 1
 100 0 l 1
 90 0 l 1
 90 10 l 1
 80 10 l 1
 80 20 l 1
 90 20 l 1
 90 10 l 1
 100 10 l 1
EndSplineSet
EndChar

StartChar: uni5176
Encoding: 20854 20854 289
Width: 120
GlyphClass: 1
Flags: W
LayerCount: 2
Fore
SplineSet
0 30 m 1
 0 40 l 1
 20 40 l 1
 20 90 l 1
 0 90 l 1
 0 100 l 1
 20 100 l 1
 20 120 l 1
 30 120 l 1
 30 100 l 1
 80 100 l 1
 80 120 l 1
 90 120 l 1
 90 100 l 1
 110 100 l 1
 110 90 l 1
 90 90 l 1
 90 40 l 1
 110 40 l 1
 110 30 l 1
 80 30 l 1
 80 20 l 1
 90 20 l 1
 90 10 l 1
 100 10 l 1
 100 0 l 1
 90 0 l 1
 90 10 l 1
 80 10 l 1
 80 20 l 1
 70 20 l 1
 70 30 l 1
 40 30 l 1
 40 20 l 1
 30 20 l 1
 30 10 l 1
 20 10 l 1
 20 0 l 1
 10 0 l 1
 10 10 l 1
 20 10 l 1
 20 20 l 1
 30 20 l 1
 30 30 l 1
 0 30 l 1
80 90 m 1
 30 90 l 1
 30 80 l 1
 80 80 l 1
 80 90 l 1
30 60 m 1
 80 60 l 1
 80 70 l 1
 30 70 l 1
 30 60 l 1
80 50 m 1
 30 50 l 1
 30 40 l 1
 80 40 l 1
 80 50 l 1
EndSplineSet
EndChar

StartChar: uni4ED6
Encoding: 20182 20182 290
Width: 120
GlyphClass: 1
Flags: W
LayerCount: 2
Fore
SplineSet
30 60 m 1
 30 70 l 1
 40 70 l 1
 40 100 l 1
 50 100 l 1
 50 80 l 1
 60 80 l 1
 60 120 l 1
 70 120 l 1
 70 80 l 1
 80 80 l 1
 80 90 l 1
 100 90 l 1
 100 40 l 1
 90 40 l 1
 90 80 l 1
 80 80 l 1
 80 70 l 1
 70 70 l 1
 70 50 l 1
 80 50 l 1
 80 40 l 1
 90 40 l 1
 90 30 l 1
 80 30 l 1
 80 40 l 1
 70 40 l 1
 70 20 l 1
 60 20 l 1
 60 70 l 1
 50 70 l 1
 50 10 l 1
 100 10 l 1
 100 30 l 1
 110 30 l 1
 110 0 l 1
 50 0 l 1
 50 10 l 1
 40 10 l 1
 40 60 l 1
 30 60 l 1
0 60 m 1
 0 70 l 1
 10 70 l 1
 10 90 l 1
 20 90 l 1
 20 120 l 1
 30 120 l 1
 30 90 l 1
 20 90 l 1
 20 0 l 1
 10 0 l 1
 10 60 l 1
 0 60 l 1
EndSplineSet
Substitution2: "'ss01' Style Set 1 lookup 6 subtable" uni4ED6_uniFE00
Substitution2: "'aalt' Access All Alternates lookup 0 subtable" uni4ED6_uniFE00
EndChar

StartChar: uni957F
Encoding: 38271 38271 291
Width: 120
GlyphClass: 1
Flags: W
LayerCount: 2
Fore
SplineSet
40 60 m 1
 30 60 l 1
 30 10 l 1
 40 10 l 1
 40 0 l 1
 20 0 l 1
 20 60 l 1
 0 60 l 1
 0 70 l 1
 20 70 l 1
 20 120 l 1
 30 120 l 1
 30 70 l 1
 40 70 l 1
 40 80 l 1
 50 80 l 1
 50 90 l 1
 60 90 l 1
 60 100 l 1
 70 100 l 1
 70 110 l 1
 80 110 l 1
 80 120 l 1
 90 120 l 1
 90 110 l 1
 80 110 l 1
 80 100 l 1
 70 100 l 1
 70 90 l 1
 60 90 l 1
 60 80 l 1
 50 80 l 1
 50 70 l 1
 110 70 l 1
 110 60 l 1
 50 60 l 1
 50 50 l 1
 60 50 l 1
 60 40 l 1
 70 40 l 1
 70 30 l 1
 80 30 l 1
 80 20 l 1
 90 20 l 1
 90 10 l 1
 110 10 l 1
 110 0 l 1
 90 0 l 1
 90 10 l 1
 80 10 l 1
 80 20 l 1
 70 20 l 1
 70 30 l 1
 60 30 l 1
 60 20 l 1
 50 20 l 1
 50 10 l 1
 40 10 l 1
 40 20 l 1
 50 20 l 1
 50 30 l 1
 60 30 l 1
 60 40 l 1
 50 40 l 1
 50 50 l 1
 40 50 l 1
 40 60 l 1
EndSplineSet
EndChar

StartChar: uni9762
Encoding: 38754 38754 292
Width: 120
GlyphClass: 1
Flags: W
LayerCount: 2
Fore
SplineSet
0 120 m 1
 110 120 l 1
 110 110 l 1
 60 110 l 1
 60 100 l 1
 50 100 l 1
 50 90 l 1
 110 90 l 1
 110 0 l 1
 100 0 l 1
 100 10 l 1
 20 10 l 1
 20 0 l 1
 10 0 l 1
 10 90 l 1
 40 90 l 1
 40 100 l 1
 50 100 l 1
 50 110 l 1
 0 110 l 1
 0 120 l 1
100 80 m 1
 80 80 l 1
 80 20 l 1
 100 20 l 1
 100 80 l 1
20 80 m 1
 20 20 l 1
 40 20 l 1
 40 80 l 1
 20 80 l 1
50 70 m 1
 70 70 l 1
 70 80 l 1
 50 80 l 1
 50 70 l 1
50 40 m 1
 70 40 l 1
 70 60 l 1
 50 60 l 1
 50 40 l 1
50 20 m 1
 70 20 l 1
 70 30 l 1
 50 30 l 1
 50 20 l 1
EndSplineSet
Substitution2: "'ss01' Style Set 1 lookup 6 subtable" uni9762_uniFE00
Substitution2: "'aalt' Access All Alternates lookup 0 subtable" uni9762_uniFE00
EndChar

StartChar: uni80FD
Encoding: 33021 33021 293
Width: 120
GlyphClass: 1
Flags: W
LayerCount: 2
Fore
SplineSet
30 20 m 1
 30 10 l 1
 40 10 l 1
 40 0 l 1
 30 0 l 1
 30 10 l 1
 20 10 l 1
 20 0 l 1
 10 0 l 1
 10 80 l 1
 40 80 l 1
 40 90 l 1
 0 90 l 1
 0 100 l 1
 10 100 l 1
 10 110 l 1
 20 110 l 1
 20 120 l 1
 30 120 l 1
 30 110 l 1
 40 110 l 1
 40 100 l 1
 50 100 l 1
 50 10 l 1
 40 10 l 1
 40 30 l 1
 20 30 l 1
 20 20 l 1
 30 20 l 1
70 70 m 1
 100 70 l 1
 100 90 l 1
 110 90 l 1
 110 60 l 1
 70 60 l 1
 70 40 l 1
 90 40 l 1
 90 30 l 1
 70 30 l 1
 70 10 l 1
 100 10 l 1
 100 30 l 1
 110 30 l 1
 110 0 l 1
 70 0 l 1
 70 10 l 1
 60 10 l 1
 60 60 l 1
 70 60 l 1
 70 70 l 1
 60 70 l 1
 60 120 l 1
 70 120 l 1
 70 100 l 1
 90 100 l 1
 90 90 l 1
 70 90 l 1
 70 70 l 1
110 100 m 1
 90 100 l 1
 90 110 l 1
 110 110 l 1
 110 100 l 1
30 100 m 1
 30 110 l 1
 20 110 l 1
 20 100 l 1
 30 100 l 1
40 70 m 1
 20 70 l 1
 20 60 l 1
 40 60 l 1
 40 70 l 1
110 40 m 1
 90 40 l 1
 90 50 l 1
 110 50 l 1
 110 40 l 1
20 40 m 1
 40 40 l 1
 40 50 l 1
 20 50 l 1
 20 40 l 1
EndSplineSet
Substitution2: "'ss01' Style Set 1 lookup 6 subtable" uni80FD_uniFE00
Substitution2: "'aalt' Access All Alternates lookup 0 subtable" uni80FD_uniFE00
EndChar

StartChar: uni8D28
Encoding: 36136 36136 294
Width: 120
GlyphClass: 1
Flags: W
LayerCount: 2
Fore
SplineSet
10 0 m 1
 0 0 l 1
 0 10 l 1
 10 10 l 1
 10 110 l 1
 60 110 l 1
 60 120 l 1
 100 120 l 1
 100 110 l 1
 70 110 l 1
 70 90 l 1
 110 90 l 1
 110 80 l 1
 60 80 l 1
 60 70 l 1
 100 70 l 1
 100 20 l 1
 90 20 l 1
 90 60 l 1
 40 60 l 1
 40 20 l 1
 30 20 l 1
 30 70 l 1
 50 70 l 1
 50 80 l 1
 20 80 l 1
 20 10 l 1
 50 10 l 1
 50 0 l 1
 20 0 l 1
 20 10 l 1
 10 10 l 1
 10 0 l 1
20 90 m 1
 60 90 l 1
 60 100 l 1
 20 100 l 1
 20 90 l 1
60 20 m 1
 60 10 l 1
 50 10 l 1
 50 20 l 1
 60 20 l 1
 60 50 l 1
 70 50 l 1
 70 20 l 1
 90 20 l 1
 90 10 l 1
 110 10 l 1
 110 0 l 1
 90 0 l 1
 90 10 l 1
 70 10 l 1
 70 20 l 1
 60 20 l 1
EndSplineSet
EndChar

StartChar: uni538B
Encoding: 21387 21387 295
Width: 120
GlyphClass: 1
Flags: W
LayerCount: 2
Fore
SplineSet
10 0 m 1
 0 0 l 1
 0 20 l 1
 10 20 l 1
 10 120 l 1
 110 120 l 1
 110 110 l 1
 20 110 l 1
 20 20 l 1
 60 20 l 1
 60 60 l 1
 30 60 l 1
 30 70 l 1
 60 70 l 1
 60 100 l 1
 70 100 l 1
 70 70 l 1
 100 70 l 1
 100 60 l 1
 70 60 l 1
 70 20 l 1
 110 20 l 1
 110 10 l 1
 20 10 l 1
 20 20 l 1
 10 20 l 1
 10 0 l 1
90 40 m 1
 80 40 l 1
 80 50 l 1
 90 50 l 1
 90 40 l 1
 100 40 l 1
 100 30 l 1
 90 30 l 1
 90 40 l 1
EndSplineSet
EndChar

StartChar: uni529F
Encoding: 21151 21151 296
Width: 120
GlyphClass: 1
Flags: W
LayerCount: 2
Fore
SplineSet
20 90 m 1
 0 90 l 1
 0 100 l 1
 50 100 l 1
 50 90 l 1
 70 90 l 1
 70 120 l 1
 80 120 l 1
 80 90 l 1
 110 90 l 1
 110 10 l 1
 100 10 l 1
 100 80 l 1
 80 80 l 1
 80 40 l 1
 70 40 l 1
 70 20 l 1
 60 20 l 1
 60 10 l 1
 50 10 l 1
 50 0 l 1
 40 0 l 1
 40 10 l 1
 50 10 l 1
 50 20 l 1
 60 20 l 1
 60 40 l 1
 70 40 l 1
 70 80 l 1
 50 80 l 1
 50 90 l 1
 30 90 l 1
 30 40 l 1
 50 40 l 1
 50 30 l 1
 20 30 l 1
 20 20 l 1
 0 20 l 1
 0 30 l 1
 20 30 l 1
 20 90 l 1
100 10 m 1
 100 0 l 1
 90 0 l 1
 90 10 l 1
 80 10 l 1
 80 20 l 1
 90 20 l 1
 90 10 l 1
 100 10 l 1
EndSplineSet
EndChar

StartChar: uni79EF
Encoding: 31215 31215 297
Width: 120
GlyphClass: 1
Flags: W
LayerCount: 2
Fore
SplineSet
30 70 m 1
 30 60 l 1
 40 60 l 1
 40 50 l 1
 50 50 l 1
 50 40 l 1
 40 40 l 1
 40 50 l 1
 30 50 l 1
 30 0 l 1
 20 0 l 1
 20 40 l 1
 10 40 l 1
 10 30 l 1
 0 30 l 1
 0 40 l 1
 10 40 l 1
 10 60 l 1
 20 60 l 1
 20 70 l 1
 0 70 l 1
 0 80 l 1
 20 80 l 1
 20 100 l 1
 0 100 l 1
 0 110 l 1
 30 110 l 1
 30 120 l 1
 50 120 l 1
 50 110 l 1
 110 110 l 1
 110 50 l 1
 50 50 l 1
 50 70 l 1
 30 70 l 1
30 80 m 1
 50 80 l 1
 50 110 l 1
 30 110 l 1
 30 80 l 1
60 100 m 1
 60 60 l 1
 100 60 l 1
 100 100 l 1
 60 100 l 1
40 0 m 1
 40 10 l 1
 50 10 l 1
 50 20 l 1
 60 20 l 1
 60 40 l 1
 70 40 l 1
 70 20 l 1
 60 20 l 1
 60 10 l 1
 50 10 l 1
 50 0 l 1
 40 0 l 1
90 20 m 1
 90 40 l 1
 100 40 l 1
 100 20 l 1
 110 20 l 1
 110 0 l 1
 100 0 l 1
 100 20 l 1
 90 20 l 1
EndSplineSet
EndChar

StartChar: uni529B
Encoding: 21147 21147 298
Width: 120
GlyphClass: 1
Flags: W
LayerCount: 2
Fore
SplineSet
100 80 m 1
 50 80 l 1
 50 40 l 1
 40 40 l 1
 40 20 l 1
 30 20 l 1
 30 10 l 1
 20 10 l 1
 20 0 l 1
 0 0 l 1
 0 10 l 1
 20 10 l 1
 20 20 l 1
 30 20 l 1
 30 40 l 1
 40 40 l 1
 40 80 l 1
 0 80 l 1
 0 90 l 1
 40 90 l 1
 40 120 l 1
 50 120 l 1
 50 90 l 1
 110 90 l 1
 110 20 l 1
 100 20 l 1
 100 10 l 1
 90 10 l 1
 90 20 l 1
 100 20 l 1
 100 80 l 1
90 10 m 1
 90 0 l 1
 80 0 l 1
 80 10 l 1
 70 10 l 1
 70 20 l 1
 80 20 l 1
 80 10 l 1
 90 10 l 1
EndSplineSet
Substitution2: "'ss01' Style Set 1 lookup 6 subtable" uni529B_uniFE00
Substitution2: "'aalt' Access All Alternates lookup 0 subtable" uni529B_uniFE00
EndChar

StartChar: uni901F
Encoding: 36895 36895 299
Width: 120
GlyphClass: 1
Flags: W
LayerCount: 2
Fore
SplineSet
0 10 m 1
 10 10 l 1
 10 20 l 1
 20 20 l 1
 20 70 l 1
 0 70 l 1
 0 80 l 1
 30 80 l 1
 30 20 l 1
 40 20 l 1
 40 10 l 1
 70 10 l 1
 70 40 l 1
 60 40 l 1
 60 30 l 1
 50 30 l 1
 50 20 l 1
 40 20 l 1
 40 30 l 1
 50 30 l 1
 50 40 l 1
 60 40 l 1
 60 50 l 1
 40 50 l 1
 40 80 l 1
 70 80 l 1
 70 90 l 1
 40 90 l 1
 40 100 l 1
 70 100 l 1
 70 120 l 1
 80 120 l 1
 80 100 l 1
 110 100 l 1
 110 90 l 1
 80 90 l 1
 80 80 l 1
 110 80 l 1
 110 50 l 1
 90 50 l 1
 90 40 l 1
 100 40 l 1
 100 30 l 1
 110 30 l 1
 110 20 l 1
 100 20 l 1
 100 30 l 1
 90 30 l 1
 90 40 l 1
 80 40 l 1
 80 10 l 1
 110 10 l 1
 110 0 l 1
 40 0 l 1
 40 10 l 1
 30 10 l 1
 30 20 l 1
 20 20 l 1
 20 10 l 1
 10 10 l 1
 10 0 l 1
 0 0 l 1
 0 10 l 1
10 110 m 1
 10 120 l 1
 20 120 l 1
 20 110 l 1
 30 110 l 1
 30 90 l 1
 20 90 l 1
 20 110 l 1
 10 110 l 1
80 70 m 1
 80 60 l 1
 100 60 l 1
 100 70 l 1
 80 70 l 1
70 70 m 1
 50 70 l 1
 50 60 l 1
 70 60 l 1
 70 70 l 1
EndSplineSet
Substitution2: "'ss01' Style Set 1 lookup 6 subtable" uni901F_uniFE00
Substitution2: "'aalt' Access All Alternates lookup 0 subtable" uni901F_uniFE00
EndChar

StartChar: uni7387
Encoding: 29575 29575 300
Width: 120
GlyphClass: 1
Flags: W
LayerCount: 2
Fore
SplineSet
0 100 m 1
 0 110 l 1
 50 110 l 1
 50 120 l 1
 60 120 l 1
 60 110 l 1
 110 110 l 1
 110 100 l 1
 100 100 l 1
 100 90 l 1
 90 90 l 1
 90 80 l 1
 80 80 l 1
 80 70 l 1
 90 70 l 1
 90 60 l 1
 100 60 l 1
 100 50 l 1
 90 50 l 1
 90 60 l 1
 80 60 l 1
 80 50 l 1
 60 50 l 1
 60 40 l 1
 110 40 l 1
 110 30 l 1
 60 30 l 1
 60 0 l 1
 50 0 l 1
 50 30 l 1
 0 30 l 1
 0 40 l 1
 50 40 l 1
 50 50 l 1
 30 50 l 1
 30 60 l 1
 20 60 l 1
 20 50 l 1
 0 50 l 1
 0 60 l 1
 20 60 l 1
 20 70 l 1
 30 70 l 1
 30 80 l 1
 20 80 l 1
 20 90 l 1
 10 90 l 1
 10 100 l 1
 0 100 l 1
30 90 m 1
 30 80 l 1
 40 80 l 1
 40 70 l 1
 30 70 l 1
 30 60 l 1
 40 60 l 1
 40 70 l 1
 50 70 l 1
 50 60 l 1
 60 60 l 1
 60 70 l 1
 70 70 l 1
 70 60 l 1
 80 60 l 1
 80 70 l 1
 70 70 l 1
 70 80 l 1
 80 80 l 1
 80 90 l 1
 90 90 l 1
 90 100 l 1
 60 100 l 1
 60 90 l 1
 50 90 l 1
 50 100 l 1
 20 100 l 1
 20 90 l 1
 30 90 l 1
50 80 m 1
 60 80 l 1
 60 70 l 1
 50 70 l 1
 50 80 l 1
 40 80 l 1
 40 90 l 1
 50 90 l 1
 50 80 l 1
70 80 m 1
 60 80 l 1
 60 90 l 1
 70 90 l 1
 70 80 l 1
EndSplineSet
Substitution2: "'ss01' Style Set 1 lookup 6 subtable" uni7387_uniFE00
Substitution2: "'aalt' Access All Alternates lookup 0 subtable" uni7387_uniFE00
EndChar

StartChar: uni6E29
Encoding: 28201 28201 301
Width: 120
GlyphClass: 1
Flags: W
LayerCount: 2
Fore
SplineSet
40 70 m 1
 40 120 l 1
 90 120 l 1
 90 70 l 1
 40 70 l 1
20 110 m 1
 30 110 l 1
 30 100 l 1
 20 100 l 1
 20 110 l 1
 10 110 l 1
 10 120 l 1
 20 120 l 1
 20 110 l 1
50 100 m 1
 80 100 l 1
 80 110 l 1
 50 110 l 1
 50 100 l 1
0 100 m 1
 10 100 l 1
 10 90 l 1
 20 90 l 1
 20 80 l 1
 30 80 l 1
 30 60 l 1
 100 60 l 1
 100 20 l 1
 110 20 l 1
 110 10 l 1
 20 10 l 1
 20 0 l 1
 10 0 l 1
 10 40 l 1
 0 40 l 1
 0 50 l 1
 10 50 l 1
 10 60 l 1
 20 60 l 1
 20 80 l 1
 10 80 l 1
 10 90 l 1
 0 90 l 1
 0 100 l 1
80 80 m 1
 80 90 l 1
 50 90 l 1
 50 80 l 1
 80 80 l 1
20 60 m 1
 20 20 l 1
 30 20 l 1
 30 60 l 1
 20 60 l 1
40 50 m 1
 40 20 l 1
 50 20 l 1
 50 50 l 1
 40 50 l 1
60 20 m 1
 70 20 l 1
 70 50 l 1
 60 50 l 1
 60 20 l 1
80 20 m 1
 90 20 l 1
 90 50 l 1
 80 50 l 1
 80 20 l 1
EndSplineSet
Substitution2: "'ss01' Style Set 1 lookup 6 subtable" uni6E29_uniFE00
Substitution2: "'aalt' Access All Alternates lookup 0 subtable" uni6E29_uniFE00
EndChar

StartChar: uni53CC
Encoding: 21452 21452 302
Width: 120
GlyphClass: 1
Flags: W
LayerCount: 2
Fore
SplineSet
100 50 m 1
 90 50 l 1
 90 100 l 1
 60 100 l 1
 60 110 l 1
 100 110 l 1
 100 50 l 1
50 60 m 1
 40 60 l 1
 40 100 l 1
 0 100 l 1
 0 110 l 1
 50 110 l 1
 50 60 l 1
60 0 m 1
 50 0 l 1
 50 10 l 1
 60 10 l 1
 60 20 l 1
 70 20 l 1
 70 30 l 1
 80 30 l 1
 80 50 l 1
 70 50 l 1
 70 70 l 1
 60 70 l 1
 60 90 l 1
 70 90 l 1
 70 70 l 1
 80 70 l 1
 80 50 l 1
 90 50 l 1
 90 30 l 1
 100 30 l 1
 100 10 l 1
 110 10 l 1
 110 0 l 1
 100 0 l 1
 100 10 l 1
 90 10 l 1
 90 30 l 1
 80 30 l 1
 80 20 l 1
 70 20 l 1
 70 10 l 1
 60 10 l 1
 60 0 l 1
10 10 m 1
 0 10 l 1
 0 20 l 1
 10 20 l 1
 10 30 l 1
 20 30 l 1
 20 40 l 1
 30 40 l 1
 30 60 l 1
 20 60 l 1
 20 80 l 1
 10 80 l 1
 10 90 l 1
 20 90 l 1
 20 80 l 1
 30 80 l 1
 30 60 l 1
 40 60 l 1
 40 40 l 1
 50 40 l 1
 50 20 l 1
 40 20 l 1
 40 40 l 1
 30 40 l 1
 30 30 l 1
 20 30 l 1
 20 20 l 1
 10 20 l 1
 10 10 l 1
EndSplineSet
Substitution2: "'ss01' Style Set 1 lookup 6 subtable" uni53CC_uniFE00
Substitution2: "'aalt' Access All Alternates lookup 0 subtable" uni53CC_uniFE00
EndChar

StartChar: uni66F2
Encoding: 26354 26354 303
Width: 120
GlyphClass: 1
Flags: W
LayerCount: 2
Fore
SplineSet
20 0 m 1
 20 90 l 1
 50 90 l 1
 50 120 l 1
 60 120 l 1
 60 90 l 1
 80 90 l 1
 80 120 l 1
 90 120 l 1
 90 90 l 1
 120 90 l 1
 120 0 l 1
 20 0 l 1
90 50 m 1
 110 50 l 1
 110 80 l 1
 90 80 l 1
 90 50 l 1
50 80 m 1
 30 80 l 1
 30 50 l 1
 50 50 l 1
 50 80 l 1
60 80 m 1
 60 50 l 1
 80 50 l 1
 80 80 l 1
 60 80 l 1
110 40 m 1
 90 40 l 1
 90 10 l 1
 110 10 l 1
 110 40 l 1
60 40 m 1
 60 10 l 1
 80 10 l 1
 80 40 l 1
 60 40 l 1
50 40 m 1
 30 40 l 1
 30 10 l 1
 50 10 l 1
 50 40 l 1
EndSplineSet
Substitution2: "'ss01' Style Set 1 lookup 6 subtable" uni66F2_uniFE00
Substitution2: "'aalt' Access All Alternates lookup 0 subtable" uni66F2_uniFE00
EndChar

StartChar: ideographicperiod
Encoding: 12290 12290 304
Width: 120
GlyphClass: 1
Flags: W
LayerCount: 2
Fore
SplineSet
30 50 m 1
 40 50 l 1
 40 40 l 1
 30 40 l 1
 30 50 l 1
20 40 m 1
 30 40 l 1
 30 30 l 1
 20 30 l 1
 20 40 l 1
40 40 m 1
 50 40 l 1
 50 30 l 1
 40 30 l 1
 40 40 l 1
30 30 m 1
 40 30 l 1
 40 20 l 1
 30 20 l 1
 30 30 l 1
EndSplineSet
Substitution2: "'ss01' Style Set 1 lookup 6 subtable" ideographicperiod.ss01
Substitution2: "'aalt' Access All Alternates lookup 0 subtable" ideographicperiod.ss01
EndChar

StartChar: uni952E
Encoding: 38190 38190 305
Width: 120
GlyphClass: 1
Flags: W
LayerCount: 2
Fore
SplineSet
30 20 m 1
 30 30 l 1
 40 30 l 1
 40 20 l 1
 50 20 l 1
 50 30 l 1
 40 30 l 1
 40 40 l 1
 50 40 l 1
 50 60 l 1
 40 60 l 1
 40 80 l 1
 50 80 l 1
 50 70 l 1
 70 70 l 1
 70 80 l 1
 50 80 l 1
 50 100 l 1
 40 100 l 1
 40 90 l 1
 10 90 l 1
 10 80 l 1
 30 80 l 1
 30 70 l 1
 20 70 l 1
 20 50 l 1
 40 50 l 1
 40 40 l 1
 20 40 l 1
 20 20 l 1
 30 20 l 1
 30 10 l 1
 40 10 l 1
 40 0 l 1
 30 0 l 1
 30 10 l 1
 20 10 l 1
 20 0 l 1
 10 0 l 1
 10 40 l 1
 0 40 l 1
 0 50 l 1
 10 50 l 1
 10 70 l 1
 0 70 l 1
 0 90 l 1
 10 90 l 1
 10 120 l 1
 20 120 l 1
 20 100 l 1
 40 100 l 1
 40 110 l 1
 70 110 l 1
 70 120 l 1
 80 120 l 1
 80 110 l 1
 100 110 l 1
 100 90 l 1
 110 90 l 1
 110 80 l 1
 100 80 l 1
 100 60 l 1
 80 60 l 1
 80 50 l 1
 100 50 l 1
 100 40 l 1
 80 40 l 1
 80 30 l 1
 100 30 l 1
 100 20 l 1
 80 20 l 1
 80 10 l 1
 110 10 l 1
 110 0 l 1
 70 0 l 1
 70 10 l 1
 60 10 l 1
 60 20 l 1
 50 20 l 1
 50 10 l 1
 40 10 l 1
 40 20 l 1
 30 20 l 1
80 90 m 1
 90 90 l 1
 90 100 l 1
 80 100 l 1
 80 90 l 1
60 90 m 1
 70 90 l 1
 70 100 l 1
 60 100 l 1
 60 90 l 1
90 80 m 1
 80 80 l 1
 80 70 l 1
 90 70 l 1
 90 80 l 1
70 50 m 1
 70 60 l 1
 60 60 l 1
 60 50 l 1
 70 50 l 1
70 40 m 1
 60 40 l 1
 60 30 l 1
 70 30 l 1
 70 40 l 1
EndSplineSet
EndChar

StartChar: uni6309
Encoding: 25353 25353 306
Width: 120
GlyphClass: 1
Flags: W
LayerCount: 2
Fore
SplineSet
60 50 m 1
 60 30 l 1
 80 30 l 1
 80 20 l 1
 90 20 l 1
 90 10 l 1
 100 10 l 1
 100 0 l 1
 90 0 l 1
 90 10 l 1
 80 10 l 1
 80 20 l 1
 70 20 l 1
 70 10 l 1
 60 10 l 1
 60 0 l 1
 40 0 l 1
 40 10 l 1
 60 10 l 1
 60 30 l 1
 50 30 l 1
 50 50 l 1
 40 50 l 1
 40 60 l 1
 30 60 l 1
 30 10 l 1
 20 10 l 1
 20 50 l 1
 0 50 l 1
 0 60 l 1
 20 60 l 1
 20 90 l 1
 0 90 l 1
 0 100 l 1
 20 100 l 1
 20 120 l 1
 30 120 l 1
 30 100 l 1
 70 100 l 1
 70 110 l 1
 60 110 l 1
 60 120 l 1
 70 120 l 1
 70 110 l 1
 80 110 l 1
 80 100 l 1
 110 100 l 1
 110 80 l 1
 100 80 l 1
 100 90 l 1
 50 90 l 1
 50 80 l 1
 40 80 l 1
 40 90 l 1
 30 90 l 1
 30 70 l 1
 40 70 l 1
 40 60 l 1
 60 60 l 1
 60 80 l 1
 70 80 l 1
 70 60 l 1
 110 60 l 1
 110 50 l 1
 90 50 l 1
 90 30 l 1
 80 30 l 1
 80 50 l 1
 60 50 l 1
0 20 m 1
 10 20 l 1
 10 10 l 1
 20 10 l 1
 20 0 l 1
 10 0 l 1
 10 10 l 1
 0 10 l 1
 0 20 l 1
EndSplineSet
EndChar

